<svg width="15" height="15" viewBox="0 0 15 15" fill="none" xmlns="http://www.w3.org/2000/svg">
<path fill-rule="evenodd" clip-rule="evenodd" d="M6.88219 0.0510458C3.70782 0.349945 1.19089 3.04675 0.911064 6.44891C0.629792 9.86822 2.81435 13.0494 5.9844 13.8366C8.56882 14.4784 11.2286 13.4338 12.8348 11.1461C13.2439 10.5633 13.4809 10.0558 13.447 9.83486C13.3959 9.50073 13.076 9.28101 12.7716 9.37088C12.5882 9.42506 12.4646 9.54875 12.3459 9.79688C12.0372 10.4422 11.214 11.4081 10.6015 11.8437C9.28029 12.7833 7.64971 13.0859 6.12771 12.6738C4.71226 12.2907 3.44453 11.2688 2.71651 9.92428C1.20407 7.13103 2.11735 3.56593 4.7567 1.96033C6.60232 0.837552 8.87736 0.946164 10.653 2.24177C11.2695 2.69159 12.0187 3.57489 12.3321 4.22117C12.4646 4.4945 12.5841 4.61727 12.7716 4.67262C13.076 4.7625 13.3959 4.54278 13.447 4.20864C13.4809 3.98775 13.2439 3.48023 12.8348 2.89741C11.8736 1.52848 10.6087 0.629596 9.0797 0.228959C8.63766 0.113117 7.68935 -0.0171357 7.42655 0.00185733C7.37364 0.00572723 7.12869 0.0278264 6.88219 0.0510458ZM6.56253 5.44243L5.30992 6.76552V7.02175V7.27798L6.56253 8.60108L7.81515 9.92418H8.04658C8.24564 9.92418 8.30092 9.89994 8.44158 9.75105C8.57656 9.60817 8.60514 9.53988 8.60514 9.36024C8.60514 9.14816 8.58714 9.12336 7.90761 8.39826C7.52397 7.98892 7.21008 7.63778 7.21008 7.61792C7.21008 7.59811 8.68999 7.58187 10.4988 7.58187C13.7232 7.58187 13.7899 7.57988 13.9108 7.47921C14.1803 7.25486 14.1803 6.78864 13.9108 6.56429C13.7899 6.46362 13.7232 6.46164 10.4988 6.46164C8.68999 6.46164 7.21008 6.44473 7.21008 6.42411C7.21008 6.40343 7.51853 6.05942 7.89558 5.65965L8.58108 4.93272V4.67461C8.58108 4.4474 8.56227 4.39867 8.42397 4.26791C8.29769 4.14845 8.2226 4.11933 8.041 4.11933H7.81515L6.56253 5.44243Z" fill="white"/>
</svg>
