<svg width="84" height="76" viewBox="0 0 84 76" fill="none" xmlns="http://www.w3.org/2000/svg">
<path fill-rule="evenodd" clip-rule="evenodd" d="M20.2473 0.313376C18.6966 0.798129 17.0428 2.32174 16.3566 3.89811C15.8681 5.02025 15.7795 5.70794 15.6806 9.14517L15.5668 13.1009L10.1568 13.1746C4.90368 13.2462 4.71174 13.2664 3.53343 13.873C2.09456 14.614 0.642493 16.4084 0.263238 17.9147C0.0871636 18.6139 0.000225443 24.8863 0.000225443 36.8792C0.000225443 56.8071 -0.0569192 56.0732 1.64839 58.0652C2.13729 58.6364 3.09288 59.3627 3.77178 59.6787L5.0065 60.2536L25.7764 60.256C41.608 60.258 46.6159 60.1889 46.8394 59.9654C47.2172 59.5876 47.2172 58.4872 46.8394 58.1094C46.6162 57.8862 41.7664 57.8161 26.509 57.8149C12.6104 57.8142 6.17332 57.7309 5.49784 57.5434C4.31001 57.2134 3.00057 55.8859 2.8096 54.8177C2.73218 54.385 2.70019 48.1909 2.73878 41.0527L2.80862 28.0742L14.5306 31.8348C20.9777 33.903 26.8294 35.7675 27.5347 35.978L28.8168 36.3607V38.6089C28.8168 42.0708 28.6153 41.9428 34.0636 41.9428C37.8169 41.9428 38.613 41.8801 38.9341 41.5592C39.2301 41.263 39.3178 40.6346 39.3178 38.8104V36.4452L52.1719 32.3359C59.2415 30.0758 65.1758 28.169 65.3592 28.0987C65.6344 27.9929 65.6923 28.9048 65.6923 33.3396C65.6923 39.1974 65.7326 39.3684 67.0759 39.2131C68.37 39.0636 68.3981 38.8123 68.3048 28.1451C68.2101 17.2942 68.2037 17.2475 66.5927 15.4174C64.7823 13.3609 64.3977 13.2593 58.0808 13.1709L52.5448 13.0935L52.4623 8.8973C52.388 5.13185 52.3243 4.59752 51.8413 3.69151C51.1565 2.40722 50.039 1.28923 48.7525 0.601053C47.75 0.0650158 47.6499 0.0608641 34.5557 0.0120224C23.6801 -0.0285162 21.1719 0.0242331 20.2473 0.313376ZM47.8841 3.18063C48.3374 3.48589 48.9581 4.10666 49.2634 4.55991C49.7831 5.33088 49.8187 5.63272 49.8187 9.25506V13.1263H48.6158H47.4128L47.3337 9.62186C47.2768 7.10725 47.1598 6.00367 46.9195 5.71453C46.6159 5.34968 45.3998 5.31159 34.046 5.31159C21.8996 5.31159 21.4998 5.32624 21.2549 5.78389C21.115 6.04543 21.0021 7.79054 21.0021 9.69122V13.1263H19.659H18.3158L18.3212 9.52418C18.3256 6.54069 18.4047 5.75019 18.7811 4.9211C19.1996 3.9997 20.0998 3.14057 21.0021 2.80161C21.2036 2.72591 27.1491 2.65509 34.2143 2.64459L47.0601 2.6253L47.8841 3.18063ZM44.6376 10.501L44.707 13.1263H34.1977H23.6884V10.4373V7.74854L34.1283 7.81204L44.5682 7.87577L44.6376 10.501ZM63.7635 16.364C64.2199 16.6673 64.8405 17.4048 65.1428 18.0031C65.6261 18.9597 65.6923 19.4617 65.6923 22.17V25.2495L52.8103 29.3622C45.7253 31.6243 39.791 33.5238 39.623 33.5836C39.401 33.6625 39.3178 33.2986 39.3178 32.2495C39.3178 31.4531 39.1864 30.6755 39.0247 30.5139C38.8176 30.3068 37.3924 30.2208 34.1703 30.2208C28.9418 30.2208 29.0183 30.1908 28.8168 32.3154L28.6947 33.6021L17.339 29.9544C11.0934 27.948 5.24142 26.0776 4.33492 25.7977L2.68652 25.289V22.032C2.68652 20.2405 2.78347 18.5203 2.90191 18.2094C3.16346 17.5237 4.33614 16.3161 5.0065 16.0428C5.27513 15.9332 18.4187 15.8365 34.2143 15.8279L62.9337 15.8125L63.7635 16.364ZM36.6315 36.0818V39.2565H34.0673H31.5031V36.0818V32.9071H34.0673H36.6315V36.0818ZM64.1691 42.1785C60.5063 42.8479 57.6385 44.3661 54.9398 47.0644C51.506 50.4977 49.9687 54.2004 49.9687 59.0374C49.9687 63.8744 51.506 67.5771 54.9398 71.0105C58.3919 74.4621 62.0199 75.9894 66.7912 75.9999C70.055 76.007 71.4675 75.6849 74.4838 74.2445C76.4487 73.3063 77.1254 72.8144 78.9047 71.0322C80.6586 69.2751 81.1917 68.5449 82.1336 66.6079C84.6174 61.4995 84.6174 56.5753 82.1336 51.467C81.1902 49.527 80.6613 48.8029 78.9047 47.0468C75.646 43.7893 72.2339 42.2818 67.6459 42.0728C66.3699 42.0146 64.8055 42.062 64.1691 42.1785ZM71.6124 45.4287C75.4125 46.8219 78.172 49.2815 79.8288 52.7522C80.9421 55.0839 81.3216 56.682 81.3216 59.0374C81.3216 61.4043 80.9418 62.9902 79.8014 65.3868C77.3757 70.4842 71.9357 73.7046 66.3028 73.3781C63.478 73.2144 61.3224 72.5194 59.0618 71.0437C48.9537 64.4452 51.1077 48.9392 62.6397 45.2868C64.4898 44.7009 64.8842 44.657 67.5238 44.7444C69.3649 44.8052 70.371 44.9737 71.6124 45.4287ZM64.227 46.2175C59.6791 47.2458 55.8133 50.7561 54.4304 55.1125C53.729 57.3228 53.729 60.752 54.4304 62.9623C55.4477 66.1668 58.1169 69.2739 61.1197 70.7492C67.6794 73.9712 75.4367 71.3289 78.6546 64.7763C80.5284 60.9608 80.5284 57.114 78.6546 53.2985C77.5977 51.1466 75.6191 48.9362 73.7902 47.8644C70.9054 46.1737 67.2242 45.5398 64.227 46.2175ZM69.8133 48.9965C72.8673 49.947 75.1365 51.9229 76.5144 54.8314C77.235 56.3526 77.2922 56.6618 77.2922 59.0374C77.2922 61.4158 77.2355 61.7213 76.5105 63.2522C73.302 70.0251 64.7906 71.5966 59.5707 66.3793C55.628 62.4388 55.468 56.1655 59.2049 52.0306C61.8887 49.061 66.1262 47.849 69.8133 48.9965ZM66.2351 50.1377C65.7914 50.4484 65.6923 50.7519 65.6923 51.7983C65.6923 53.2355 65.9775 53.6648 66.9324 53.6648C67.8303 53.6648 68.2564 53.0565 68.2564 51.7742C68.2564 50.9307 68.129 50.5881 67.6799 50.2244C66.9831 49.6601 66.9221 49.6564 66.2351 50.1377ZM66.0759 55.5137C65.599 55.9909 65.5272 59.5073 65.9853 59.9654C66.1651 60.1451 67.0435 60.2585 68.2564 60.2585C70.405 60.2585 70.8206 60.0606 70.8206 59.0374C70.8206 58.1661 70.3957 57.8164 69.3378 57.8164C68.4733 57.8164 68.435 57.7795 68.277 56.7907C68.1869 56.2263 67.9944 55.6219 67.8496 55.4476C67.4889 55.0129 66.5416 55.0483 66.0759 55.5137ZM58.1707 58.1094C58.0095 58.2706 57.8776 58.6882 57.8776 59.0374C57.8776 59.974 58.3145 60.2585 59.7524 60.2585C60.8574 60.2585 61.098 60.1715 61.4411 59.6479C61.8116 59.0823 61.8116 58.9925 61.4411 58.4269C61.098 57.9033 60.8574 57.8164 59.7524 57.8164C59.0437 57.8164 58.3318 57.9482 58.1707 58.1094ZM72.5789 58.1094C72.4178 58.2706 72.2859 58.6882 72.2859 59.0374C72.2859 59.9696 72.722 60.2585 74.1284 60.2585C75.9429 60.2585 76.8023 59.1759 75.7466 58.2205C75.2164 57.7407 73.0246 57.6637 72.5789 58.1094ZM65.9963 64.6921C65.829 64.8593 65.6923 65.5761 65.6923 66.2848C65.6923 67.3898 65.7792 67.6304 66.3028 67.9735C66.8645 68.3415 66.9612 68.342 67.5123 67.9811C68.8198 67.1244 68.476 64.6022 67.0325 64.4601C66.6298 64.4205 66.1636 64.5248 65.9963 64.6921Z" fill="url(#paint0_linear_3588_4600)"/>
<defs>
<linearGradient id="paint0_linear_3588_4600" x1="-2.31151e-07" y1="18.0148" x2="87.3425" y2="32.028" gradientUnits="userSpaceOnUse">
<stop stop-color="#AB7AFC"/>
<stop offset="1" stop-color="#6A00FF"/>
</linearGradient>
</defs>
</svg>
