<svg width="68" height="76" viewBox="0 0 68 76" fill="none" xmlns="http://www.w3.org/2000/svg">
<path fill-rule="evenodd" clip-rule="evenodd" d="M8.48802 0.332348C5.5738 1.25791 2.62194 3.63283 1.40926 6.02793C0.232498 8.35143 0 9.63324 0 13.7953C0 17.5237 0.0211584 17.688 0.546923 18.0561C0.993221 18.3688 1.91854 18.4391 5.59053 18.4391H10.0872V44.0943C10.0872 66.9163 10.1295 69.8101 10.4703 70.2965L10.8531 70.8434H23.1408H35.4282V69.2442V67.645H24.4799H13.5316V43.0421V18.4391H29.8926C45.9256 18.4391 46.2634 18.4293 46.7456 17.9471C47.1865 17.5062 47.2376 17.1271 47.2376 14.3083C47.2376 12.2731 47.3715 10.6437 47.6165 9.69524C48.4169 6.5997 50.7042 4.34287 53.8561 3.53934C57.6745 2.5658 61.4112 4.37338 63.4055 8.15854L64.0907 9.45906L64.1571 38.552L64.2235 67.645H60.0361H55.8487V69.2442V70.8434H61.2613C66.346 70.8434 66.7037 70.8136 67.166 70.3513C67.6527 69.8647 67.6581 69.5338 67.6544 40.2742C67.6505 8.09777 67.692 9.12101 66.2781 6.33079C65.4975 4.79015 63.2497 2.37833 61.806 1.53199C61.2261 1.19222 60.0814 0.705329 59.2623 0.450443C57.8447 0.0093121 56.6124 -0.0123388 33.6226 0.00340707C14.8134 0.0162006 9.2544 0.0890253 8.48802 0.332348ZM46.5185 4.48483C45.979 5.19955 45.2298 6.44495 44.8536 7.25266C44.242 8.56646 44.1606 9.05089 44.0801 11.8578L43.9898 14.9947H23.5571H3.12433L3.27022 12.4729C3.35043 11.0858 3.58539 9.47529 3.79254 8.89343C4.67973 6.40214 7.01405 4.26341 9.59515 3.57748C10.7217 3.27781 14.0094 3.21508 29.2239 3.20154L47.4997 3.18531L46.5185 4.48483ZM21.8966 25.3297V27.0536L38.8111 26.9904L55.7257 26.9271L55.7985 25.2664L55.8711 23.6057H38.884H21.8966V25.3297ZM21.8966 35.4152V37.1374H38.8727H55.8487V35.4152V33.693H38.8727H21.8966V35.4152ZM44.6999 44.0279C44.319 44.1435 43.6343 44.5227 43.1787 44.8703C42.5988 45.3124 42.0457 45.5024 41.3371 45.5024C39.4274 45.5024 38.0354 46.6929 37.7544 48.5662C37.6378 49.3431 37.4051 49.7678 36.885 50.1526C35.3451 51.2909 35.007 53.4695 36.1262 55.0412C36.5595 55.6496 36.6043 55.9033 36.4015 56.6012C36.1329 57.5273 36.2992 58.6578 36.8129 59.3964C37.0811 59.7817 37.1504 61.4291 37.1504 67.4073C37.1504 74.6409 37.1699 74.954 37.6521 75.4715C38.5442 76.4292 39.2589 76.1699 42.5459 73.6954L45.604 71.393L48.6737 73.7015C52.0652 76.2523 52.7384 76.4782 53.6165 75.3617C54.1073 74.7378 54.1265 74.4295 54.1265 67.1343C54.1265 62.5411 54.2197 59.4975 54.3634 59.4087C54.7804 59.1508 55.0705 57.61 54.8697 56.7191C54.7155 56.0354 54.7969 55.6156 55.2619 54.697C55.5847 54.0595 55.8487 53.269 55.8487 52.9403C55.8487 52.0529 55.1276 50.6963 54.3506 50.1218C53.9026 49.7904 53.613 49.3018 53.5124 48.7071C53.1586 46.6127 51.7971 45.5024 49.5828 45.5024C48.9694 45.5024 48.4671 45.4192 48.4661 45.3178C48.4631 44.9975 46.8998 44.0788 46.1305 43.9455C45.7246 43.8749 45.0807 43.912 44.6999 44.0279ZM46.5837 48.0566C47.3033 49.0002 48.143 49.304 49.0637 48.9542C49.9846 48.6038 50.5061 48.8801 50.3204 49.6199C50.0576 50.667 50.6358 51.905 51.57 52.2952C52.5644 52.7108 52.6127 53.0786 51.7892 53.967C51.12 54.6894 50.9989 55.674 51.4563 56.6778C51.8217 57.4793 51.3889 58.0499 50.4159 58.0499C49.5791 58.0499 48.4678 59.1363 48.4678 59.9541C48.4678 60.6147 47.6429 60.708 46.8831 60.1332C46.6204 59.9347 46.0604 59.7721 45.6385 59.7721C45.2165 59.7721 44.6566 59.9347 44.3938 60.1332C43.6528 60.6937 43.0714 60.5852 42.7867 59.8336C42.3926 58.7936 41.5709 58.0499 40.8155 58.0499C40.4428 58.0499 39.9648 57.8767 39.7532 57.6651C39.4048 57.3167 39.4046 57.2104 39.7512 56.54C40.2054 55.6619 40.0396 54.601 39.3507 53.9778C38.6414 53.3357 38.7673 52.7479 39.7374 52.1754C40.7149 51.599 41.1767 50.6542 40.9614 49.6733C40.7826 48.8587 41.2513 48.6122 42.2895 48.9741C43.1676 49.2801 44.2393 48.8142 44.8696 47.8522C45.4195 47.013 45.8245 47.0612 46.5837 48.0566ZM42.6531 63.8739C43.2355 63.9683 43.9524 63.8667 44.6903 63.5848C45.7757 63.1702 45.8626 63.1702 46.5586 63.5813C47.4701 64.1197 48.9872 63.9629 49.9819 63.2276L50.6821 62.7097V66.7888C50.6821 70.0581 50.6191 70.8289 50.3644 70.6712C50.1898 70.5629 49.2113 69.8379 48.1898 69.0597C45.9071 67.3207 45.4318 67.2811 43.5696 68.6737C42.8131 69.2393 41.8341 69.972 41.3945 70.3019L40.5949 70.9017V66.7701V62.6386L41.1747 63.1833C41.4936 63.4829 42.1589 63.7937 42.6531 63.8739Z" fill="url(#paint0_linear_3588_4626)"/>
<defs>
<linearGradient id="paint0_linear_3588_4626" x1="-1.8618e-07" y1="18.0148" x2="70.9756" y2="27.1867" gradientUnits="userSpaceOnUse">
<stop stop-color="#AB7AFC"/>
<stop offset="1" stop-color="#6A00FF"/>
</linearGradient>
</defs>
</svg>
