<svg width="88" height="76" viewBox="0 0 88 76" fill="none" xmlns="http://www.w3.org/2000/svg">
<path fill-rule="evenodd" clip-rule="evenodd" d="M4.96527 0.125078C3.33616 0.453813 1.90765 1.50709 1.14048 2.94523C1.10138 3.01852 1.06512 3.07731 1.03149 3.13184C1.01329 3.16135 0.995857 3.18962 0.979162 3.21826C0.601645 3.86587 0.601737 4.70388 0.603901 24.4918C0.604077 26.1071 0.604268 27.8487 0.604268 29.7267C0.604268 31.6752 0.604051 33.4771 0.603849 35.1437C0.601479 54.7983 0.601377 55.6419 0.98679 56.286C1.00404 56.3148 1.02207 56.3433 1.0409 56.373L1.04101 56.3731C1.07666 56.4294 1.11521 56.4902 1.15688 56.5668C1.92568 57.9815 3.19998 58.936 4.84069 59.3262C5.50348 59.4839 5.97681 59.4893 19.2029 59.4893C32.1925 59.4893 32.8765 59.4967 32.8156 59.6368C32.7804 59.7178 32.6711 60.0118 32.5729 60.2898C31.5077 63.306 28.8945 70.7244 28.6025 71.5609L28.2274 72.6353L23.9975 72.6371C20.0668 72.6388 19.7414 72.6501 19.3959 72.796C18.2799 73.2674 17.9741 74.5847 18.7865 75.4211C18.8353 75.4713 18.8665 75.5173 18.8951 75.5594C18.9106 75.5822 18.9252 75.6038 18.9415 75.6243C19.2504 76.0144 20.1303 76.0134 37.7326 75.9931L37.758 75.993L37.8104 75.993L37.9164 75.9929C39.5818 75.9909 41.3955 75.9889 43.3708 75.9869L66.8833 75.9639L67.2672 75.7216C67.7866 75.394 68.1478 74.7203 68.0845 74.1976C68.0208 73.6721 67.7561 73.247 67.3019 72.9409L66.9109 72.6774L62.4348 72.6541C59.2986 72.6377 57.9585 72.6034 57.9585 72.5395C57.9585 72.4893 57.1598 70.1866 56.1836 67.4224C53.5568 59.984 53.4282 59.6165 53.4282 59.5515C53.4282 59.5186 60.1048 59.4817 68.2651 59.4695L83.102 59.4472L83.6923 59.2602C85.3501 58.7354 86.6382 57.5621 87.304 55.9704L87.5417 55.4022L87.5651 29.9576C87.567 27.8278 87.5691 25.8723 87.5711 24.0764C87.5917 4.82516 87.5927 3.91274 87.1843 3.20453C87.164 3.1693 87.1426 3.13457 87.1203 3.09811L87.1202 3.09802L87.1201 3.09781L87.1199 3.09748L87.1198 3.09735L87.1196 3.09711C87.0779 3.02909 87.0324 2.955 86.9829 2.86037C86.7337 2.38375 86.4724 2.06192 85.9193 1.55108C85.0812 0.777155 84.4041 0.408813 83.3651 0.161652C82.6733 -0.00284187 82.221 -0.00469675 44.1038 0.00187625C11.6489 0.00752229 5.45093 0.0270732 4.96527 0.125078ZM83.7115 4.33795C83.5415 4.05009 83.3252 3.83975 83.0184 3.6638L82.5725 3.40812L44.1876 3.3868L5.80266 3.3654L5.31067 3.59748C4.98829 3.7495 4.72471 3.95545 4.54622 4.19478L4.27385 4.56008L4.22855 9.12452C4.20363 11.635 4.19357 20.638 4.20617 29.1313L4.229 44.5736H33.6797C62.4814 44.5736 63.1377 44.5772 63.4665 44.7344C64.1643 45.0683 64.4757 45.54 64.4944 46.2916C64.5112 46.9724 64.0996 47.5321 63.3752 47.8135C63.073 47.9309 60.0122 47.9444 33.6305 47.9444H4.22275L4.2483 51.4344L4.27385 54.9244L4.54622 55.2897C4.72453 55.5289 4.98829 55.735 5.31003 55.8868L5.8014 56.1185L44.0892 56.1177L82.3771 56.1168L82.8373 55.9176C83.0903 55.808 83.3897 55.6093 83.5024 55.476C83.9576 54.9379 83.9627 54.8909 83.9627 51.3071V47.9487L77.507 47.9255C71.2378 47.9029 71.0423 47.8974 70.7437 47.7337C70.5745 47.641 70.3095 47.4195 70.1547 47.2413C69.8935 46.9408 69.8733 46.8702 69.8733 46.2574C69.8733 45.5215 69.9656 45.3434 70.5898 44.8735L70.9321 44.6158L77.4473 44.5925L83.9627 44.5693L83.9606 24.6628L83.9585 4.75643L83.7115 4.33795ZM19.8583 6.6085C19.8084 6.62459 19.6587 6.65999 19.5255 6.68721C19.1821 6.7574 18.7499 7.12069 18.5275 7.52602C18.0904 8.32279 18.4243 9.33191 19.2609 9.74281C19.6392 9.92862 19.7528 9.93899 21.4128 9.93899C22.3768 9.93899 23.1654 9.96848 23.1654 10.0046C23.1654 10.0407 22.5538 12.6278 21.8063 15.7536C21.0588 18.8794 20.4472 21.4475 20.4472 21.4604C20.4472 21.4733 19.879 21.4839 19.1846 21.4839C17.828 21.4839 17.5557 21.5382 17.1513 21.8895C16.6111 22.3588 16.5553 22.6084 16.5531 24.5653C16.551 26.4151 16.6143 26.9725 16.9308 27.8883C17.3539 29.1126 18.0462 30.1191 19.1145 31.0628C20.3621 32.1651 21.9441 32.8368 23.7286 33.0218C24.8321 33.1363 27.9353 33.1392 28.99 33.0268C31.7618 32.7314 34.05 31.2264 35.3288 28.8574C35.9618 27.6846 36.051 27.2363 36.0988 24.9875C36.146 22.7609 36.1081 22.5094 35.6527 22.027C35.2076 21.5556 35.1057 21.5294 33.5399 21.4839L32.0902 21.4417L30.0359 15.7536C28.906 12.6251 27.9784 10.037 27.9746 10.0022C27.9708 9.96739 29.3946 9.93899 31.1388 9.93899H34.3101V10.9791C34.3101 11.9055 34.3332 12.0598 34.521 12.3906C34.6541 12.625 34.8797 12.8464 35.1326 12.9908L35.5333 13.2197L38.3421 13.2436C41.0896 13.2671 41.1505 13.2713 41.1309 13.4362C41.0184 14.3804 40.7147 16.8573 40.6503 17.3547C40.6054 17.7023 40.4871 18.6314 40.3876 19.4193C38.8576 31.5394 38.1094 37.4225 38.0677 37.6636L38.0167 37.9585H32.3805C27.3036 37.9585 26.7172 37.9723 26.4707 38.0981C25.0878 38.8037 25.0781 40.4821 26.4528 41.181C26.7277 41.3208 27.7175 41.3305 43.7785 41.3503C55.9348 41.3654 60.9553 41.3448 61.311 41.2783C61.7226 41.2014 61.8817 41.1159 62.2253 40.7868C62.6394 40.3903 62.7628 40.1089 62.7587 39.5702C62.7542 38.9825 62.1059 38.1772 61.5132 38.0229C61.377 37.9875 58.7665 37.9585 55.7121 37.9585C50.2314 37.9585 50.1581 37.9563 50.1211 37.79C50.1004 37.6973 49.4076 32.2366 48.5815 25.6552C47.7553 19.0738 47.0578 13.5877 47.0316 13.4638L46.9838 13.2387L49.744 13.2332C51.4759 13.2297 52.6003 13.194 52.7623 13.1372C53.114 13.0138 53.5961 12.5696 53.7523 12.225C53.8393 12.0332 53.8812 11.6158 53.8812 10.9399V9.93899H56.2921H58.703L58.6531 10.1286C58.5347 10.5792 55.9651 21.3833 55.9651 21.4311C55.9651 21.4601 55.3931 21.4839 54.6938 21.4839C53.8136 21.4839 53.3327 21.5197 53.1308 21.6002C52.7754 21.742 52.2957 22.1999 52.1652 22.5216C52.0173 22.8866 52.0415 26.3071 52.1974 27.0649C52.7728 29.8616 55.0833 32.1145 58.1397 32.8591C58.8039 33.0209 59.2226 33.0527 61.182 33.0904C62.6667 33.119 63.7815 33.0992 64.3986 33.0331C67.7464 32.6751 70.3633 30.6485 71.3363 27.6606C71.5607 26.9711 71.5804 26.781 71.6187 24.9458C71.6631 22.812 71.6224 22.5202 71.2187 22.0738C70.7598 21.5667 70.4407 21.4839 68.9459 21.4839H67.6034L65.5758 15.8168C64.4605 12.6998 63.5298 10.1023 63.5072 10.0443C63.4753 9.9625 63.8336 9.93899 65.1104 9.93899C66.5831 9.93899 66.7921 9.92121 67.1146 9.76817C67.8512 9.41871 68.2353 8.59034 68.0145 7.82771C67.877 7.35243 67.2875 6.79052 66.7924 6.66268C66.3013 6.53586 52.0805 6.53114 51.5909 6.65754C51.1455 6.77257 50.6334 7.19602 50.4259 7.62082C50.2981 7.88248 50.2604 8.17254 50.2589 8.90669L50.2569 9.85472H44.0956H37.9344L37.9338 8.99096C37.9333 7.95908 37.8363 7.58914 37.4629 7.19366C37.4238 7.1522 37.3903 7.11368 37.3592 7.07789L37.3591 7.07781L37.359 7.07771L37.3589 7.07762C37.3124 7.02412 37.2712 6.97672 37.2244 6.93471C36.8605 6.6081 36.1589 6.60703 30.0024 6.59767C29.4715 6.59686 28.9 6.59599 28.2847 6.59485C23.7 6.58634 19.9081 6.59249 19.8583 6.6085ZM7.67161 29.7423V31.4312L9.4611 31.4083L11.2506 31.3855V29.7423V28.099L9.4611 28.0762L7.67161 28.0533V29.7423ZM7.67161 34.672V36.3153H9.48376H11.2959V34.672V33.0288H9.48376H7.67161V34.672ZM7.67161 39.6439V41.2871H9.48376H11.2959V39.6439V38.0006H9.48376H7.67161V39.6439ZM42.4194 49.6626C41.6708 49.9667 41.2002 50.6209 41.2002 51.3573C41.2002 52.9731 43.2668 53.7628 44.4891 52.6141C45.1961 51.9497 45.2597 51.1066 44.6646 50.2857C44.2247 49.6788 43.1284 49.3745 42.4194 49.6626ZM28.238 21.4207C28.2388 21.4555 27.322 21.4839 26.2007 21.4839C25.0795 21.4839 24.1621 21.4739 24.1621 21.4617C24.1621 21.4331 25.681 15.1058 25.7549 14.8266C25.7963 14.6703 26.1235 15.4852 27.0236 17.9867C27.6908 19.8406 28.2372 21.3859 28.238 21.4207ZM63.7413 21.3785C63.7252 21.3206 63.182 19.7864 62.5342 17.9692C61.8863 16.1519 61.3257 14.6635 61.2883 14.6616C61.2509 14.6597 61.2204 14.7255 61.2204 14.8079C61.2204 14.8903 60.8988 16.3028 60.5057 17.9469C60.1127 19.591 59.7629 21.0593 59.7283 21.21L59.6656 21.4839H61.7182C63.3154 21.4839 63.7641 21.4605 63.7413 21.3785ZM49.6637 59.721C49.697 59.8485 50.4539 62.0195 51.3456 64.5454C53.8124 71.5327 54.1519 72.5036 54.1525 72.5721C54.1527 72.6068 49.1743 72.6353 43.0893 72.6353C34.2756 72.6353 32.0343 72.6139 32.0687 72.53C32.115 72.4171 34.7287 65.0232 35.9413 61.575L36.6747 59.4893H43.1388H49.603L49.6637 59.721ZM30.0515 29.2643C31.6072 28.5578 32.4979 27.1911 32.4979 25.5111V24.8546H26.3367H20.1754V25.4404C20.1754 27.1625 21.0711 28.5571 22.6346 29.2693C23.4919 29.6598 24.1157 29.7389 26.3367 29.7389C28.5642 29.7389 29.1798 29.6603 30.0515 29.2643ZM67.994 25.6763C67.889 27.5456 66.8015 28.9148 64.944 29.5162C64.5183 29.6541 64.108 29.687 62.3874 29.7211C59.8679 29.7711 59.0667 29.6879 58.185 29.2848C57.3796 28.9166 56.8897 28.5251 56.4255 27.8785C55.9256 27.1823 55.6933 26.4473 55.6933 25.5621V24.8546H61.8667H68.0401L67.994 25.6763ZM45.3188 28.731C44.6959 23.8091 44.1862 19.6743 44.1862 19.5425C44.1862 19.4107 44.1455 19.2794 44.0956 19.2507C44.0433 19.2207 44.005 19.3011 44.005 19.4418C44.005 19.5754 43.6159 22.7536 43.1402 26.5043C42.0377 35.1974 41.8448 36.7385 41.7751 37.4108L41.7183 37.9585H44.0849C46.2254 37.9585 46.4515 37.9452 46.4515 37.8192C46.4514 37.7426 45.9417 33.6529 45.3188 28.731Z" fill="url(#paint0_linear_3588_4676)"/>
<defs>
<linearGradient id="paint0_linear_3588_4676" x1="0.603515" y1="18.0148" x2="90.8792" y2="33.0122" gradientUnits="userSpaceOnUse">
<stop stop-color="#AB7AFC"/>
<stop offset="1" stop-color="#6A00FF"/>
</linearGradient>
</defs>
</svg>
