<svg width="71" height="77" viewBox="0 0 71 77" fill="none" xmlns="http://www.w3.org/2000/svg">
<path fill-rule="evenodd" clip-rule="evenodd" d="M13.4442 0.567346C8.48068 2.66135 6.73054 8.26235 9.6196 12.8087C11.6898 16.0668 16.2739 17.3653 19.8309 15.7006C22.277 14.5561 23.7913 12.7341 24.4547 10.1369C25.179 7.3015 24.2348 4.22595 22.0101 2.17551C20.4518 0.738918 19.0474 0.179443 16.7404 0.0754895C15.1229 0.00257725 14.5964 0.0812646 13.4442 0.567346ZM48.7025 0.338743C43.9656 1.88602 41.6141 7.42398 43.8207 11.8355C46.9244 18.0405 55.6703 17.9079 58.7615 11.6089C59.2158 10.6829 59.3197 10.0753 59.3255 8.30831C59.3318 6.45952 59.2396 5.94384 58.6955 4.7835C57.9135 3.11542 56.512 1.67715 54.829 0.815681C53.2969 0.0314537 50.3465 -0.198112 48.7025 0.338743ZM18.7815 3.85441C21.7204 5.35356 22.2842 9.32499 19.8971 11.7121C17.6722 13.937 14.1065 13.559 12.2885 10.9057C11.0733 9.132 11.4347 6.15488 13.0474 4.65452C14.5189 3.28579 16.9907 2.94072 18.7815 3.85441ZM53.8321 3.99663C54.1952 4.26758 54.8184 4.89251 55.2172 5.38509C56.2271 6.63278 56.391 8.84589 55.5954 10.4894C54.9686 11.784 53.4663 12.8722 51.952 13.128C49.0904 13.6114 46.2102 11.0547 46.2206 8.03976C46.2249 6.71074 47.3 4.88625 48.5521 4.08253C49.6154 3.40033 49.8452 3.34764 51.4397 3.42247C52.7191 3.48239 53.3448 3.63255 53.8321 3.99663ZM7.50635 18.3158C4.73135 18.7968 2.27039 20.6259 0.898288 23.2276L0.13668 24.6714L0.0683402 36.9505L0 49.2299L0.568379 50.3057C1.41902 51.9165 3.0202 52.8271 4.99172 52.8211L6.51349 52.8165V62.6346C6.51349 70.9257 6.571 72.5906 6.88359 73.3388C7.74746 75.4061 9.00598 76.0469 12.203 76.0469C14.0677 76.0469 14.7494 75.947 15.5587 75.5553L16.5744 75.0636L17.3793 75.5543C18.0464 75.961 18.5933 76.0452 20.5747 76.0459C23.6031 76.0471 24.7307 75.5796 25.7074 73.9182L26.3658 72.7983L26.4409 66.8864L26.516 60.9747L27.223 61.0785L27.9299 61.1822L27.9405 66.3885C27.9543 73.2601 28.1357 74.0775 29.9477 75.4304C30.5574 75.8857 30.947 75.9266 34.6677 75.9266C38.3884 75.9266 38.778 75.8857 39.3878 75.4304C41.1997 74.0775 41.3812 73.2601 41.3949 66.3885L41.4055 61.1822L42.1274 61.0763L42.8493 60.9702V66.1159C42.8493 69.0273 42.9631 71.7133 43.1111 72.3016C43.885 75.3748 47.3191 76.91 50.18 75.4619L51.3355 74.8767L52.0456 75.4017C52.6234 75.8289 53.0842 75.9266 54.5196 75.9266C56.0911 75.9266 56.3951 75.8479 57.3083 75.2047C57.8721 74.8076 58.5853 74.0056 58.8931 73.4223C59.4429 72.3808 59.453 72.2323 59.453 65.207V58.0525L62.0399 57.9476C63.4986 57.8884 64.9178 57.7014 65.2944 57.5188C66.8302 56.7735 67.387 54.5096 66.5821 52.2842C66.2262 51.3 66.23 51.2615 66.6904 51.2615C67.4431 51.2615 68.8946 50.575 69.6287 49.8719C70.5877 48.9534 71.1118 47.0045 70.7937 45.5407C70.4325 43.8786 63.8836 23.9455 63.3085 22.7574C62.4915 21.0694 61.2359 19.8171 59.5084 18.9665L57.8993 18.1743L52.4602 18.0891C49.3695 18.0405 46.3183 18.1132 45.3935 18.2571C41.6586 18.8387 39.13 21.3132 40.6836 22.8667C41.3641 23.5472 42.2513 23.4644 43.2993 22.6222C43.7959 22.2232 44.5739 21.7901 45.0282 21.6597C45.4823 21.5295 48.3495 21.4229 51.3995 21.4229C59.8135 21.4229 59.479 21.125 62.9148 31.6727C64.2041 35.6307 65.8161 40.569 66.4974 42.6471C67.5201 45.7667 67.6948 46.5427 67.5003 47.0988C67.311 47.6407 67.099 47.7863 66.4148 47.8443C65.8308 47.8936 65.4451 47.7805 65.1828 47.4833C64.973 47.2451 63.6993 43.7232 62.3524 39.6565C60.3489 33.6062 59.7904 32.1732 59.2795 31.7714C58.2997 31.0006 56.8061 31.7143 56.8061 32.9536C56.8061 33.2987 58.3762 38.2887 60.2953 44.0425C62.2143 49.7963 63.7845 54.5322 63.7845 54.5671C63.7845 54.602 59.839 54.6304 55.0165 54.6304H46.2487L46.1732 48.6747C46.1067 43.4217 46.0451 42.6196 45.6503 41.8768C45.0265 40.7035 43.6297 39.2859 42.4883 38.6679C41.5655 38.1684 41.2435 38.147 34.6677 38.147C28.0919 38.147 27.7699 38.1684 26.8471 38.6679C25.7058 39.2859 24.3089 40.7035 23.6852 41.8768C23.2652 42.667 23.2335 43.6228 23.1702 57.3818C23.1235 67.5376 23.022 72.1419 22.84 72.3613C22.4947 72.7774 18.7639 72.8005 18.3527 72.3892C18.1366 72.1731 18.0639 69.3305 18.0639 61.0794C18.0639 50.3791 18.05 50.0444 17.5827 49.5771C16.9534 48.9478 15.8554 48.9599 15.2738 49.6021C14.8406 50.0805 14.8086 50.7264 14.6951 61.333L14.5747 72.5577L12.4295 72.6277C10.8755 72.6785 10.2296 72.6123 10.0869 72.3871C9.97838 72.2162 9.88815 62.8028 9.88598 51.4687C9.88261 31.8029 9.86216 30.8358 9.43864 30.3129C8.83537 29.5679 7.56049 29.5679 6.95722 30.3129C6.54381 30.8233 6.51349 31.4696 6.51349 39.7378C6.51349 48.2938 6.49616 48.6319 6.03222 49.0958C5.33968 49.7884 4.25345 49.7188 3.64345 48.943C3.15568 48.3232 3.14461 48.0702 3.14461 37.5567C3.14461 25.2008 3.1706 24.9937 4.94696 23.2175C6.69758 21.4667 7.24526 21.3875 17.0227 21.4712L25.4033 21.5432L26.6623 22.2049C28.16 22.9923 28.7291 23.0301 29.3738 22.3854C30.5618 21.1974 29.6536 19.7854 27.0314 18.7434C25.6882 18.2097 25.3754 18.1904 17.2217 18.1418C12.5895 18.1142 8.21766 18.1926 7.50635 18.3158ZM32.7142 23.4247C29.695 24.555 28.1405 26.7147 28.1405 29.7801C28.1405 36.7121 37.5147 38.865 40.5637 32.6331C42.1177 29.4569 40.9018 25.6631 37.7863 23.9676C36.2992 23.1581 34.0654 22.9191 32.7142 23.4247ZM36.9845 27.5088C38.0436 28.6643 38.2293 29.7763 37.5856 31.1058C36.9792 32.3587 36.0189 32.9733 34.6677 32.9733C33.3151 32.9733 32.3562 32.3585 31.7474 31.1012C30.6169 28.7656 32.3704 26.3236 35.0137 26.5522C36.0008 26.6374 36.3346 26.7994 36.9845 27.5088ZM41.1875 41.7683C41.5838 41.9731 42.1194 42.4875 42.3776 42.9113C42.8137 43.626 42.8476 44.1604 42.8483 50.3219C42.8495 58.0816 42.9487 57.7755 40.3739 57.9519C37.9252 58.1196 38.0366 57.7664 38.0366 65.3562C38.0366 68.9645 37.9709 72.088 37.8905 72.2973C37.6725 72.8652 31.6629 72.8652 31.4449 72.2973C31.3645 72.088 31.2988 68.9645 31.2988 65.3562C31.2988 57.7664 31.4102 58.1196 28.9615 57.9519C26.3884 57.7757 26.4861 58.0746 26.4861 50.37C26.4861 43.0778 26.5434 42.7563 28.0019 41.8672C28.7098 41.4352 29.2445 41.3972 34.6196 41.3965C39.4291 41.3958 40.5948 41.4617 41.1875 41.7683ZM49.587 64.8037C49.587 72.5623 49.5622 72.678 47.9026 72.678C46.2429 72.678 46.2182 72.5623 46.2182 64.8037V57.9993H47.9026H49.587V64.8037ZM56.0842 64.8985C56.0842 70.9808 56.037 71.85 55.6859 72.2379C55.1897 72.7863 53.9801 72.8084 53.396 72.2797C52.9891 71.9116 52.9559 71.3593 52.9559 64.9404V57.9993H54.52H56.0842V64.8985Z" fill="url(#paint0_linear_3588_4659)"/>
<defs>
<linearGradient id="paint0_linear_3588_4659" x1="-1.95074e-07" y1="18.0617" x2="74.2467" y2="28.1146" gradientUnits="userSpaceOnUse">
<stop stop-color="#AB7AFC"/>
<stop offset="1" stop-color="#6A00FF"/>
</linearGradient>
</defs>
</svg>
