<svg width="82" height="76" viewBox="0 0 82 76" fill="none" xmlns="http://www.w3.org/2000/svg">
<path fill-rule="evenodd" clip-rule="evenodd" d="M42.4409 0.667707C33.5522 3.57209 32.657 15.9186 41.0226 20.2282C42.8902 21.19 43.8908 21.3553 46.8184 21.1845C49.7333 21.0141 50.7195 20.7086 52.4179 19.4488C59.343 14.3116 58.0939 4.19181 50.1254 0.87411C47.4885 -0.223994 45.3447 -0.281441 42.4409 0.667707ZM49.8486 3.61174C54.0364 6.22431 55.2895 10.1444 53.2715 14.3249C51.8455 17.2801 49.4071 18.7315 45.8644 18.7341C41.4458 18.7376 38.0667 15.2135 38.0667 10.602C38.0667 4.4216 44.7706 0.444019 49.8486 3.61174ZM22.0438 7.49171C20.0763 9.29494 19.8905 9.70113 19.8927 12.1942C19.895 15.5307 21.214 17.7224 23.9302 18.9039C26.3364 19.9506 27.7986 19.974 29.8531 19.0004C37.0894 15.5709 34.8463 5.51817 26.8451 5.51817C24.5093 5.51817 23.9441 5.7505 22.0438 7.49171ZM61.0731 6.66203C60.0375 7.32394 58.896 8.72352 58.3635 9.98329C56.0998 15.3416 61.5019 21.003 67.2261 19.2714C71.486 17.9832 73.4551 13.8536 71.7551 9.77434C70.0577 5.70017 64.9198 4.20299 61.0731 6.66203ZM29.0177 8.37578C30.471 8.88671 31.6785 11.54 31.2997 13.3899C30.6995 16.3213 27.7104 17.7885 24.9775 16.4936C23.1332 15.6192 22.6639 14.7905 22.6639 12.4083C22.6639 9.18106 25.7463 7.22532 29.0177 8.37578ZM68.1336 9.06413C71.592 12.2339 68.513 17.9522 63.9169 16.8952C60.8046 16.1794 59.7075 11.6126 62.0893 9.28884C63.6712 7.74539 66.5771 7.63761 68.1336 9.06413ZM19.1816 21.3359C17.1055 22.7701 16.0322 24.8209 15.8674 27.6668C15.7654 29.4329 15.9701 30.1752 16.6745 30.5941C17.9419 31.3475 18.2115 30.9937 18.5909 28.0796C18.9986 24.9404 19.4939 24.0924 21.5745 22.9658C22.4958 22.4666 23.1781 21.7111 23.0899 21.2871C22.8475 20.1179 20.9095 20.1423 19.1816 21.3359ZM68.9245 20.851C68.6871 21.2028 69.4753 22.1819 70.8787 23.2785C72.9587 24.9043 73.2732 25.4376 73.601 27.8997C73.9111 30.2311 74.1518 30.683 75.0809 30.683C76.3478 30.683 76.7899 28.8585 76.2097 26.0237C75.5341 22.7238 70.2108 18.944 68.9245 20.851ZM35.0343 22.2424C30.573 25.2037 28.4908 29.1777 28.8669 34.0109C29.0144 35.9128 29.2424 36.3012 30.2907 36.4379C31.4633 36.5904 31.5387 36.4196 31.5387 33.622C31.5387 29.7781 33.2072 26.6948 36.5308 24.3959C40.7175 21.5002 39.2759 19.426 35.0343 22.2424ZM53.5411 21.1087C52.6198 21.9526 53.3498 23.2159 55.3544 24.249C58.5083 25.8738 59.9865 28.3684 60.3542 32.6866C60.6293 35.9209 60.7824 36.2915 61.9073 36.4379C63.0982 36.5925 63.1553 36.4389 63.1553 33.0974C63.1553 28.3552 61.2173 24.7553 57.4072 22.4219C54.5928 20.6979 54.1524 20.5485 53.5411 21.1087ZM21.2367 26.5301C21.0631 26.9434 21.0015 28.0471 21.0997 28.9825C21.2362 30.2901 21.5335 30.683 22.3866 30.683C23.3312 30.683 23.4959 30.344 23.4959 28.4024C23.4959 26.6328 23.2779 26.0832 22.5236 25.95C21.9889 25.8555 21.4098 26.1168 21.2367 26.5301ZM68.3843 26.5301C68.2107 26.9434 68.1491 28.0471 68.2473 28.9825C68.3837 30.2901 68.681 30.683 69.5341 30.683C70.4787 30.683 70.6435 30.344 70.6435 28.4024C70.6435 26.6328 70.4255 26.0832 69.6711 25.95C69.1364 25.8555 68.5573 26.1168 68.3843 26.5301ZM35.7915 29.7512C35.5879 29.9373 35.4215 31.5549 35.4215 33.3449C35.4215 36.4298 35.4869 36.5915 36.6695 36.4379C37.78 36.293 37.9364 35.9438 38.0867 33.2722C38.2021 31.2138 38.0279 30.1365 37.532 29.8483C36.6451 29.3328 36.2701 29.3119 35.7915 29.7512ZM54.6505 29.7512C54.4469 29.9373 54.2805 31.5549 54.2805 33.3449C54.2805 36.4298 54.346 36.5915 55.5285 36.4379C56.6185 36.2956 56.7982 35.9326 56.9457 33.5651C57.1404 30.4502 55.9839 28.5285 54.6505 29.7512ZM74.0509 36.8904C73.4845 37.0241 69.4348 39.2955 65.0512 41.9376L57.0822 46.7423L55.5368 45.1572C54.093 43.6758 53.1406 43.3926 40.9627 40.8258C33.7963 39.3154 27.1207 38.0739 26.1279 38.0668C24.9963 38.0592 22.1253 39.1059 18.4328 40.873C15.1935 42.4231 12.48 43.6239 12.4024 43.542C12.3247 43.4597 11.7201 42.4094 11.0589 41.2071C10.3972 40.0052 9.50308 38.8975 9.07099 38.7455C8.14135 38.4186 0.475709 42.0769 0.0613652 43.0454C-0.0961631 43.4139 0.0602566 43.9767 0.408594 44.296C0.883952 44.7317 1.92785 44.4765 4.58254 43.2767L8.12304 41.6768L16.2857 56.1631C20.7752 64.131 24.359 70.7237 24.2497 70.8137C24.1399 70.9036 22.7283 71.5859 21.1125 72.3296C18.0373 73.7455 17.0994 74.8451 18.1466 75.8049C18.6064 76.2264 19.6631 75.9854 22.1963 74.8812C24.0817 74.0597 26.2027 72.9727 26.9094 72.4664L28.1946 71.5452L26.8162 69.0516C26.058 67.68 25.4373 66.3262 25.4373 66.043C25.4373 65.7593 26.423 65.0669 27.6272 64.5041L29.817 63.4803L36.6268 65.8147C42.4786 67.8208 43.6873 68.0791 45.2182 67.6485C48.346 66.7685 80.3226 47.2039 81.2134 45.6249C83.0588 42.3545 81.554 38.6758 77.7788 37.2305C75.8769 36.502 75.7471 36.4903 74.0509 36.8904ZM78.3773 40.7099C79.5876 42.2935 79.4529 43.8034 77.993 45.0082C76.1387 46.5395 47.0619 64.0242 45.1261 64.772C43.608 65.3592 42.9057 65.2174 37.2053 63.1742C33.7652 61.9409 30.441 60.9317 29.8181 60.9317C29.1952 60.9317 27.6083 61.5103 26.2915 62.2174L23.8975 63.5036L22.5147 61.3278C20.4835 58.1316 14.3437 46.7911 14.3437 46.2344C14.3437 45.9716 16.9285 44.5522 20.0874 43.0799L25.8317 40.4033L38.8078 43.0962C45.9448 44.5771 52.3463 46.1129 53.0325 46.509C54.549 47.3839 54.7259 49.9787 53.3625 51.3594C52.1849 52.5521 51.1693 52.5272 41.8158 51.0717C37.5531 50.4088 33.7469 49.9782 33.357 50.1154C32.1583 50.5369 32.5405 52.2476 33.8961 52.5282C37.7006 53.3152 48.9129 54.8312 50.9286 54.8312C53.8257 54.8312 56.1975 53.3914 57.0156 51.1368C57.5037 49.7901 59.0896 48.6035 65.7917 44.57C74.6738 39.2244 76.7544 38.5858 78.3773 40.7099Z" fill="url(#paint0_linear_4030_4058)"/>
<defs>
<linearGradient id="paint0_linear_4030_4058" x1="-2.25657e-07" y1="18.0148" x2="85.3671" y2="31.3856" gradientUnits="userSpaceOnUse">
<stop stop-color="#FC7A7A"/>
<stop offset="1" stop-color="#FF0000"/>
</linearGradient>
</defs>
</svg>
