<svg width="76" height="76" viewBox="0 0 76 76" fill="none" xmlns="http://www.w3.org/2000/svg">
<path fill-rule="evenodd" clip-rule="evenodd" d="M45.433 0.127786C44.0582 0.460391 42.7671 1.51461 42.1651 2.79568C41.7295 3.72314 41.576 5.23857 41.8181 6.21968C41.9193 6.62999 42.96 8.64739 44.1562 10.7522L46.3118 14.5451L45.4346 15.6171C44.9523 16.2067 44.3062 16.9628 43.9989 17.2973L43.4404 17.9053L42.0609 17.5788C40.2167 17.1426 36.1376 17.1048 34.1351 17.5056C25.6699 19.1994 19.1938 25.676 17.5085 34.1333C17.137 35.9975 17.1371 40.0451 17.5086 41.8292C17.9945 44.1626 19.0017 46.8556 19.9506 48.3587L20.3474 48.9871L18.7529 50.5761L17.1584 52.1652L16.5813 51.6085L16.0043 51.0518L9.4901 56.4773C5.90731 59.4612 2.588 62.3103 2.11392 62.8085C-0.792779 65.8632 -0.689931 70.6092 2.34858 73.6479C5.42434 76.7235 10.1507 76.7908 13.2697 73.8033C13.8072 73.2884 16.6529 69.9704 19.5935 66.4297L24.94 59.9922L24.3856 59.4151L23.8312 58.838L25.4124 57.2515L26.9937 55.6649L28.0132 56.2506C33.5015 59.4041 40.7329 59.6521 46.7672 56.8937L47.95 56.353L49.3738 56.7463C51.885 57.4399 52.5536 57.5303 55.1659 57.5291C56.9278 57.5281 58.09 57.4487 58.9977 57.2674C66.4519 55.7774 72.3808 50.6519 74.8282 43.5817C75.7079 41.0404 75.9272 39.6533 75.9289 36.6178C75.9301 34.3702 75.8727 33.6748 75.5739 32.3261C74.8615 29.1094 73.4273 26.0253 71.5273 23.6248C71.0116 22.9732 69.2057 20.7829 67.5143 18.7577C65.8229 16.7323 64.3444 14.9565 64.2288 14.8112C64.0431 14.5776 64.2682 14.1083 66.175 10.7531C67.3716 8.6477 68.4125 6.63015 68.5136 6.21968C68.8862 4.71023 68.4197 2.81576 67.3676 1.56535C66.7591 0.842351 65.2964 0.142654 64.174 0.0378139C62.8646 -0.0844992 61.9544 0.311409 60.7527 1.5258C59.5825 2.70831 59.3325 2.71353 58.2262 1.57715C56.185 -0.519492 54.1468 -0.519492 52.1056 1.57715C51.0077 2.70479 50.7407 2.70479 49.6428 1.57715C48.3036 0.201664 46.993 -0.249576 45.433 0.127786ZM47.8139 3.29811C48.2747 3.77143 48.9966 4.3226 49.4181 4.52278C50.9429 5.24746 52.429 4.8445 53.9345 3.29811C54.5227 2.69375 54.8894 2.43763 55.1659 2.43763C55.4424 2.43763 55.809 2.69375 56.3973 3.29811C58.442 5.39828 60.3663 5.40763 62.4726 3.32785C63.3914 2.42062 63.4369 2.39655 64.0687 2.48116C64.7793 2.5765 65.3202 2.91478 65.809 3.56956C66.0487 3.89052 66.125 4.22236 66.125 4.94244C66.125 5.88079 66.0997 5.93658 63.9792 9.67832L61.8333 13.4647L55.1659 13.4679L48.4984 13.4709L46.3561 9.68261C45.1617 7.57033 44.1878 5.67157 44.1551 5.39108C43.9704 3.80898 45.0465 2.46246 46.5111 2.44361C46.8782 2.43886 47.1527 2.61896 47.8139 3.29811ZM65.8185 20.5446C67.926 23.075 69.935 25.5539 70.2827 26.0532C74.0565 31.472 74.5927 39.0371 71.6211 44.938C69.868 48.4194 66.8616 51.4464 63.4447 53.1706C60.0904 54.8633 56.185 55.504 52.5878 54.9519C51.7178 54.8184 50.9499 54.6743 50.8811 54.6319C50.8124 54.5894 51.5949 53.7089 52.6198 52.6752C55.2215 50.0516 56.6671 47.7834 57.6765 44.7414C58.3837 42.6099 58.6863 41.0596 58.796 39.0039C59.2327 30.8208 54.638 23.0163 47.1956 19.2992C46.6477 19.0256 46.1739 18.7785 46.1426 18.7503C46.1115 18.7221 46.5943 18.079 47.2155 17.3212L48.3452 15.9434L55.1659 15.9436L61.9866 15.9437L65.8185 20.5446ZM41.9843 20.0446C47.382 21.2792 51.9591 24.8755 54.4642 29.8502C55.7552 32.4137 56.3154 34.8792 56.3154 37.9973C56.3154 40.4114 56.136 41.6074 55.4608 43.6921C53.9722 48.2886 50.5514 52.2442 46.1463 54.4624C43.5828 55.7534 41.1172 56.3136 37.9991 56.3136C36.7224 56.3136 35.3201 56.2232 34.7037 56.101C27.1355 54.602 21.3945 48.8609 19.8954 41.2927C19.5814 39.7074 19.6237 35.945 19.9739 34.3187C21.1704 28.7616 24.7837 24.0844 29.852 21.5323C31.2647 20.8208 33.2861 20.158 34.7804 19.9161C35.4126 19.8137 36.0334 19.7049 36.1599 19.6743C36.8008 19.5188 40.7964 19.7728 41.9843 20.0446ZM35.6234 22.2146C33.5628 22.5328 30.7332 23.6553 28.9651 24.8559C27.9499 25.5453 25.8094 27.6586 25.0471 28.7242C21.6118 33.5266 21.1219 39.8274 23.773 45.1154C24.5915 46.7482 25.1259 47.4983 26.4795 48.9153C31.4369 54.104 38.8129 55.3927 45.202 52.1862C46.7258 51.4214 47.5236 50.8481 48.9172 49.517C52.8232 45.785 54.5635 40.6882 53.7139 35.4683C52.6922 29.1906 48.0026 24.108 41.7544 22.5062C40.341 22.1438 37.085 21.989 35.6234 22.2146ZM40.3809 24.7444C45.5234 25.6412 49.6612 29.4958 51.0702 34.7019C51.5416 36.4437 51.5416 39.5509 51.0702 41.2927C50.3963 43.7828 49.2115 45.8373 47.4441 47.5805C42.1455 52.8065 33.646 52.7448 28.416 47.4422C23.206 42.1599 23.239 33.7396 28.4903 28.4885C31.6493 25.3293 35.9571 23.973 40.3809 24.7444ZM36.7729 28.1877V29.4139H34.92H33.0671L33.119 32.5177L33.171 35.6215L33.6947 36.5873C34.5531 38.1707 35.7796 38.9573 37.7755 39.2051C39.0219 39.3599 39.4919 39.5966 40.0588 40.355C40.3234 40.7086 40.3833 41.051 40.4267 42.453L40.4787 44.1283H39.004C38.1054 44.1283 37.3341 44.0466 37.0291 43.9192C36.3757 43.6462 35.7377 42.8754 35.6124 42.2079L35.5126 41.6759H34.2827H33.0527L33.1471 42.3647C33.3571 43.897 34.5022 45.4103 35.9551 46.0753L36.7729 46.4499V47.7414V49.0331H37.9991H39.2253V47.8069V46.5807H41.0783H42.9312L42.8792 43.4769L42.8273 40.3731L42.3036 39.4073C41.4452 37.824 40.2187 37.0373 38.2228 36.7895C36.9763 36.6347 36.5064 36.398 35.9394 35.6396C35.6749 35.286 35.615 34.9436 35.5716 33.5416L35.5196 31.8663H36.9943C37.8929 31.8663 38.6642 31.948 38.9692 32.0754C39.6226 32.3484 40.2606 33.1192 40.3859 33.7867L40.4857 34.3187H41.7156H42.9456L42.8512 33.6299C42.6412 32.0976 41.4961 30.5843 40.0432 29.9193L39.2253 29.5447V28.2532V26.9615H37.9991H36.7729V28.1877ZM68.6939 30.6174C68.1678 30.853 67.7027 31.0805 67.6604 31.1229C67.556 31.2273 68.2515 33.2668 68.3941 33.2738C68.731 33.2902 70.509 32.8847 70.5761 32.7759C70.6691 32.6256 69.8841 30.1783 69.745 30.1846C69.6929 30.1869 69.2199 30.3817 68.6939 30.6174ZM68.6093 37.2692C68.4243 40.8058 67.2648 43.5725 64.9146 46.0848C63.2937 47.8176 60.2104 49.5773 58.2444 49.8917C57.8963 49.9475 57.5728 50.0557 57.5254 50.1322C57.478 50.2088 57.5217 50.7599 57.6224 51.3569L57.8054 52.442L58.44 52.3533C60.2537 52.0993 62.8906 50.8883 64.8706 49.4C68.7146 46.5106 71.1064 41.633 71.1064 36.6834V35.5449H69.9031H68.6996L68.6093 37.2692ZM26.9634 37.9973V39.2235H28.1896H29.4158V37.9973V36.7711H28.1896H26.9634V37.9973ZM46.5825 37.9973V39.2235H47.8087H49.0349V37.9973V36.7711H47.8087H46.5825V37.9973ZM23.3259 52.7228L24.8698 54.2668L23.4641 55.6723L22.0584 57.078L20.4895 55.5091L18.9206 53.9401L20.2949 52.5594C21.0507 51.8001 21.6944 51.1789 21.7255 51.1789C21.7565 51.1789 22.4767 51.8737 23.3259 52.7228ZM21.4835 60.2888C21.0635 60.9865 11.3967 72.3285 10.9979 72.5915C9.93919 73.29 9.31506 73.4653 7.88072 73.4678C6.68196 73.4698 6.38598 73.4141 5.62176 73.0435C4.50117 72.4998 3.49661 71.4953 2.95294 70.3747C2.58416 69.6143 2.52607 69.3085 2.52362 68.1157C2.52132 66.9403 2.58033 66.6116 2.92275 65.8933C3.14392 65.4296 3.5222 64.8289 3.76346 64.5582C4.00471 64.2877 6.82128 61.8897 10.0224 59.2293L15.8427 54.3923L18.7123 57.259C20.2906 58.8356 21.5376 60.199 21.4835 60.2888ZM5.26815 69.0285C4.50776 69.7887 5.04652 71.1046 6.11806 71.1046C6.74817 71.1046 7.34425 70.5085 7.34425 69.8784C7.34425 69.2483 6.74817 68.6522 6.11806 68.6522C5.81948 68.6522 5.50527 68.7912 5.26815 69.0285Z" fill="url(#paint0_linear_3588_4620)"/>
<defs>
<linearGradient id="paint0_linear_3588_4620" x1="-2.0895e-07" y1="18.0148" x2="79.3176" y2="29.5183" gradientUnits="userSpaceOnUse">
<stop stop-color="#AB7AFC"/>
<stop offset="1" stop-color="#6A00FF"/>
</linearGradient>
</defs>
</svg>
