<svg width="109" height="76" viewBox="0 0 109 76" fill="none" xmlns="http://www.w3.org/2000/svg">
<path fill-rule="evenodd" clip-rule="evenodd" d="M0.732573 0.723179C-0.183126 1.57361 -0.191053 1.72679 0.435478 6.42877C2.19363 19.6224 6.00451 29.2721 11.421 34.246L13.5882 36.2364V44.9242C13.5882 53.2197 13.6167 53.6389 14.2223 54.2015C14.6821 54.6287 15.2791 54.7907 16.3936 54.7907H17.9308L18.1223 58.3992C18.2276 60.3838 18.5485 62.7368 18.8354 63.6279C20.6005 69.114 25.2073 73.5491 30.8552 75.2002C33.7954 76.0595 38.8974 76.1049 41.4904 75.2945C44.4538 74.3687 46.9466 72.9827 48.9628 71.1395C51.11 69.1768 52.2952 67.4588 53.5102 64.547L54.3238 62.5969L54.4938 43.5969C54.6473 26.4053 54.7167 24.472 55.2202 23.284C56.0107 21.4196 57.5069 19.3452 58.9122 18.1658C62.0239 15.5538 64.9343 14.7396 71.1815 14.7331L75.3482 14.7287L75.5593 15.5105C75.911 16.8119 77.5309 18.7322 79.0832 19.6875C82.8941 22.0326 87.8068 21.3675 90.9163 18.0856C93.8797 14.9579 93.8797 10.3755 90.9163 7.24769C87.8068 3.96584 82.8941 3.3007 79.0832 5.6458C77.5309 6.6011 75.911 8.52143 75.5593 9.82285L75.3482 10.6047H70.6774C63.0062 10.6047 59.6586 11.7013 55.4089 15.6065C52.7816 18.0205 51.0596 20.8376 50.3991 23.8013C50.1705 24.8278 50.0494 31.2316 50.0459 42.5067C50.0399 61.1779 49.9568 62.2331 48.2656 65.1202C45.5778 69.7082 39.5284 72.4792 34.1708 71.577C29.6843 70.8211 26.1432 68.3508 24.1337 64.5744C22.9729 62.3931 22.9389 62.236 22.8308 58.5627L22.7195 54.7907H24.3245C25.5671 54.7907 26.0751 54.6452 26.5757 54.1459C27.1959 53.5276 27.2222 53.149 27.2222 44.8689V36.2364L29.3894 34.246C34.8059 29.2721 38.6168 19.6224 40.375 6.42877C41.0015 1.72679 40.9936 1.57361 40.0779 0.723179C39.373 0.0680471 39.0442 0 36.5901 0H33.8807V2.06202V4.12403H35.0203H36.1598L35.9518 5.67054C35.8377 6.52127 35.4604 8.74147 35.1138 10.6047C32.3664 25.3693 27.0643 33.6919 20.4052 33.6919C13.7461 33.6919 8.44405 25.3693 5.69663 10.6047C5.35007 8.74147 4.97276 6.52127 4.85861 5.67054L4.65061 4.12403H5.79017H6.92972V2.06202V0H4.22035C1.76622 0 1.43742 0.0680471 0.732573 0.723179ZM9.14921 2.06202V4.12403H11.3687H13.5882V2.06202V0H11.3687H9.14921V2.06202ZM27.2222 2.06202V4.12403H29.4417H31.6612V2.06202V0H29.4417H27.2222V2.06202ZM9.74182 9.17037C9.13716 9.73212 9.08707 10.0099 9.26653 11.803C9.58392 14.9764 11.2584 20.5129 12.7854 23.4375C14.2556 26.2539 16.0062 28.1748 17.8395 28.9828C19.1556 29.5631 21.4994 29.5967 22.8727 29.0547C25.765 27.9135 28.7223 23.2872 30.3707 17.3259C32.1809 10.779 31.9983 8.54264 29.6535 8.54264C27.8735 8.54264 27.571 8.98921 26.7539 12.8213C25.4631 18.8769 23.9995 22.4751 22.0537 24.376C21.5146 24.9024 20.7727 25.3333 20.4052 25.3333C19.532 25.3333 17.9787 23.7942 16.9843 21.9437C15.7084 19.5685 13.5882 12.3479 13.5882 10.3781C13.5882 8.78271 11.0253 7.97794 9.74182 9.17037ZM86.2272 8.99893C89.1312 10.394 89.1312 14.9393 86.2272 16.3344C84.2965 17.262 81.6033 16.6923 80.3316 15.0872C79.8788 14.5157 79.6974 13.8238 79.6974 12.6667C79.6974 11.509 79.8785 10.8185 80.3316 10.2479C81.6128 8.63484 84.2889 8.06778 86.2272 8.99893ZM68.5958 34.4059C63.2598 36.12 59.8802 40.062 59.1883 45.3788C58.0646 54.0148 64.3249 64.0185 75.4341 71.3395C78.9792 73.6761 83.2886 76 84.0755 76C84.9525 76 90.1687 73.0681 93.7287 70.5745C97.2625 68.0989 101.954 63.7166 103.846 61.124C110.189 52.4315 110.721 43.2826 105.199 37.8586C102.073 34.7877 99.1047 33.7469 93.9748 33.9234C91.0092 34.0253 90.54 34.1252 88.388 35.1138C87.0959 35.707 85.6342 36.5855 85.1396 37.0653L84.2404 37.9378L82.2067 36.508C79.5107 34.6121 76.9389 33.8727 73.0849 33.8857C71.1809 33.8919 69.6396 34.0704 68.5958 34.4059ZM22.7832 44.3333V50.6667H20.4052H18.0272V44.3333V38H20.4052H22.7832V44.3333ZM78.1802 39.049C80.2815 40.0043 81.3839 41.4386 81.6556 43.5716C81.8754 45.2942 82.4772 46.1373 83.6744 46.3995C85.0299 46.6961 86.0835 45.668 86.334 43.8043C86.7145 40.9746 88.4597 39.2496 91.7458 38.4542C96.9606 37.1923 101.383 38.8572 103.501 42.8793C104.232 44.2671 104.356 44.8839 104.372 47.214C104.41 52.9953 101.325 58.5359 94.9697 64.1022C92.1979 66.5295 84.9998 71.2868 84.0984 71.2868C82.7239 71.2868 75.5761 66.4455 71.9083 63.0302C66.7381 58.2163 64.0344 53.3293 63.764 48.3101C63.6787 46.7291 63.7633 44.997 63.9583 44.3289C64.7444 41.638 66.9616 39.4393 69.9326 38.4047C71.8242 37.7458 76.0375 38.0751 78.1802 39.049Z" fill="url(#paint0_linear_3588_4635)"/>
<defs>
<linearGradient id="paint0_linear_3588_4635" x1="-2.99958e-07" y1="18.0148" x2="111.429" y2="41.2143" gradientUnits="userSpaceOnUse">
<stop stop-color="#AB7AFC"/>
<stop offset="1" stop-color="#6A00FF"/>
</linearGradient>
</defs>
</svg>
