<svg width="76" height="76" viewBox="0 0 76 76" fill="none" xmlns="http://www.w3.org/2000/svg">
<path fill-rule="evenodd" clip-rule="evenodd" d="M29.2208 8.089C21.02 12.5379 14.0665 16.399 13.769 16.6691C13.2577 17.1328 13.2278 17.3427 13.2278 20.4755C13.2278 24.6534 13.3089 24.7722 16.1594 24.7722H18.038V28.1393C18.038 30.4462 18.1221 31.5064 18.3049 31.5064C18.4519 31.5064 19.2095 31.1665 19.9885 30.7514L21.405 29.9962L21.4077 26.8432L21.4103 23.6899L32.9349 17.3458C39.2735 13.8563 44.5485 11.008 44.6569 11.0162C44.7657 11.0241 50.0224 13.8787 56.3386 17.3596L67.8227 23.6885V44.9139V66.1393H61.2088H54.5949V67.8228V69.5063L61.9905 69.503C66.0581 69.5013 69.634 69.4335 69.9368 69.3522C71.2213 69.0082 71.1898 69.5855 71.1898 46.3095V24.7722H73.1139C75.9468 24.7722 75.9999 24.6933 75.9999 20.4849C75.9999 17.3437 75.9701 17.1325 75.4588 16.6645C75.1611 16.392 68.6405 12.762 60.9683 8.59791C44.9388 -0.102402 45.1346 5.4247e-05 44.5627 5.4247e-05C44.3255 5.4247e-05 37.4218 3.64011 29.2208 8.089ZM58.8728 11.1836L72.617 18.6393L72.6249 20.0222L72.6329 21.4051H71.5934C70.6833 21.4051 68.9728 20.5362 57.8624 14.4304C50.882 10.5944 44.9333 7.45575 44.6428 7.45575C44.3522 7.45575 38.398 10.5944 31.4108 14.4304C20.1448 20.6158 18.5863 21.4051 17.639 21.4051H16.5709L16.643 20.0246L16.7152 18.6439L30.5443 11.1211C38.1503 6.98339 44.5432 3.62713 44.751 3.66296C44.9585 3.69856 51.3134 7.08296 58.8728 11.1836ZM14.1187 37.1393C6.8703 41.136 0.728253 44.587 0.469949 44.8083C0.0454558 45.1717 0 45.5348 0 48.5705C0 52.7969 0.0772026 52.9114 2.92431 52.9114H4.79617L4.86328 63.9497C4.92701 74.4148 4.95419 75.0142 5.38854 75.494L5.8467 76H28.0562C49.9452 76 50.2728 75.993 50.7468 75.519C51.2139 75.0519 51.2278 74.7174 51.2278 63.9747V52.9114H53.1252C56.0343 52.9114 56.1414 52.7731 56.2248 48.9048C56.2712 46.7496 56.1983 45.6402 55.9843 45.2333C55.5507 44.4098 29.0411 29.8332 28.019 29.8563C27.5444 29.8671 22.788 32.3592 14.1187 37.1393ZM42.3291 41.0763L52.7911 46.8345L52.8633 48.1896L52.9354 49.5443H51.8219C50.8137 49.5443 49.6777 48.9688 39.8447 43.4766C33.8695 40.1391 28.6474 37.3697 28.2395 37.322C27.6351 37.2513 25.4624 38.3723 16.4783 43.3898C6.78805 48.8016 5.33178 49.5443 4.41257 49.5443H3.36709L3.37526 48.1614L3.38368 46.7785L15.7012 40.0143L28.019 33.2498L29.943 34.284C31.0012 34.8528 36.575 37.9094 42.3291 41.0763ZM38.1031 46.3218L47.8607 51.7577V62.1952V72.6329H28.019H8.17721L8.17865 62.231L8.1801 51.8291L17.9793 46.3632C23.3688 43.3568 27.9062 40.8945 28.062 40.8916C28.2179 40.8885 32.7365 43.3323 38.1031 46.3218Z" fill="url(#paint0_linear_3588_4648)"/>
<defs>
<linearGradient id="paint0_linear_3588_4648" x1="-2.09145e-07" y1="18.0148" x2="79.3887" y2="29.5393" gradientUnits="userSpaceOnUse">
<stop stop-color="#AB7AFC"/>
<stop offset="1" stop-color="#6A00FF"/>
</linearGradient>
</defs>
</svg>
