<svg width="74" height="76" viewBox="0 0 74 76" fill="none" xmlns="http://www.w3.org/2000/svg">
<path fill-rule="evenodd" clip-rule="evenodd" d="M4.28454 0.27864C4.00228 0.507512 3.58856 1.96237 1.97485 8.40169L0.00902829 16.2461L0.00443499 29.6788L0 43.1116H1.26715H2.53429V33.6307V24.1496L3.60345 24.6719C4.1914 24.9592 5.04673 25.2406 5.50417 25.2975L6.33573 25.4006V24.1122C6.33573 23.0257 6.29518 22.8238 6.07692 22.8238C5.33801 22.8238 4.45909 22.383 3.71686 21.6404C2.81908 20.7421 2.53429 20.0206 2.53429 18.6448V17.7518H5.06859H7.60288V16.4838V15.2159H5.24646H2.88989L4.4743 8.87591L6.05854 2.53597H9.20661C11.9584 2.53597 12.3547 2.5672 12.3547 2.78418C12.3547 3.01527 11.0272 11.148 10.8401 12.0625C10.7574 12.4665 10.7818 12.4797 11.9639 12.6705C12.6285 12.7778 13.206 12.8317 13.2472 12.7905C13.2886 12.7493 13.675 10.5856 14.1062 7.9823C14.5375 5.37912 14.927 3.08866 14.9718 2.8926C15.0531 2.5374 15.0659 2.53597 18.2182 2.53597H21.3831L21.3798 2.97185C21.378 3.21165 21.203 5.43776 20.9909 7.91874C20.7788 10.3999 20.6434 12.468 20.69 12.5146C20.7617 12.5865 22.983 12.8184 23.0795 12.7642C23.1221 12.7401 23.9174 3.37522 23.9174 2.8964V2.53597H27.1645H30.4115V6.97393V11.4119H31.6787H32.9458V6.97393V2.53597H36.7473H40.5487V8.87591V15.2159H38.0144H35.4801V16.4838V17.7518H38.0144H40.5487V18.6448C40.5487 20.0206 40.2639 20.7421 39.3661 21.6404C38.2279 22.7794 36.9357 23.0999 35.5105 22.5968C34.7767 22.3377 34.8304 22.2987 34.0793 23.6362L33.5786 24.528L34.4106 24.8987C35.0889 25.2009 35.5203 25.2705 36.7473 25.275C38.1142 25.28 38.3489 25.2345 39.3101 24.7789C39.8918 24.5031 40.6938 23.9769 41.092 23.6096L41.8158 22.9419L42.5397 23.6096C42.9379 23.9769 43.7398 24.5031 44.3216 24.7789C45.2785 25.2325 45.5237 25.2805 46.8844 25.2805C48.2452 25.2805 48.4904 25.2325 49.4472 24.7789C50.029 24.5031 50.831 23.9769 51.2292 23.6096L51.953 22.9419L52.6769 23.6096C53.0751 23.9769 53.877 24.5031 54.4588 24.7789C55.4157 25.2325 55.6608 25.2805 57.0216 25.2805C58.3824 25.2805 58.6275 25.2325 59.5844 24.7789C60.1662 24.5031 60.9681 23.9769 61.3663 23.6096L62.0902 22.9419L62.814 23.6096C63.2122 23.9769 64.0142 24.5031 64.596 24.7789C65.5544 25.2333 65.7967 25.2805 67.1687 25.2805C68.5872 25.2805 68.7562 25.2445 69.8218 24.7151L70.9602 24.1496V37.4346V50.7195H72.2274H73.4945L73.4901 33.4828L73.4855 16.2461L71.5197 8.40169C69.906 1.96237 69.4922 0.507512 69.21 0.27864C68.8843 0.0147403 67.1585 0 36.7473 0C6.33605 0 4.6102 0.0147403 4.28454 0.27864ZM49.5773 2.8926C49.5773 3.08866 49.7911 5.78123 50.0523 8.87591C50.3135 11.9706 50.5273 14.6632 50.5273 14.8592L50.5275 15.2159H46.8052H43.083V8.87591V2.53597H46.33H49.5771L49.5773 2.8926ZM58.5229 2.8926C58.6692 3.53166 60.5063 14.7174 60.5063 14.9702C60.5063 15.1851 60.0407 15.2159 56.784 15.2159H53.0618L53.0616 14.8592C53.0616 14.6632 52.8478 11.9706 52.5866 8.87591C52.3254 5.78123 52.1116 3.08866 52.1116 2.8926L52.1114 2.53597H55.2763C58.4284 2.53597 58.4414 2.5374 58.5229 2.8926ZM69.0202 8.87591L70.6046 15.2159H66.9047H63.205L63.1232 14.8592C62.9769 14.2202 61.1398 3.03445 61.1398 2.78165C61.1398 2.56799 61.5499 2.53597 64.2879 2.53597H67.436L69.0202 8.87591ZM13.7197 14.1241C12.7372 14.3549 11.299 15.2021 10.5984 15.9625C10.2428 16.3486 9.72614 17.1411 9.45054 17.7233L8.94922 18.7821L8.89743 22.7049C8.85229 26.1278 8.81427 26.6277 8.59902 26.6277C6.90817 26.6277 5.06859 28.6099 5.06859 30.4317C5.06859 32.2925 6.90833 34.2357 8.66998 34.2357C8.93323 34.2357 9.0064 34.377 9.097 35.0614C9.37847 37.1841 10.7631 39.6351 12.696 41.4318C13.3795 42.0672 13.9386 42.7052 13.9386 42.8494C13.9386 43.0856 13.5818 43.1116 10.3288 43.1116C6.42 43.1116 5.61061 43.2265 4.08908 43.9981C3.26385 44.4165 1.53863 45.9143 1.61925 46.1422C1.64349 46.2104 2.07717 46.5754 2.58324 46.9536L3.50334 47.6411L4.10445 47.069C4.43517 46.7542 5.05465 46.3243 5.48104 46.1138C6.22517 45.7465 6.41176 45.7287 10.0976 45.6769L13.9386 45.6228V48.416C13.9386 51.1704 13.944 51.2148 14.3275 51.5984C14.8171 52.0885 15.0429 52.0827 17.2253 51.5258L19.0072 51.0709V56.0921V61.1135L15.2454 60.4621L11.4835 59.8105L11.4412 55.8991L11.3988 51.9875H10.1345H8.87003V53.2555V54.5235H5.69503H2.52004L2.54475 52.1064L2.56946 49.6893L1.43346 49.4579C0.437482 49.255 0.278931 49.255 0.148098 49.4579C0.0573386 49.5984 0.0145719 53.9205 0.0389645 60.4756L0.0791967 71.2618L0.670796 72.4595C1.38325 73.9018 2.30066 74.8005 3.77293 75.4984L4.831 76H20.2743H35.7177L36.7758 75.4984C38.248 74.8005 39.1654 73.9018 39.8779 72.4595L40.4695 71.262L40.5145 60.7387C40.5436 53.9377 40.5012 49.9002 40.3949 49.3242C40.0071 47.2256 38.4465 45.066 36.6093 44.0863C35.0071 43.2317 34.2195 43.1116 30.2199 43.1116C26.9669 43.1116 26.6101 43.0856 26.6101 42.8494C26.6101 42.7052 27.1692 42.0672 27.8527 41.4318C29.7855 39.6351 31.1702 37.1841 31.4517 35.0614C31.5459 34.3504 31.6093 34.2357 31.9085 34.2357C32.7245 34.2357 33.7425 33.7223 34.4187 32.9696C35.839 31.3889 35.839 29.4745 34.4187 27.8938C33.7609 27.1617 32.7271 26.6277 31.9673 26.6277C31.7029 26.6277 31.6787 26.4551 31.6787 24.5726V22.5177L32.2726 21.4423L32.8666 20.3671L32.9189 17.5592L32.9713 14.7514L32.5698 14.3497L32.1683 13.9479L23.2513 13.9637C18.3472 13.9726 14.0579 14.0447 13.7197 14.1241ZM30.3859 18.2162C30.328 20.0881 30.1904 20.4408 29.2419 21.1497C28.8181 21.4666 28.5707 21.4789 21.0945 21.5558C16.8538 21.5994 13.3019 21.6886 13.2013 21.7539C13.1006 21.8194 12.6729 22.4613 12.2509 23.1804L11.4835 24.488L11.4369 22.1898C11.378 19.2793 11.5171 18.7304 12.5836 17.6654C13.0239 17.2258 13.6337 16.7872 13.9386 16.691C14.3091 16.5742 17.138 16.5108 22.4662 16.5L30.4396 16.4838L30.3859 18.2162ZM50.6859 18.6448C50.6859 19.136 50.5992 19.8313 50.4933 20.1902C50.2362 21.0608 48.9241 22.3738 48.054 22.631C46.5689 23.0701 45.3849 22.7605 44.2655 21.6404C43.3678 20.7421 43.083 20.0206 43.083 18.6448V17.7518H46.8844H50.6859V18.6448ZM60.823 18.6448C60.823 19.136 60.7364 19.8313 60.6304 20.1902C60.3734 21.0608 59.0612 22.3738 58.1912 22.631C56.7061 23.0701 55.5221 22.7605 54.4027 21.6404C53.505 20.7421 53.2202 20.0206 53.2202 18.6448V17.7518H57.0216H60.823V18.6448ZM70.9602 18.6448C70.9602 19.136 70.8736 19.8313 70.7676 20.1902C70.5105 21.0608 69.1984 22.3738 68.3284 22.631C66.8433 23.0701 65.6593 22.7605 64.5399 21.6404C63.6421 20.7421 63.3573 20.0206 63.3573 18.6448V17.7518H67.1588H70.9602V18.6448ZM29.1444 24.1804C29.1444 24.3162 29.0731 24.3834 28.986 24.3295C28.8989 24.2756 28.8276 24.1645 28.8276 24.0824C28.8276 24.0003 28.8989 23.9333 28.986 23.9333C29.0731 23.9333 29.1444 24.0445 29.1444 24.1804ZM27.5212 26.7976L29.1444 29.5035V31.6027C29.1444 34.2464 28.9613 35.2588 28.1931 36.8607C26.6378 40.1037 23.1435 42.0926 19.5369 41.7875C16.4637 41.5275 13.6796 39.6213 12.3624 36.8747C11.5874 35.2586 11.4043 34.2514 11.4043 31.6027V29.5035L13.0275 26.7976L14.6506 24.0918H20.2743H25.8981L27.5212 26.7976ZM36.7473 29.1637V30.4317H40.5487H44.3501V40.5756V50.7195H43.7166H43.083V51.9875V53.2555H44.5949C45.989 53.2555 46.1371 53.2252 46.4956 52.8664L46.8844 52.4774V40.5756V28.6738L46.4956 28.2848L46.1069 27.8957H41.427H36.7473V29.1637ZM49.8076 28.2848L49.4187 28.6738V43.5007V58.3274H46.2509H43.083V59.5954V60.8634H57.0216H70.9602V62.1314V63.3994H57.0216H43.083V64.6674V65.9353H57.8999H72.717L73.1057 65.5462L73.4945 65.1573V59.2063V53.2555H72.2274H70.9602V55.7914V58.3274H69.0595H67.1588V43.5007V28.6738L66.7699 28.2848L66.3812 27.8957H58.2887H50.1963L49.8076 28.2848ZM8.87003 30.4317C8.87003 31.4697 8.82568 31.6997 8.62531 31.6997C8.19876 31.6997 7.60288 30.9606 7.60288 30.4317C7.60288 29.9028 8.19876 29.1637 8.62531 29.1637C8.82568 29.1637 8.87003 29.3937 8.87003 30.4317ZM32.557 29.5528C32.8021 29.798 32.9458 30.1229 32.9458 30.4317C32.9458 30.9606 32.3499 31.6997 31.9234 31.6997C31.723 31.6997 31.6787 31.4697 31.6787 30.4317C31.6787 29.0103 31.8469 28.8421 32.557 29.5528ZM64.6245 44.3796V58.3274H58.2887H51.953V44.3796V30.4317H58.2887H64.6245V44.3796ZM5.06859 38.0396V40.5756H6.33573H7.60288V38.0396V35.5037H6.33573H5.06859V38.0396ZM59.5559 44.3796V48.1835H60.823H62.0902V44.3796V40.5756H60.823H59.5559V44.3796ZM18.1896 44.1547C18.8288 44.2783 19.767 44.3796 20.2743 44.3796C21.1457 44.3796 23.1446 44.064 23.8382 43.8169C24.0124 43.7549 23.2819 44.5867 22.2147 45.6656L20.2743 47.6272L18.334 45.6656C17.2668 44.5867 16.5363 43.7549 16.7105 43.8169C16.8847 43.879 17.5503 44.031 18.1896 44.1547ZM35.2902 46.2684C36.4023 46.8716 36.882 47.3693 37.5025 48.5628C37.8972 49.3223 37.9271 49.5314 37.9851 51.9479L38.047 54.5235H34.8628H31.6787V53.2555V51.9875H30.4142H29.1499L29.1075 55.9007L29.0652 59.8138L25.3033 60.4653L21.5415 61.1167V56.0939V51.0709L23.3234 51.5258C25.5058 52.0827 25.7316 52.0885 26.2212 51.5984C26.6047 51.2148 26.6101 51.1704 26.6101 48.416V45.6228L30.4511 45.6748L34.2922 45.7268L35.2902 46.2684ZM17.6976 48.7509C17.6773 48.7693 17.3936 48.8575 17.0669 48.9467L16.4729 49.109V48.297V47.4852L17.1036 48.1014C17.4505 48.4403 17.7177 48.7327 17.6976 48.7509ZM24.0758 48.3252V49.1008L23.4316 48.9372L22.7873 48.7735L23.3844 48.1615C23.7129 47.825 24.0029 47.5495 24.0287 47.5495C24.0546 47.5495 24.0758 47.8985 24.0758 48.3252ZM13.9386 55.7914V57.0594H15.2058H16.4729V55.7914V54.5235H15.2058H13.9386V55.7914ZM8.87003 58.3274V59.5954H5.70216H2.53429V58.3274V57.0594H5.70216H8.87003V58.3274ZM38.0144 58.3274V59.5954H34.8465H31.6787V58.3274V57.0594H34.8465H38.0144V58.3274ZM11.1362 62.3122C11.7628 62.4118 12.3292 62.5403 12.3948 62.598C12.4971 62.688 3.28318 64.3619 2.73228 64.3534C2.59306 64.3513 2.53429 64.0212 2.53429 63.2409V62.1314H6.26556C8.31787 62.1314 10.5096 62.2127 11.1362 62.3122ZM38.0144 65.3014V68.4713H34.1545H30.2948L19.502 71.0073C9.70713 73.3089 8.57589 73.5433 7.26376 73.5433C5.32439 73.5433 4.68828 73.3314 3.71353 72.3599C2.70773 71.3579 2.5023 70.6779 2.56613 68.5626L2.61349 66.9895L16.3937 64.5777L30.1739 62.1659L34.0942 62.1487L38.0144 62.1314V65.3014ZM37.6976 71.2554C37.6976 71.6871 36.091 73.141 35.3825 73.3505C34.0622 73.7409 32.1339 73.5983 29.0256 72.8806C27.4358 72.5135 26.1349 72.1737 26.1351 72.1253C26.1351 72.077 27.0796 71.8144 28.2338 71.5414C30.2504 71.0648 30.476 71.0447 34.015 71.0263C37.2592 71.0095 37.6976 71.0368 37.6976 71.2554Z" fill="url(#paint0_linear_3679_3686)"/>
<defs>
<linearGradient id="paint0_linear_3679_3686" x1="-2.0225e-07" y1="18.0148" x2="76.8744" y2="28.8065" gradientUnits="userSpaceOnUse">
<stop stop-color="#AB7AFC"/>
<stop offset="1" stop-color="#6A00FF"/>
</linearGradient>
</defs>
</svg>
