<svg width="67" height="77" viewBox="0 0 67 77" fill="none" xmlns="http://www.w3.org/2000/svg">
<path d="M49.9531 23.719V16.7018C49.9531 14.5152 49.5224 12.3499 48.6856 10.3297C47.8488 8.30954 46.6223 6.47394 45.0761 4.92775C43.5299 3.38156 41.6943 2.15506 39.6741 1.31826C37.6539 0.481472 35.4887 0.0507813 33.302 0.0507812C31.1154 0.0507813 28.9502 0.481472 26.93 1.31826C24.9098 2.15506 23.0742 3.38156 21.528 4.92775C19.9818 6.47394 18.7553 8.30954 17.9185 10.3297C17.0817 12.3499 16.651 14.5152 16.651 16.7018V33.3528C16.651 33.9837 16.9016 34.5887 17.3477 35.0348C17.7938 35.4809 18.3989 35.7315 19.0297 35.7315C19.6606 35.7315 20.2656 35.4809 20.7117 35.0348C21.1578 34.5887 21.4085 33.9837 21.4085 33.3528V28.4764H40.4382V23.719H21.4085V16.7018C21.4085 13.5474 22.6615 10.5222 24.892 8.29177C27.1225 6.06129 30.1477 4.80822 33.302 4.80822C36.4564 4.80822 39.4816 6.06129 41.7121 8.29177C43.9425 10.5222 45.1956 13.5474 45.1956 16.7018V33.2339C45.1956 33.8648 45.4462 34.4698 45.8923 34.9159C46.3384 35.362 46.9435 35.6126 47.5743 35.6126C48.2052 35.6126 48.8102 35.362 49.2563 34.9159C49.7024 34.4698 49.9531 33.8648 49.9531 33.2339V28.4764H61.8466V71.2934H4.75743V28.4764H11.8936V23.719H0V71.5074C0 72.7124 0.478672 73.868 1.33072 74.7201C2.18276 75.5721 3.33838 76.0508 4.54335 76.0508H62.0607C63.2657 76.0508 64.4213 75.5721 65.2734 74.7201C66.1254 73.868 66.6041 72.7124 66.6041 71.5074V23.719H49.9531Z" fill="url(#paint0_linear_3588_4592)"/>
<defs>
<linearGradient id="paint0_linear_3588_4592" x1="-1.83288e-07" y1="18.0656" x2="69.9086" y2="26.9593" gradientUnits="userSpaceOnUse">
<stop stop-color="#AB7AFC"/>
<stop offset="1" stop-color="#6A00FF"/>
</linearGradient>
</defs>
</svg>
