<svg width="82" height="76" viewBox="0 0 82 76" fill="none" xmlns="http://www.w3.org/2000/svg">
<path fill-rule="evenodd" clip-rule="evenodd" d="M38.5728 0.288105C37.0943 0.795813 35.8755 1.81714 35.016 3.26797C34.3385 4.41191 34.2576 4.78566 34.1711 7.16402C34.04 10.7641 34.4566 12.0746 36.2662 13.7543L37.6067 14.9987L34.0935 16.4788C29.9564 18.2216 29.0601 18.8475 28.1001 20.6624L27.3839 22.0161L27.3058 28.6903L27.2276 35.3644H28.6419H30.0562V29.0602C30.0562 23.1884 30.0921 22.6873 30.5777 21.756C30.8645 21.2057 31.3514 20.6026 31.6593 20.4155C32.5756 19.8586 40.634 16.4641 41.0397 16.4641C41.4495 16.4641 49.3687 19.8239 50.3137 20.3987C50.6366 20.5953 51.1355 21.2057 51.4223 21.756C51.9079 22.6873 51.9438 23.1884 51.9438 29.0602V35.3644H53.3581H54.7724L54.6942 28.6903L54.6161 22.0161L53.8999 20.6624C52.9399 18.8477 52.0051 18.193 47.8948 16.4573L44.4083 14.9847L45.7371 13.7512C47.4113 12.1972 47.8722 10.898 47.8701 7.73883C47.8686 5.05475 47.6246 4.12108 46.5286 2.60835C45.304 0.917483 43.7209 0.109733 41.4426 0.0133419C40.2436 -0.0376888 39.2414 0.0584663 38.5728 0.288105ZM43.1429 2.98612C43.5848 3.23938 44.2093 3.88128 44.5308 4.41238C45.0629 5.29101 45.1077 5.61822 45.0301 8.04619C44.9517 10.4999 44.8911 10.7799 44.2765 11.5272C43.9088 11.9741 43.0111 12.5993 42.2814 12.9166L40.9547 13.4933L39.5302 12.7935C37.3298 11.7121 37.0712 11.2434 36.9681 8.14731C36.8663 5.08688 37.2323 4.01311 38.6911 3.09291C39.856 2.35816 41.9602 2.3076 43.1429 2.98612ZM15.0403 7.65708C14.0999 7.985 13.1618 8.81614 12.7256 9.70753C12.2833 10.6119 12.2514 11.4929 12.2463 23.0202L12.2408 35.3644H13.6405H15.0403V23.096C15.0403 12.2581 15.0869 10.7846 15.4402 10.4565C15.7863 10.1354 16.8835 10.0853 23.5844 10.0853H31.3287V8.7859V7.48651L23.3754 7.50517C19.0012 7.51533 15.2503 7.58385 15.0403 7.65708ZM50.6712 8.7859V10.0853H58.4156C65.1165 10.0853 66.2137 10.1354 66.5598 10.4565C66.9131 10.7846 66.9597 12.2581 66.9597 23.096V35.3644H68.3595H69.7592V23.0112C69.7592 10.67 69.7587 10.6568 69.1866 9.60476C68.8092 8.91088 68.2668 8.37128 67.5959 8.02304C66.6029 7.5073 66.3827 7.49407 58.6246 7.49029L50.6712 7.48651V8.7859ZM32.8558 27.9347V33.0267L34.1919 32.9551L35.5281 32.8838L35.5968 27.8634L35.6655 22.843H34.2607H32.8558V27.9347ZM46.4032 27.8634L46.4719 32.8838L47.808 32.9551L49.1442 33.0267V27.9347V22.843H47.7393H46.3345L46.4032 27.8634ZM37.0508 34.5278C32.5336 35.4939 28.4676 37.8715 25.8591 41.0721C24.4861 42.7568 22.8076 45.8316 23.0031 46.3044C23.1173 46.5805 25.1928 47.3238 25.3211 47.1343C25.3494 47.093 25.7914 46.2616 26.3038 45.2871C29.1125 39.9439 34.5762 36.7819 41 36.7819C47.4237 36.7819 52.8875 39.9439 55.6962 45.2871C56.2085 46.2616 56.6506 47.093 56.6789 47.1343C56.8071 47.3238 58.8826 46.5805 58.9969 46.3044C59.0674 46.1333 58.7284 45.2233 58.2436 44.2818C55.9334 39.7975 52.0606 36.6747 46.7264 34.9956C45.0558 34.4695 44.1421 34.3407 41.6363 34.2774C39.6529 34.2273 38.0454 34.3152 37.0508 34.5278ZM11.3207 38.3452C9.81861 38.8397 8.1941 40.2289 7.50031 41.6119C6.96788 42.6731 6.90069 43.1504 6.89866 45.8904C6.89637 48.7368 6.94676 49.0688 7.55477 50.2014C7.91719 50.8763 8.67868 51.7982 9.24724 52.2499L10.281 53.0714L8.65221 53.7574C2.49849 56.3494 2.0106 56.6447 0.846489 58.483L0.151686 59.5804L0.0758428 67.7902L0 76H1.412H2.82401V68.1918C2.82401 59.9787 2.86447 59.6555 4.00695 58.7214C4.47728 58.3365 13.2262 54.5009 13.6332 54.5009C14.0511 54.5009 22.8099 58.3297 23.2741 58.7152C24.4179 59.665 24.4571 59.9792 24.4571 68.1918V76H25.8691H27.2811L27.2052 67.7902L27.1294 59.5804L26.4346 58.483C25.2705 56.6447 24.7826 56.3494 18.6289 53.7574L17 53.0714L18.0338 52.2499C18.6024 51.7982 19.3639 50.8763 19.7263 50.2014C20.3343 49.0688 20.3847 48.7368 20.3824 45.8904C20.3804 43.1504 20.3132 42.6731 19.7808 41.6119C18.3316 38.7232 14.5769 37.2733 11.3207 38.3452ZM66.0396 38.3452C64.5375 38.8397 62.913 40.2289 62.2192 41.6119C61.6868 42.6731 61.6196 43.1504 61.6176 45.8904C61.6153 48.7368 61.6657 49.0688 62.2737 50.2014C62.6361 50.8763 63.3976 51.7982 63.9662 52.2499L65 53.0714L63.3711 53.7574C57.2174 56.3494 56.7295 56.6447 55.5654 58.483L54.8706 59.5804L54.7948 67.7902L54.7189 76H56.1309H57.5429V68.1918C57.5429 59.9787 57.5834 59.6555 58.7259 58.7214C59.1962 58.3365 67.9451 54.5009 68.3521 54.5009C68.77 54.5009 77.5288 58.3297 77.993 58.7152C79.1368 59.665 79.176 59.9792 79.176 68.1918V76H80.588H82L81.9242 67.7902L81.8483 59.5804L81.1535 58.483C79.9894 56.6447 79.5015 56.3494 73.3478 53.7574L71.719 53.0714L72.7528 52.2499C73.3213 51.7982 74.0828 50.8763 74.4452 50.2014C75.0532 49.0688 75.1036 48.7368 75.1013 45.8904C75.0993 43.1504 75.0321 42.6731 74.4997 41.6119C73.0505 38.7232 69.2958 37.2733 66.0396 38.3452ZM38.2299 39.6678C38.1093 39.9647 37.9253 40.5797 37.821 41.0345C37.3723 42.9895 36.7426 43.1957 34.7511 42.0393L33.3131 41.2044L31.3916 42.9881L29.4698 44.772L29.9844 45.5814C30.2675 46.0268 30.681 46.6491 30.9037 46.9645C31.2361 47.4355 31.2532 47.6406 30.9992 48.1136C30.7612 48.5566 30.3089 48.7763 29.0369 49.0669L27.3839 49.4446L27.3121 51.9416L27.2401 54.4388L28.0616 54.5914C31.3417 55.2002 31.7082 55.6666 30.4181 57.5902C29.9455 58.2949 29.5561 58.9808 29.5531 59.1143C29.5457 59.4195 32.908 62.5338 33.2439 62.5328C33.3803 62.5326 34.1329 62.1737 34.916 61.7353C36.0526 61.099 36.4377 60.9877 36.8248 61.1841C37.499 61.5262 37.5937 61.7012 37.953 63.274L38.2699 64.6598H41.003H43.7359L43.8986 63.9048C44.5527 60.8691 45.0576 60.5278 47.1138 61.7312C47.8676 62.1726 48.6072 62.5336 48.7574 62.5336C49.1009 62.5336 52.4548 59.4141 52.4469 59.102C52.4439 58.9753 52.0545 58.2949 51.5819 57.5902C50.8591 56.5126 50.7654 56.2211 50.9929 55.758C51.2528 55.2284 51.7786 55.0238 53.9246 54.6179L54.7601 54.4601L54.6881 51.9522L54.6161 49.4446L52.9631 49.0669C51.6911 48.7763 51.2388 48.5566 51.0008 48.1136C50.7468 47.6406 50.7639 47.4355 51.0963 46.9645C51.319 46.6491 51.7325 46.0268 52.0156 45.5814L52.5302 44.772L50.6084 42.9881L48.6869 41.2044L47.2489 42.0393C45.8776 42.8355 45.0268 42.9576 44.6626 42.4104C44.5817 42.289 44.3244 41.5311 44.0907 40.7262L43.6657 39.2626L41.0575 39.1953C38.543 39.1303 38.4412 39.1473 38.2299 39.6678ZM16.022 41.2466C17.4251 42.1742 17.7126 42.9616 17.7126 45.8777C17.7126 49.1075 17.3011 49.8978 15.0762 50.9404L13.6388 51.6139L12.2028 50.9399C10.1759 49.9883 9.62264 49.0796 9.48979 46.4816C9.3297 43.3595 9.97641 41.799 11.7849 40.9426C12.9317 40.3994 14.9604 40.545 16.022 41.2466ZM70.7409 41.2466C72.144 42.1742 72.4316 42.9616 72.4316 45.8777C72.4316 49.1075 72.02 49.8978 69.7951 50.9404L68.3577 51.6139L66.9218 50.9399C64.8949 49.9883 64.3416 49.0796 64.2087 46.4816C64.0486 43.3595 64.6953 41.799 66.5039 40.9426C67.6507 40.3994 69.6793 40.545 70.7409 41.2466ZM41.7594 42.7473C42.1577 44.2293 42.2425 44.3106 44.177 45.0669L45.954 45.7619L47.1481 45.0728C48.2649 44.4283 48.3677 44.4096 48.7342 44.7855C49.09 45.1505 49.0584 45.2819 48.3906 46.2184L47.6553 47.2494L48.1506 48.4158C48.9019 50.1853 49.3794 50.9569 49.7235 50.9586C49.8947 50.9593 50.4646 51.0705 50.9894 51.2059C51.6827 51.3845 51.9438 51.5801 51.9438 51.9206C51.9438 52.4195 51.8878 52.45 50.2523 52.838C49.3758 53.0461 49.1317 53.2379 48.8095 53.9717C48.5963 54.4577 48.2491 55.2321 48.0381 55.6926C47.6686 56.4987 47.6813 56.5703 48.3837 57.6181C49.0671 58.6373 49.0859 58.7292 48.6792 59.071C48.2842 59.4027 48.1412 59.376 47.1038 58.7767L45.9629 58.1173L44.0541 58.8565L42.1455 59.5955L41.8773 60.7692C41.6462 61.7801 41.5245 61.9429 41 61.9429C40.4755 61.9429 40.3538 61.7801 40.1227 60.7692L39.8545 59.5955L37.9459 58.8565L36.0371 58.1173L34.8962 58.7767C33.8588 59.376 33.7158 59.4027 33.3208 59.071C32.9141 58.7292 32.9329 58.6373 33.6163 57.6181C34.3187 56.5703 34.3314 56.4987 33.9619 55.6926C33.7509 55.2321 33.4037 54.4577 33.1905 53.9717C32.8683 53.2379 32.6242 53.0461 31.7477 52.838C30.1122 52.45 30.0562 52.4195 30.0562 51.9206C30.0562 51.5801 30.3173 51.3845 31.0106 51.2059C31.5357 51.0705 32.1052 50.9593 32.2765 50.9586C32.6206 50.9569 33.0981 50.1853 33.8494 48.4158L34.3446 47.2494L33.6094 46.2184C32.9416 45.2819 32.91 45.1505 33.2658 44.7855C33.6323 44.4096 33.7351 44.4283 34.8519 45.0728L36.046 45.7619L37.823 45.0669C39.7575 44.3106 39.8422 44.2293 40.2406 42.7473C40.4414 42.001 40.6363 41.7433 41 41.7433C41.3637 41.7433 41.5586 42.001 41.7594 42.7473ZM38.4313 47.4906C36.7044 48.3369 35.8193 49.6816 35.7001 51.6401C35.5599 53.9436 36.452 55.4325 38.5822 56.4514C41.2273 57.7166 44.5514 56.6353 45.9596 54.0516C46.6628 52.7614 46.4118 50.3089 45.4462 49.0364C44.4178 47.681 42.8472 46.9408 41 46.9408C39.9764 46.9408 39.2248 47.1017 38.4313 47.4906ZM42.452 49.825C42.7604 49.9656 43.2033 50.4525 43.4356 50.9073C43.7889 51.5981 43.8092 51.8854 43.5606 52.6563C43.2323 53.6729 42.0844 54.4993 41 54.4993C39.9155 54.4993 38.7677 53.6729 38.4394 52.6563C37.9673 51.1934 38.744 49.9833 40.491 49.4598C40.9333 49.3272 41.6538 49.4614 42.452 49.825ZM5.36907 69.7393V76H6.76886H8.16864V69.7393V63.4786H6.76886H5.36907V69.7393ZM19.1124 69.7393V76H20.5122H21.912V69.7393V63.4786H20.5122H19.1124V69.7393ZM60.088 69.7393V76H61.4878H62.8876V69.7393V63.4786H61.4878H60.088V69.7393ZM73.8314 69.7393V76H75.2311H76.6309V69.7393V63.4786H75.2311H73.8314V69.7393ZM30.0616 64.9254L29.2151 65.903L29.8267 66.3628C30.9371 67.1979 34.988 68.8592 36.8508 69.2434C39.1576 69.7192 42.7026 69.7277 45.1192 69.2635C46.9524 68.9112 50.9779 67.2544 52.1733 66.3601L52.7849 65.903L51.9466 64.9346L51.1082 63.9664L50.4445 64.4014C49.1956 65.2193 46.6867 66.2796 45.0517 66.6803C42.907 67.2057 39.0937 67.2059 36.95 66.6805C35.4133 66.3042 32.6127 65.0969 31.4364 64.304C30.9396 63.9693 30.8569 64.0066 30.0616 64.9254Z" fill="url(#paint0_linear_3588_4642)"/>
<defs>
<linearGradient id="paint0_linear_3588_4642" x1="-2.25657e-07" y1="18.0148" x2="85.3671" y2="31.3856" gradientUnits="userSpaceOnUse">
<stop stop-color="#AB7AFC"/>
<stop offset="1" stop-color="#6A00FF"/>
</linearGradient>
</defs>
</svg>
