<svg width="15" height="14" viewBox="0 0 15 14" fill="none" xmlns="http://www.w3.org/2000/svg">
<path d="M13.5941 11.4251C13.2623 10.6392 12.7808 9.92541 12.1765 9.32337C11.574 8.71959 10.8602 8.2382 10.0747 7.90578C10.0677 7.90226 10.0606 7.9005 10.0536 7.89698C11.1493 7.10553 11.8616 5.81633 11.8616 4.36181C11.8616 1.95226 9.90938 0 7.49983 0C5.09028 0 3.13802 1.95226 3.13802 4.36181C3.13802 5.81633 3.85033 7.10553 4.94606 7.89874C4.93902 7.90226 4.93199 7.90402 4.92495 7.90754C4.13701 8.23995 3.42998 8.71658 2.8232 9.32513C2.21942 9.92763 1.73803 10.6414 1.40561 11.4269C1.07904 12.1959 0.902912 13.0204 0.886763 13.8558C0.886293 13.8745 0.889586 13.8932 0.896446 13.9107C0.903307 13.9282 0.913597 13.9441 0.926709 13.9576C0.939822 13.971 0.955492 13.9817 0.972796 13.989C0.990101 13.9963 1.00869 14 1.02747 14H2.08274C2.16013 14 2.22169 13.9384 2.22345 13.8628C2.25862 12.505 2.80385 11.2334 3.76767 10.2696C4.7649 9.27236 6.08928 8.72362 7.49983 8.72362C8.91038 8.72362 10.2348 9.27236 11.232 10.2696C12.1958 11.2334 12.741 12.505 12.7762 13.8628C12.778 13.9402 12.8395 14 12.9169 14H13.9722C13.991 14 14.0096 13.9963 14.0269 13.989C14.0442 13.9817 14.0598 13.971 14.0729 13.9576C14.0861 13.9441 14.0964 13.9282 14.1032 13.9107C14.1101 13.8932 14.1134 13.8745 14.1129 13.8558C14.0953 13.0151 13.9212 12.1972 13.5941 11.4251ZM7.49983 7.38693C6.69254 7.38693 5.93274 7.07211 5.36113 6.5005C4.78953 5.92889 4.4747 5.1691 4.4747 4.36181C4.4747 3.55452 4.78953 2.79472 5.36113 2.22312C5.93274 1.65151 6.69254 1.33668 7.49983 1.33668C8.30712 1.33668 9.06691 1.65151 9.63852 2.22312C10.2101 2.79472 10.525 3.55452 10.525 4.36181C10.525 5.1691 10.2101 5.92889 9.63852 6.5005C9.06691 7.07211 8.30712 7.38693 7.49983 7.38693Z" fill="white"/>
</svg>
