<svg width="32" height="32" viewBox="0 0 32 32" fill="none" xmlns="http://www.w3.org/2000/svg">
<path d="M8.45774 27.5027L8.98086 27.7622C11.1608 29.0595 13.6022 29.6649 16.0436 29.6649C23.7166 29.6649 29.9945 23.4379 29.9945 15.827C29.9945 12.1947 28.5122 8.64869 25.8965 6.05406C23.2806 3.45943 19.7928 1.98921 16.0436 1.98921C8.37062 1.98921 2.09259 8.21623 2.17984 15.9136C2.17984 18.5081 2.96458 21.0163 4.27243 23.1784L4.62118 23.6974L3.2262 28.8001L8.45774 27.5027Z" fill="#00E676"/>
<path d="M27.3787 4.67026C24.4141 1.6433 20.3161 0 16.1307 0C7.23714 0 0.0872486 7.17835 0.174372 15.9135C0.174372 18.681 0.95911 21.3622 2.26709 23.7838L0 32L8.45774 29.8378C10.812 31.1352 13.4277 31.7406 16.0436 31.7406C24.8501 31.7406 32 24.5621 32 15.8272C32 11.5892 30.3432 7.61081 27.3787 4.67026ZM16.1307 29.0596C13.7765 29.0596 11.4223 28.4543 9.41685 27.2434L8.89374 26.9839L3.83657 28.2812L5.14442 23.3516L4.79568 22.8326C0.95911 16.6921 2.79021 8.56215 9.06811 4.75668C15.346 0.951336 23.455 2.76759 27.2916 8.99461C31.128 15.2216 29.2969 23.2649 23.0191 27.0704C21.0135 28.3676 18.5722 29.0595 16.1307 29.0595V29.0596ZM23.8038 19.4597L22.8446 19.0272C22.8446 19.0272 21.4497 18.4218 20.5777 17.9893C20.4904 17.9893 20.4033 17.9028 20.3161 17.9028C20.0544 17.9028 19.8801 17.9893 19.7057 18.0759C19.7057 18.0759 19.6186 18.1623 18.3978 19.5461C18.3106 19.7191 18.1362 19.8056 17.9618 19.8056H17.8746C17.7875 19.8056 17.6131 19.719 17.5259 19.6326L17.0899 19.4597C16.1307 19.0272 15.2589 18.5082 14.5613 17.8164C14.3869 17.6434 14.1253 17.4705 13.9509 17.2975C13.3405 16.6921 12.7302 16.0001 12.2943 15.2217L12.2071 15.0488C12.1199 14.9622 12.1199 14.8758 12.0327 14.7029C12.0327 14.5299 12.0327 14.357 12.1199 14.2704C12.1199 14.2704 12.4687 13.838 12.7302 13.5786C12.9047 13.4055 12.9918 13.1461 13.1662 12.9732C13.3405 12.7137 13.4278 12.3677 13.3405 12.1082C13.2534 11.6758 12.2071 9.34065 11.9456 8.82177C11.7711 8.56227 11.5968 8.47585 11.3352 8.38931H10.3761C10.2016 8.38931 10.0273 8.47585 9.85285 8.47585L9.7656 8.56227C9.59123 8.64881 9.41685 8.82177 9.24248 8.90819C9.06811 9.08127 8.98086 9.25411 8.80649 9.42719C8.19612 10.2056 7.84738 11.1569 7.84738 12.1082C7.84738 12.8001 8.02175 13.492 8.28337 14.0975L8.37062 14.357C9.15536 16.0001 10.2016 17.4705 11.5968 18.7677L11.9456 19.1136C12.2071 19.3731 12.4687 19.5461 12.6431 19.8055C14.4741 21.3623 16.5667 22.4866 18.921 23.0921C19.1826 23.1785 19.5313 23.1785 19.7929 23.265H20.6648C21.1008 23.265 21.6239 23.0921 21.9728 22.9191C22.2343 22.7461 22.4087 22.7461 22.583 22.5732L22.7575 22.4001C22.9319 22.2271 23.1063 22.1407 23.2806 21.9678C23.455 21.7948 23.6294 21.6218 23.7166 21.4488C23.891 21.1028 23.9781 20.6704 24.0654 20.2381V19.6326C24.0654 19.6326 23.9781 19.5461 23.8038 19.4597Z" fill="white"/>
</svg>
