<svg width="21" height="20" viewBox="0 0 21 20" fill="none" xmlns="http://www.w3.org/2000/svg">
<path fill-rule="evenodd" clip-rule="evenodd" d="M8.09404 6.969H11.808V8.819C12.343 7.755 13.715 6.799 15.776 6.799C19.727 6.799 20.665 8.917 20.665 12.803V20H16.665V13.688C16.665 11.475 16.13 10.227 14.768 10.227C12.879 10.227 12.094 11.572 12.094 13.687V20H8.09404V6.969ZM1.23504 19.83H5.23504V6.799H1.23504V19.83ZM5.80804 2.55C5.80819 2.88528 5.74169 3.21724 5.61243 3.52659C5.48316 3.83594 5.29369 4.11651 5.05504 4.352C4.57144 4.83262 3.91685 5.10165 3.23504 5.1C2.55443 5.09954 1.90135 4.8312 1.41704 4.353C1.17925 4.11671 0.990425 3.83582 0.861383 3.52643C0.732341 3.21704 0.665618 2.88522 0.665039 2.55C0.665039 1.873 0.935039 1.225 1.41804 0.747C1.90192 0.268158 2.55528 -0.000299211 3.23604 2.50265e-07C3.91804 2.50265e-07 4.57204 0.269 5.05504 0.747C5.53704 1.225 5.80804 1.873 5.80804 2.55Z" fill="#9997A0"/>
</svg>
