<svg width="186" height="40" viewBox="0 0 186 40" fill="none" xmlns="http://www.w3.org/2000/svg">
<g clip-path="url(#clip0_4030_4001)">
<path d="M65.1895 35.7226L68.955 31.957L72.8223 35.7226L68.955 39.692L65.1895 35.7226Z" fill="white"/>
<path d="M66.7157 24.833C66.7157 26.8685 66.4103 28.904 65.5963 30.8377C64.8838 32.5678 63.8662 34.1961 62.543 35.5194C61.2201 36.8423 59.6932 37.8602 58.0649 38.5724C56.3348 39.2849 54.4012 39.6921 52.4672 39.6921C48.7017 39.6921 45.0379 38.2674 42.3918 35.5194C41.0685 34.1961 40.0509 32.5678 39.3384 30.8377C38.5241 28.8022 38.2188 26.8685 38.2188 24.833V1.98539C38.2188 0.888888 39.1079 0 40.2044 0H43.3576C44.4542 0 45.343 0.888885 45.343 1.98538V13.0271C45.7501 12.5183 46.2591 12.1112 46.768 11.7041C47.277 11.297 47.8874 10.9917 48.4981 10.7881C49.1088 10.5846 49.8214 10.381 50.4318 10.1774C51.0425 10.0757 51.755 9.97389 52.3654 9.97389C54.2994 9.97389 56.1313 10.381 57.9631 11.0934C59.6932 11.8059 61.2201 12.8236 62.4412 14.1467C63.7644 15.4697 64.782 17.0981 65.4945 18.8283C66.4103 20.762 66.7157 22.7975 66.7157 24.833ZM59.5914 24.833C59.5914 23.8152 59.3879 22.7975 58.981 21.7797C58.6757 20.8638 58.0649 20.0496 57.4542 19.3372C56.8438 18.6248 56.0295 18.1159 55.2152 17.7088C54.2994 17.3017 53.3833 17.0981 52.4672 17.0981C51.5514 17.0981 50.5335 17.3017 49.7196 17.7088C48.9053 18.1159 48.0909 18.7265 47.4805 19.4389C46.8698 20.1514 46.3609 20.9656 45.9537 21.8815C45.5466 22.7975 45.4448 23.7135 45.4448 24.7312C45.4448 25.749 45.6483 26.7667 45.9537 27.6827C46.2591 28.5986 46.768 29.4129 47.4805 30.1253C48.0909 30.8377 48.9053 31.3465 49.7196 31.7537C51.4496 32.5678 53.4851 32.5678 55.2152 31.7537C56.0295 31.3465 56.8438 30.8377 57.4542 30.1253C58.0649 29.4129 58.6757 28.5986 58.981 27.6827C59.3879 26.8685 59.5914 25.8507 59.5914 24.833Z" fill="white"/>
<path d="M99.7918 24.8335C99.7918 26.869 99.3847 28.8027 98.6722 30.6346C97.9596 32.3648 96.9421 33.9933 95.6188 35.3162C94.2959 36.6392 92.7694 37.6571 91.1408 38.3696C87.5788 39.8961 83.6094 39.8961 80.0474 38.3696C76.587 36.8427 73.8393 34.0951 72.4143 30.6346C71.7018 28.8027 71.2949 26.7672 71.2949 24.8335C71.2949 22.798 71.7018 20.8643 72.4143 18.9305C73.1268 17.2004 74.1444 15.572 75.4676 14.2489C76.7905 12.9259 78.3174 11.9081 80.0474 11.1957C81.7775 10.4833 83.7112 10.0762 85.5434 10.0762C87.477 10.0762 89.3089 10.3815 91.1408 11.0939C92.8709 11.8064 94.3977 12.8241 95.6188 14.0454C96.9421 15.3684 97.9596 16.9968 98.6722 18.727C99.3847 20.6607 99.7918 22.6962 99.7918 24.8335ZM92.5658 24.8335C92.5658 23.8157 92.3622 22.6962 91.9551 21.6785C91.6497 20.7625 91.039 19.9483 90.4283 19.2359C89.8178 18.5235 89.0035 18.0146 88.1892 17.7092C86.4591 16.9968 84.4237 16.9968 82.6936 17.7092C81.8793 18.0146 81.065 18.6252 80.4546 19.2359C79.8439 19.9483 79.3349 20.7625 78.9278 21.6785C78.5209 22.6962 78.3174 23.714 78.4192 24.8335C78.4192 25.8512 78.6227 26.869 78.9278 27.785C79.2331 28.7009 79.7421 29.5151 80.4546 30.2275C81.065 30.9399 81.8793 31.4488 82.6936 31.8559C83.5076 32.263 84.5255 32.4666 85.4416 32.4666C86.3574 32.4666 87.2735 32.263 88.1892 31.9577C89.0035 31.6524 89.8178 31.0417 90.4283 30.4311C91.1408 29.7186 91.6497 28.9045 91.9551 27.9885C92.464 26.869 92.5658 25.8512 92.5658 24.8335Z" fill="white"/>
<path d="M104.271 11.9076C106.001 11.3988 107.731 11.0935 109.461 10.7881C111.7 10.4828 113.939 10.2793 116.178 10.2793C118.214 10.1775 120.249 10.5846 122.081 11.1952C123.506 11.7041 124.829 12.6201 125.847 13.8414C126.763 15.0627 127.475 16.3857 127.78 17.9124C128.188 19.6425 128.391 21.3727 128.391 23.1029V36.9943C128.391 38.0909 127.502 38.9797 126.406 38.9797H122.438C121.341 38.9797 120.453 38.0909 120.453 36.9943V24.1206C120.453 21.5762 120.147 19.7443 119.435 18.7265C118.723 17.7088 117.501 17.0981 115.669 17.0981C115.058 17.0981 114.448 17.0981 113.837 17.1999C113.227 17.3017 112.718 17.3017 112.209 17.3017V36.9943C112.209 38.0909 111.32 38.9797 110.223 38.9797H106.256C105.159 38.9797 104.271 38.0909 104.271 36.9943V11.9076Z" fill="white"/>
<path d="M157.301 36.5846C157.297 37.4626 156.719 38.2395 155.865 38.4431C154.612 38.7417 153.358 38.9628 152.105 39.1839C149.866 39.4893 147.627 39.6929 145.387 39.6929C143.352 39.7947 141.317 39.3875 139.485 38.7768C138.06 38.2678 136.737 37.2503 135.719 36.1306C134.803 34.9095 134.091 33.4844 133.785 31.9579C133.378 30.2278 133.175 28.4976 133.175 26.6657V12.876C133.175 11.7795 134.064 10.8906 135.16 10.8906H139.128C140.224 10.8906 141.113 11.7795 141.113 12.876V25.5462C141.011 27.4799 141.317 29.3118 142.131 31.1438C142.843 32.2633 144.065 32.874 145.896 32.874C146.507 32.874 147.118 32.874 147.728 32.7722C148.339 32.6704 148.95 32.6704 149.459 32.5686V12.876C149.459 11.7795 150.348 10.8906 151.444 10.8906H155.404C156.504 10.8906 157.394 11.7841 157.389 12.8834L157.301 36.5846Z" fill="white"/>
<path d="M185.094 38.0014C185.086 38.5441 184.643 38.9799 184.101 38.9799H163.48C162.718 38.9799 162.24 38.1584 162.616 37.4966L172.735 19.7013C173.112 19.0396 172.634 18.2179 171.872 18.2179H162.868C162.319 18.2179 161.875 17.7735 161.875 17.2253V12.0864C161.875 11.5382 162.319 11.0938 162.868 11.0938H183.482C184.242 11.0938 184.72 11.9122 184.347 12.5739L174.311 30.3756C173.938 31.0373 174.417 31.8557 175.176 31.8557H184.174C184.728 31.8557 185.175 32.3089 185.167 32.8625L185.094 38.0014Z" fill="white"/>
<path d="M3.47441 3.47441H24.8173V36.2332H15.8831C9.26579 36.2332 3.85831 31.0535 3.49398 24.5273C2.23167 24.1305 1.03664 23.4794 0 22.5707V23.8246C0 32.5964 7.11109 39.7076 15.8831 39.7076H26.3063C27.4028 39.7076 28.2917 38.8189 28.2917 37.7223V1.98538C28.2917 0.888885 27.4028 0 26.3063 0H1.98538C0.888885 0 0 0.888885 0 1.98538V4.96345H3.47441V3.47441Z" fill="white"/>
<path d="M12.3926 19.6951L14.1228 17.9648L15.8998 19.6951L14.1228 21.5188L12.3926 19.6951Z" fill="white"/>
<path d="M13.0937 14.6907C13.0937 15.626 12.9534 16.5612 12.5793 17.4497C12.2519 18.2447 11.7843 18.9929 11.1764 19.6008C10.5685 20.2088 9.86702 20.6764 9.1188 21.0037C8.32384 21.3311 7.43535 21.5181 6.54683 21.5181C4.81662 21.5181 3.13313 20.8634 1.91729 19.6008C1.30937 18.9929 0.841737 18.2447 0.514394 17.4497C0.140289 16.5144 0 15.626 0 14.6907V4.76953H3.47441V9.26618C3.66146 9.03236 3.69428 8.8453 3.9281 8.65825C4.16192 8.47119 4.4425 8.3309 4.72309 8.23737C5.00364 8.14387 5.33099 8.05034 5.61158 7.95682C5.89216 7.91005 6.21951 7.86329 6.50006 7.86329C7.38859 7.86329 8.23031 8.05034 9.07207 8.37766C9.86702 8.70501 10.5685 9.17265 11.1296 9.78056C11.7376 10.3885 12.2052 11.1367 12.5325 11.9317C12.9534 12.8202 13.0937 13.7554 13.0937 14.6907ZM9.82026 14.6907C9.82026 14.2231 9.72673 13.7555 9.53967 13.2878C9.39938 12.8669 9.1188 12.4928 8.83824 12.1655C8.55766 11.8381 8.18354 11.6043 7.80943 11.4173C7.38859 11.2302 6.96771 11.1367 6.54683 11.1367C6.12598 11.1367 5.65834 11.2302 5.28423 11.4173C4.91015 11.6043 4.53603 11.8849 4.25545 12.2123C3.97486 12.5396 3.74104 12.9137 3.55398 13.3346C3.36696 13.7555 3.3202 14.1763 3.3202 14.6439C3.3202 15.1116 3.41372 15.5792 3.55398 16.0001C3.69428 16.4209 3.9281 16.795 4.25545 17.1224C4.53603 17.4497 4.91015 17.6835 5.28423 17.8706C6.07922 18.2447 7.01447 18.2447 7.80943 17.8706C8.18354 17.6835 8.55766 17.4497 8.83824 17.1224C9.1188 16.795 9.39938 16.4209 9.53967 16.0001C9.72673 15.626 9.82026 15.1583 9.82026 14.6907Z" fill="white"/>
<path d="M28.2919 14.6908C28.2919 15.6261 28.1049 16.5146 27.7775 17.3563C27.4502 18.1513 26.9825 18.8995 26.3746 19.5074C25.7667 20.1153 25.0653 20.583 24.317 20.9103C22.6803 21.6118 20.8566 21.6118 19.2199 20.9103C17.6299 20.2089 16.3673 18.9463 15.7126 17.3563C15.3853 16.5146 15.1982 15.5793 15.1982 14.6908C15.1982 13.7555 15.3853 12.867 15.7126 11.9785C16.04 11.1836 16.5076 10.4354 17.1155 9.82742C17.7234 9.21952 18.4249 8.75188 19.2199 8.42453C20.0148 8.09721 20.9033 7.91016 21.7451 7.91016C22.6336 7.91016 23.4753 8.05045 24.317 8.37777C25.112 8.70512 25.8135 9.17276 26.3746 9.7339C26.9825 10.3418 27.4502 11.09 27.7775 11.885C28.1049 12.7735 28.2919 13.7088 28.2919 14.6908ZM24.9717 14.6908C24.9717 14.2232 24.8782 13.7088 24.6912 13.2411C24.5509 12.8203 24.2703 12.4462 23.9897 12.1188C23.7091 11.7915 23.335 11.5577 22.9609 11.4174C22.1659 11.09 21.2307 11.09 20.4357 11.4174C20.0616 11.5577 19.6875 11.8383 19.4069 12.1188C19.1263 12.4462 18.8925 12.8203 18.7055 13.2411C18.5184 13.7088 18.4249 14.1764 18.4716 14.6908C18.4716 15.1584 18.5652 15.6261 18.7055 16.0469C18.8458 16.4678 19.0796 16.8419 19.4069 17.1692C19.6875 17.4966 20.0616 17.7304 20.4357 17.9175C20.8098 18.1045 21.2774 18.198 21.6983 18.198C22.1192 18.198 22.54 18.1045 22.9609 17.9642C23.335 17.8239 23.7091 17.5434 23.9897 17.2628C24.317 16.9354 24.5509 16.5613 24.6912 16.1405C24.925 15.6261 24.9717 15.1584 24.9717 14.6908Z" fill="white"/>
</g>
<defs>
<clipPath id="clip0_4030_4001">
<rect width="185.366" height="40" fill="white"/>
</clipPath>
</defs>
</svg>
