<svg width="294" height="322" viewBox="0 0 294 322" fill="none" xmlns="http://www.w3.org/2000/svg">
<g filter="url(#filter0_f_4249_4492)">
<path d="M248.216 205.057C263.787 214.172 263.998 228.798 248.426 237.913L175.408 280.732C159.836 289.847 134.585 289.847 119.013 280.732L45.7845 237.913C30.2128 228.798 30.0024 214.172 45.574 205.057L118.382 162.449C133.953 153.335 159.205 153.335 174.776 162.449L248.216 205.057Z" fill="url(#paint0_radial_4249_4492)"/>
</g>
<g clip-path="url(#clip0_4249_4492)">
<path d="M248.216 172.039L175.408 214.75C159.836 223.842 134.585 223.842 119.013 214.75L45.784 172.039C37.9981 167.599 34 161.679 34 155.547V164.005C34 169.925 37.9981 176.057 45.784 180.497L119.013 223.208C134.585 232.3 159.836 232.3 175.408 223.208L248.216 180.708C256.002 176.268 259.79 170.348 259.79 164.427V155.97C259.79 161.679 256.002 167.599 248.216 172.039Z" fill="url(#paint1_linear_4249_4492)"/>
<path d="M248.217 139.264C263.788 148.356 263.999 162.945 248.427 172.037L175.408 214.749C159.837 223.841 134.585 223.841 119.014 214.749L45.7845 172.037C30.2128 162.945 30.0024 148.356 45.5741 139.264L118.382 96.7643C133.954 87.6723 159.205 87.6723 174.777 96.7643L248.217 139.264Z" fill="#F5FBFF"/>
</g>
<path d="M87.6094 15.672C85.4804 16.9029 83.6386 19.3784 82.7541 21.9496C82.1914 22.0128 81.6496 22.1996 81.1676 22.4967L80.8257 22.7064C78.9027 24.1182 77.5967 26.2159 77.1786 28.5647C77.0751 29.1681 77.0751 29.7848 77.1786 30.3882C77.1836 30.4462 77.1726 30.5045 77.1469 30.5567C77.1212 30.609 77.0817 30.6532 77.0327 30.6846L74.8261 31.9474C74.3222 32.2764 73.9028 32.7193 73.6018 33.2405C73.3009 33.7616 73.1268 34.3463 73.0938 34.9472C73.0938 36.0504 73.8779 36.4972 74.8398 35.941L96.3215 23.5362C96.8272 23.2091 97.248 22.7666 97.5492 22.245C97.8504 21.7235 98.0234 21.1379 98.0539 20.5364C98.0539 19.4331 97.2698 18.9909 96.3124 19.5471L92.7929 21.5758C92.6835 21.6396 92.6106 21.5758 92.6516 21.4208C92.9742 20.3974 93.1071 19.3236 93.0437 18.2523C92.8112 15.3437 90.6593 14.1493 88.0288 15.4577C87.8784 15.5215 87.7416 15.5945 87.6094 15.672Z" fill="#E6E6E6"/>
<path d="M70.8187 12.9358C69.24 13.9565 68.0577 15.4863 67.4679 17.2713C67.0801 17.3138 66.7065 17.4415 66.3738 17.6451C66.2921 17.691 66.2129 17.7412 66.1367 17.7956C64.8058 18.7675 63.9024 20.2165 63.6156 21.8394C63.5448 22.2543 63.5448 22.6782 63.6156 23.0931C63.6194 23.1332 63.612 23.1736 63.5943 23.2098C63.5766 23.246 63.5493 23.2766 63.5153 23.2982L61.9972 24.1735C61.6496 24.4005 61.3603 24.7062 61.1528 25.0658C60.9453 25.4254 60.8254 25.8288 60.8027 26.2433C60.8027 27.0046 61.3452 27.3101 62.0063 26.9271L76.832 18.3655C77.1796 18.1385 77.4688 17.8328 77.6763 17.4732C77.8838 17.1136 78.0038 16.7102 78.0264 16.2957C78.0264 15.5344 77.4839 15.2289 76.8228 15.6119L74.4157 17.0115C74.3382 17.057 74.2881 17.0115 74.3154 16.9066C74.5382 16.1998 74.6293 15.458 74.5844 14.7183C74.4248 12.7124 72.9386 11.8872 71.1105 12.7899L70.8187 12.9358Z" fill="#E6E6E6"/>
<path d="M80.4649 164.599L86.7881 168.383C87.2699 168.673 87.8215 168.826 88.3838 168.826C88.946 168.826 89.4976 168.673 89.9794 168.383L141.391 137.597C141.551 137.498 141.683 137.361 141.775 137.197C141.867 137.033 141.915 136.848 141.915 136.66C141.915 136.472 141.867 136.287 141.775 136.123C141.683 135.959 141.551 135.821 141.391 135.723L135.049 131.939C134.567 131.649 134.016 131.496 133.453 131.496C132.891 131.496 132.34 131.649 131.858 131.939L80.4649 162.739C80.3076 162.838 80.178 162.975 80.0881 163.138C79.9983 163.301 79.9512 163.483 79.9512 163.669C79.9512 163.855 79.9983 164.038 80.0881 164.2C80.178 164.363 80.3076 164.5 80.4649 164.599Z" fill="#E0E0E0"/>
<path d="M200.133 155.335C210.755 161.471 210.814 171.414 200.26 177.546C189.707 183.678 172.538 183.682 161.915 177.546C151.293 171.41 151.234 161.471 161.788 155.335C172.342 149.199 189.51 149.203 200.133 155.335Z" fill="#E0E0E0"/>
<path d="M74.042 131.047C72.8703 129.925 71.5254 128.699 71.4434 127.076C71.4479 126.35 71.6738 125.643 72.0909 125.049C72.508 124.456 73.0964 124.003 73.7775 123.753C74.4644 123.521 75.191 123.429 75.9139 123.484C76.6369 123.539 77.3413 123.739 77.9854 124.072C79.2681 124.75 80.4111 125.664 81.3545 126.766C84.1927 129.92 86.2472 133.699 87.3514 137.795C88.4556 141.892 88.5783 146.192 87.7096 150.345C87.5911 150.892 87.4088 151.498 86.9164 151.758C86.1322 152.173 85.2387 151.444 84.7007 150.737C83.5342 149.188 82.6527 147.443 82.0976 145.585C81.6417 144.012 81.8423 142.28 81.2496 140.798C79.7999 137.165 76.832 133.714 74.042 131.047Z" fill="#751F91"/>
<path d="M74.042 131.047C72.8703 129.925 71.5254 128.699 71.4434 127.076C71.4479 126.35 71.6738 125.643 72.0909 125.049C72.508 124.456 73.0964 124.003 73.7775 123.753C74.4644 123.521 75.191 123.429 75.9139 123.484C76.6369 123.539 77.3413 123.739 77.9854 124.072C79.2681 124.75 80.4111 125.664 81.3545 126.766C84.1927 129.92 86.2472 133.699 87.3514 137.795C88.4556 141.892 88.5783 146.192 87.7096 150.345C87.5911 150.892 87.4088 151.498 86.9164 151.758C86.1322 152.173 85.2387 151.444 84.7007 150.737C83.5342 149.188 82.6527 147.443 82.0976 145.585C81.6417 144.012 81.8423 142.28 81.2496 140.798C79.7999 137.165 76.832 133.714 74.042 131.047Z" fill="#751F91"/>
<path d="M86.2322 149.64C86.1911 149.64 86.1504 149.631 86.1125 149.616C86.0746 149.6 86.0402 149.576 86.0114 149.547C85.9825 149.518 85.9598 149.483 85.9445 149.445C85.9292 149.407 85.9216 149.366 85.9222 149.325C85.8838 144.776 84.8339 140.292 82.8484 136.199C80.8629 132.106 77.9917 128.506 74.4428 125.66C74.4086 125.634 74.3801 125.601 74.3587 125.564C74.3374 125.527 74.3238 125.486 74.3187 125.443C74.3136 125.401 74.3171 125.358 74.329 125.316C74.3409 125.275 74.361 125.237 74.3881 125.204C74.4147 125.17 74.4476 125.143 74.4849 125.122C74.5223 125.102 74.5633 125.089 74.6056 125.084C74.648 125.079 74.6908 125.083 74.7318 125.095C74.7727 125.107 74.8108 125.127 74.844 125.154C78.468 128.059 81.3996 131.735 83.4262 135.914C85.4528 140.093 86.5234 144.671 86.5605 149.316C86.5618 149.359 86.5541 149.402 86.538 149.442C86.5219 149.483 86.4977 149.519 86.4669 149.549C86.4361 149.58 86.3994 149.603 86.359 149.619C86.3186 149.634 86.2754 149.642 86.2322 149.64Z" fill="white"/>
<path d="M82.3899 162.074C80.4159 162.708 77.9404 162.293 76.7961 160.56C75.4284 158.527 76.2901 155.391 74.4893 153.722C73.4817 152.81 72.0001 152.71 70.6643 152.436C69.3286 152.163 67.8469 151.42 67.6463 150.07C67.3819 148.283 69.5793 146.797 69.2738 145.014C68.9684 143.232 66.5385 142.708 65.8227 141.076C65.1708 139.589 66.3242 137.789 67.856 137.232C69.3878 136.676 71.0883 137.059 72.611 137.624C74.1337 138.19 75.6153 138.937 77.2292 139.138C78.8431 139.339 80.849 139.015 82.0799 140.168C83.7302 141.709 82.7865 144.65 84.0585 146.51C84.9156 147.759 86.5249 148.192 87.7558 149.067C88.5209 149.623 89.1419 150.354 89.567 151.198C89.9921 152.043 90.2089 152.977 90.1994 153.923C90.1583 155.97 89.0824 157.451 87.5324 158.627C85.8912 159.904 84.446 161.417 82.3899 162.074Z" fill="#751F91"/>
<path opacity="0.3" d="M82.3899 162.074C80.4159 162.708 77.9404 162.293 76.7961 160.56C75.4284 158.527 76.2901 155.391 74.4893 153.722C73.4817 152.81 72.0001 152.71 70.6643 152.436C69.3286 152.163 67.8469 151.42 67.6463 150.07C67.3819 148.283 69.5793 146.797 69.2738 145.014C68.9684 143.232 66.5385 142.708 65.8227 141.076C65.1708 139.589 66.3242 137.789 67.856 137.232C69.3878 136.676 71.0883 137.059 72.611 137.624C74.1337 138.19 75.6153 138.937 77.2292 139.138C78.8431 139.339 80.849 139.015 82.0799 140.168C83.7302 141.709 82.7865 144.65 84.0585 146.51C84.9156 147.759 86.5249 148.192 87.7558 149.067C88.5209 149.623 89.1419 150.354 89.567 151.198C89.9921 152.043 90.2089 152.977 90.1994 153.923C90.1583 155.97 89.0824 157.451 87.5324 158.627C85.8912 159.904 84.446 161.417 82.3899 162.074Z" fill="black"/>
<path d="M81.5017 148.073L81.4789 148.041C81.1826 147.612 80.8772 147.188 80.5672 146.783C77.6456 143.163 73.6831 140.528 69.2154 139.233C69.1746 139.217 69.1309 139.209 69.0871 139.211C69.0433 139.213 69.0003 139.224 68.9609 139.243C68.9216 139.263 68.8867 139.29 68.8585 139.324C68.8304 139.357 68.8096 139.396 68.7974 139.438C68.7853 139.481 68.7821 139.525 68.7881 139.568C68.794 139.612 68.809 139.653 68.8321 139.691C68.8551 139.728 68.8857 139.76 68.9219 139.785C68.9581 139.81 68.999 139.827 69.0422 139.835C73.3863 141.093 77.2391 143.655 80.0793 147.175C80.166 147.284 80.2435 147.407 80.3301 147.517C76.7924 146.217 73.1817 146.956 71.2578 148.506C71.2232 148.532 71.1944 148.564 71.1731 148.602C71.1519 148.639 71.1387 148.681 71.1344 148.724C71.1301 148.767 71.1348 148.81 71.1482 148.851C71.1616 148.892 71.1834 148.93 71.2122 148.962C71.2376 148.997 71.27 149.026 71.3074 149.048C71.3447 149.069 71.3862 149.083 71.4291 149.088C71.472 149.092 71.5154 149.088 71.5566 149.075C71.5978 149.062 71.6357 149.04 71.6681 149.012C73.5737 147.476 77.5081 146.792 81.0732 148.52C83.291 151.793 84.5884 155.601 84.8298 159.548C84.8344 159.627 84.8691 159.701 84.9268 159.755C84.9844 159.809 85.0606 159.84 85.1398 159.839C85.1809 159.838 85.2213 159.828 85.2585 159.81C85.2958 159.793 85.3292 159.768 85.3568 159.737C85.3843 159.707 85.4056 159.671 85.4192 159.632C85.4328 159.593 85.4386 159.552 85.4361 159.511C85.1832 155.413 83.8234 151.46 81.5017 148.073Z" fill="white"/>
<path d="M202.39 141.04C203.343 140.128 204.432 139.134 204.496 137.821C204.494 137.232 204.311 136.659 203.973 136.177C203.634 135.695 203.157 135.329 202.604 135.127C202.047 134.937 201.457 134.862 200.87 134.907C200.283 134.952 199.711 135.115 199.189 135.386C198.146 135.933 197.218 136.674 196.454 137.57C194.147 140.13 192.477 143.198 191.58 146.526C190.683 149.853 190.585 153.345 191.293 156.718C191.314 156.944 191.383 157.163 191.495 157.361C191.606 157.559 191.758 157.731 191.941 157.867C192.579 158.204 193.308 157.611 193.737 157.037C194.685 155.779 195.4 154.362 195.848 152.852C196.231 151.58 196.057 150.171 196.536 148.972C197.717 146.009 200.124 143.205 202.39 141.04Z" fill="#751F91"/>
<path d="M192.492 156.125C192.56 156.125 192.625 156.098 192.673 156.05C192.721 156.002 192.748 155.937 192.748 155.87C192.778 152.178 193.631 148.539 195.242 145.218C196.854 141.897 199.185 138.976 202.066 136.667C202.109 136.623 202.135 136.564 202.138 136.502C202.141 136.44 202.121 136.38 202.083 136.331C202.044 136.283 201.989 136.25 201.928 136.239C201.868 136.227 201.805 136.239 201.751 136.271C198.812 138.628 196.434 141.61 194.79 145.001C193.146 148.392 192.277 152.106 192.246 155.874C192.247 155.939 192.273 156.002 192.319 156.049C192.365 156.095 192.427 156.122 192.492 156.125Z" fill="white"/>
<path d="M195.615 166.213C197.22 166.729 199.23 166.391 200.174 164.987C201.264 163.337 200.584 160.793 202.043 159.457C202.864 158.714 204.063 158.636 205.148 158.413C206.233 158.19 207.427 157.592 207.596 156.498C207.81 155.044 206.028 153.84 206.279 152.395C206.529 150.95 208.494 150.526 209.078 149.204C209.607 147.996 208.667 146.532 207.427 146.086C206.187 145.639 204.806 145.944 203.571 146.4C202.335 146.856 201.132 147.467 199.823 147.627C198.515 147.786 196.887 147.526 195.889 148.465C194.548 149.715 195.314 152.113 194.279 153.613C193.587 154.625 192.283 154.98 191.284 155.682C190.662 156.133 190.158 156.726 189.813 157.413C189.467 158.099 189.292 158.858 189.301 159.626C189.333 161.285 190.213 162.484 191.462 163.442C192.78 164.454 193.969 165.685 195.615 166.213Z" fill="#751F91"/>
<path opacity="0.3" d="M195.615 166.213C197.22 166.729 199.23 166.391 200.174 164.987C201.264 163.337 200.584 160.793 202.043 159.457C202.864 158.714 204.063 158.636 205.148 158.413C206.233 158.19 207.427 157.592 207.596 156.498C207.81 155.044 206.028 153.84 206.279 152.395C206.529 150.95 208.494 150.526 209.078 149.204C209.607 147.996 208.667 146.532 207.427 146.086C206.187 145.639 204.806 145.944 203.571 146.4C202.335 146.856 201.132 147.467 199.823 147.627C198.515 147.786 196.887 147.526 195.889 148.465C194.548 149.715 195.314 152.113 194.279 153.613C193.587 154.625 192.283 154.98 191.284 155.682C190.662 156.133 190.158 156.726 189.813 157.413C189.467 158.099 189.292 158.858 189.301 159.626C189.333 161.285 190.213 162.484 191.462 163.442C192.78 164.454 193.969 165.685 195.615 166.213Z" fill="black"/>
<path d="M196.34 154.859V154.832C196.582 154.485 196.828 154.144 197.093 153.815C199.466 150.876 202.688 148.74 206.32 147.697C206.385 147.679 206.454 147.687 206.513 147.719C206.572 147.752 206.615 147.806 206.634 147.87C206.643 147.903 206.646 147.937 206.642 147.97C206.638 148.003 206.627 148.035 206.611 148.065C206.594 148.094 206.572 148.119 206.546 148.14C206.519 148.161 206.489 148.176 206.457 148.185C202.934 149.202 199.81 151.277 197.507 154.13C197.435 154.221 197.371 154.317 197.302 154.408C200.17 153.35 203.097 153.952 204.66 155.21C204.702 155.243 204.733 155.288 204.748 155.339C204.763 155.391 204.761 155.445 204.743 155.495C204.726 155.545 204.693 155.589 204.65 155.62C204.606 155.65 204.554 155.667 204.501 155.666C204.442 155.666 204.386 155.645 204.341 155.607C202.796 154.362 199.605 153.811 196.71 155.21C194.903 157.868 193.843 160.962 193.641 164.169C193.637 164.233 193.608 164.293 193.561 164.337C193.513 164.381 193.451 164.406 193.386 164.406C193.353 164.404 193.32 164.396 193.29 164.381C193.26 164.367 193.233 164.346 193.211 164.321C193.189 164.296 193.172 164.267 193.161 164.235C193.151 164.204 193.147 164.17 193.149 164.137C193.353 160.812 194.456 157.606 196.34 154.859Z" fill="white"/>
<path d="M159.667 42.459C159.877 42.3359 160.046 42.459 160.046 42.6778V45.2354C160.039 45.3662 160.001 45.4935 159.935 45.6068C159.869 45.7201 159.778 45.8162 159.667 45.8873C159.458 46.0104 159.289 45.8873 159.289 45.673V43.1155C159.296 42.984 159.334 42.8561 159.4 42.7421C159.466 42.628 159.557 42.531 159.667 42.459Z" fill="#751F91"/>
<path d="M154.802 47.3183C154.845 47.289 154.896 47.2734 154.948 47.2734C155 47.2734 155.051 47.289 155.094 47.3183L156.53 48.4489C156.667 48.5583 156.644 48.8455 156.485 49.0917C156.425 49.1905 156.342 49.2734 156.243 49.3333C156.2 49.3631 156.149 49.3791 156.097 49.3791C156.045 49.3791 155.994 49.3631 155.951 49.3333L154.515 48.2027C154.378 48.0933 154.397 47.8061 154.561 47.5599C154.621 47.4614 154.704 47.3787 154.802 47.3183Z" fill="#751F91"/>
<path d="M153.116 50.6188C153.169 50.5952 153.227 50.5858 153.285 50.5915L155.218 50.7602C155.4 50.7602 155.464 51.0063 155.359 51.2753C155.295 51.4415 155.18 51.5834 155.031 51.6811C154.974 51.7176 154.907 51.7352 154.839 51.7312L152.906 51.5671C152.728 51.5671 152.665 51.3209 152.769 51.0519C152.831 50.8715 152.953 50.7183 153.116 50.6188Z" fill="#751F91"/>
<path d="M155.062 56.9715C155.194 56.894 155.322 56.8986 155.39 56.9989C155.435 57.1125 155.446 57.2367 155.422 57.3564C155.397 57.4761 155.339 57.5863 155.254 57.6736L153.33 60.067C153.278 60.1328 153.215 60.1884 153.143 60.2311C153.011 60.3086 152.883 60.3041 152.81 60.2038C152.766 60.0899 152.756 59.966 152.78 59.8466C152.805 59.7271 152.862 59.617 152.947 59.5291L154.871 57.1356C154.924 57.0697 154.989 57.014 155.062 56.9715Z" fill="#751F91"/>
<path d="M154.42 55.311C154.602 55.2107 154.762 55.2654 154.793 55.4569C154.802 55.5871 154.778 55.7173 154.725 55.8364C154.672 55.9555 154.59 56.0599 154.488 56.1408L152.295 57.8504L152.231 57.8959C152.049 58.0008 151.889 57.9461 151.857 57.7501C151.848 57.6197 151.871 57.4891 151.924 57.3698C151.978 57.2505 152.06 57.1462 152.163 57.0662L154.351 55.3566L154.42 55.311Z" fill="#751F91"/>
<path d="M164.568 41.681C164.603 41.6564 164.644 41.64 164.686 41.6329C164.729 41.6258 164.772 41.6282 164.814 41.64C164.973 41.7038 164.996 41.9637 164.864 42.2281L163.437 45.0136C163.372 45.1469 163.271 45.2592 163.145 45.3373C163.109 45.3608 163.069 45.3766 163.026 45.3837C162.984 45.3908 162.941 45.3889 162.899 45.3783C162.74 45.3145 162.717 45.0501 162.853 44.7857L164.276 42.0047C164.339 41.8706 164.441 41.758 164.568 41.681Z" fill="#751F91"/>
<path d="M162.28 41.4748C162.32 41.4517 162.365 41.4362 162.412 41.4293C162.608 41.3973 162.708 41.5888 162.64 41.8578L161.883 44.698C161.831 44.9012 161.704 45.0771 161.527 45.1904C161.488 45.2148 161.445 45.2318 161.4 45.2405C161.204 45.2724 161.099 45.081 161.172 44.812L161.924 41.9718C161.977 41.7679 162.104 41.5909 162.28 41.4748Z" fill="#751F91"/>
<g opacity="0.2">
<path opacity="0.2" d="M159.667 42.459C159.877 42.3359 160.046 42.459 160.046 42.6778V45.2354C160.039 45.3662 160.001 45.4935 159.935 45.6068C159.869 45.7201 159.778 45.8162 159.667 45.8873C159.458 46.0104 159.289 45.8873 159.289 45.673V43.1155C159.296 42.984 159.334 42.8561 159.4 42.7421C159.466 42.628 159.557 42.531 159.667 42.459Z" fill="black"/>
<path opacity="0.2" d="M154.802 47.3183C154.845 47.289 154.896 47.2734 154.948 47.2734C155 47.2734 155.051 47.289 155.094 47.3183L156.53 48.4489C156.667 48.5583 156.644 48.8455 156.485 49.0917C156.425 49.1905 156.342 49.2734 156.243 49.3333C156.2 49.3631 156.149 49.3791 156.097 49.3791C156.045 49.3791 155.994 49.3631 155.951 49.3333L154.515 48.2027C154.378 48.0933 154.397 47.8061 154.561 47.5599C154.621 47.4614 154.704 47.3787 154.802 47.3183Z" fill="black"/>
<path opacity="0.2" d="M153.116 50.6188C153.169 50.5952 153.227 50.5858 153.285 50.5915L155.218 50.7602C155.4 50.7602 155.464 51.0063 155.359 51.2753C155.295 51.4415 155.18 51.5834 155.031 51.6811C154.974 51.7176 154.907 51.7352 154.839 51.7312L152.906 51.5671C152.728 51.5671 152.665 51.3209 152.769 51.0519C152.831 50.8715 152.953 50.7183 153.116 50.6188Z" fill="black"/>
<path opacity="0.2" d="M155.062 56.9754C155.194 56.8979 155.322 56.9025 155.39 57.0028C155.435 57.1164 155.446 57.2406 155.422 57.3603C155.397 57.48 155.339 57.5902 155.254 57.6775L153.33 60.0709C153.278 60.1367 153.215 60.1923 153.143 60.235C153.011 60.3126 152.883 60.308 152.81 60.2077C152.766 60.0938 152.756 59.97 152.78 59.8505C152.805 59.731 152.862 59.6209 152.947 59.533L154.871 57.1395C154.924 57.0736 154.989 57.0179 155.062 56.9754Z" fill="black"/>
<path opacity="0.2" d="M154.42 55.311C154.602 55.2107 154.762 55.2654 154.793 55.4569C154.802 55.5871 154.778 55.7173 154.725 55.8364C154.672 55.9555 154.59 56.0599 154.488 56.1408L152.295 57.8504L152.231 57.8959C152.049 58.0008 151.889 57.9461 151.857 57.7501C151.848 57.6197 151.871 57.4891 151.924 57.3698C151.978 57.2505 152.06 57.1462 152.163 57.0662L154.351 55.3566L154.42 55.311Z" fill="black"/>
<path opacity="0.2" d="M164.568 41.6849C164.603 41.6603 164.644 41.6439 164.686 41.6368C164.729 41.6297 164.772 41.6321 164.814 41.6439C164.973 41.7077 164.996 41.9676 164.864 42.232L163.437 45.0175C163.372 45.1508 163.271 45.2631 163.145 45.3412C163.109 45.3647 163.069 45.3805 163.026 45.3876C162.984 45.3947 162.941 45.3928 162.899 45.3822C162.74 45.3184 162.717 45.054 162.853 44.7896L164.276 42.0086C164.339 41.8745 164.441 41.7619 164.568 41.6849Z" fill="black"/>
<path opacity="0.2" d="M162.28 41.4748C162.32 41.4517 162.365 41.4362 162.412 41.4293C162.608 41.3973 162.708 41.5888 162.64 41.8578L161.883 44.698C161.831 44.9012 161.704 45.0771 161.527 45.1904C161.488 45.2148 161.445 45.2318 161.4 45.2405C161.204 45.2724 161.099 45.081 161.172 44.812L161.924 41.9718C161.977 41.7679 162.104 41.5909 162.28 41.4748Z" fill="black"/>
</g>
<path d="M160.87 169.861C161.44 170.422 162.12 170.858 162.869 171.14C163.617 171.422 164.417 171.544 165.215 171.497C166.806 171.388 168.362 170.984 169.806 170.307C171.278 169.687 173.12 167.955 174.711 167.987C176.265 167.975 177.816 167.867 179.357 167.663C179.413 165.493 179.191 163.326 178.696 161.212L171.278 161.012C169.277 163.825 165.384 166.163 162.439 167.039C161.983 167.176 161.572 167.434 161.251 167.785C160.93 168.137 160.71 168.569 160.615 169.035C160.613 169.052 160.613 169.069 160.615 169.086C160.668 169.353 160.754 169.614 160.87 169.861Z" fill="#455A64"/>
<path d="M174.712 167.988C173.121 167.956 171.279 169.688 169.806 170.308C168.363 170.985 166.806 171.388 165.215 171.498C164.417 171.545 163.618 171.423 162.869 171.141C162.121 170.859 161.44 170.423 160.871 169.861C160.754 169.615 160.668 169.354 160.615 169.086C160.613 169.07 160.613 169.053 160.615 169.036C160.545 169.37 160.545 169.715 160.615 170.048C160.668 170.316 160.754 170.577 160.871 170.823C161.439 171.386 162.12 171.823 162.869 172.105C163.617 172.387 164.417 172.508 165.215 172.46C166.806 172.352 168.362 171.95 169.806 171.275C171.279 170.655 173.121 168.922 174.712 168.954C176.236 168.966 177.759 168.874 179.271 168.681C179.307 168.343 179.33 168.001 179.344 167.664C177.808 167.867 176.261 167.975 174.712 167.988Z" fill="#37474F"/>
<path d="M194.201 170.331C194.207 171.105 194.132 171.879 193.978 172.638C193.743 173.978 193.008 175.179 191.922 175.998C190.932 176.586 189.804 176.9 188.653 176.909C187.646 177.017 186.628 176.908 185.667 176.59C184.932 176.319 184.313 175.802 183.916 175.127C183.916 175.127 183.916 175.154 183.916 175.168C184.055 175.661 184.31 176.114 184.661 176.488C185.012 176.862 185.447 177.145 185.931 177.315C186.894 177.634 187.914 177.741 188.922 177.63C190.07 177.629 191.196 177.322 192.186 176.741C193.276 175.923 194.011 174.719 194.242 173.376C194.396 172.619 194.471 171.847 194.465 171.074C194.468 170.547 194.576 170.027 194.784 169.543C194.991 169.059 195.294 168.621 195.674 168.257C195.859 168.081 196.034 167.896 196.198 167.7C196.316 167.562 196.405 167.402 196.461 167.229C196.517 167.056 196.537 166.874 196.521 166.693C196.521 166.552 196.494 166.41 196.476 166.273C196.207 166.602 195.564 167.377 195.4 167.532C195.025 167.896 194.726 168.331 194.52 168.811C194.314 169.292 194.206 169.808 194.201 170.331Z" fill="#37474F"/>
<path d="M188.53 162.285C188.77 163.874 188.563 165.498 187.933 166.976C187.31 168.431 186.499 169.798 185.521 171.043C185.041 171.631 184.617 172.263 184.254 172.93C183.902 173.599 183.778 174.364 183.898 175.109C184.296 175.785 184.914 176.302 185.649 176.573C186.61 176.891 187.628 177 188.635 176.892C189.786 176.883 190.914 176.568 191.904 175.98C192.99 175.161 193.725 173.96 193.96 172.62C194.114 171.861 194.189 171.088 194.183 170.313C194.186 169.787 194.294 169.267 194.501 168.783C194.707 168.299 195.009 167.862 195.387 167.496C195.551 167.341 196.194 166.584 196.463 166.238C196.317 165.088 195.94 163.979 195.355 162.978L188.53 162.285Z" fill="#455A64"/>
<path d="M168.629 94.3555L169.19 133.59L171.013 161.053C175.572 164.016 178.9 161.595 178.9 161.595C180.637 148.584 180.87 140.583 179.926 135.153L180.792 113.982L183.373 135.979L187.749 162.926C192.44 166.045 195.755 162.926 195.755 162.926C195.755 152.951 196.621 141.8 193.931 134.606C195.823 112.382 192.668 94.7658 192.668 94.7658L168.629 94.3555Z" fill="#37474F"/>
<path d="M179.818 105.914L180.775 114.002L180.369 123.917L178.61 107.615C174.507 105.978 173.996 103.676 173.996 103.676C175.712 104.909 177.717 105.68 179.818 105.914Z" fill="#263238"/>
<path d="M172.099 49.0107L171.055 48.4636H171.032H170.991C170.905 48.4242 170.811 48.4061 170.717 48.4109C170.622 48.4157 170.531 48.4431 170.449 48.491L161.108 53.8842C160.924 53.99 160.772 54.1422 160.667 54.3255C160.561 54.5087 160.506 54.7166 160.506 54.9282V59.4506C160.505 59.5451 160.527 59.6384 160.569 59.7226C160.612 59.8068 160.675 59.8793 160.752 59.9339C160.788 59.9581 160.826 59.978 160.866 59.9932L161.878 60.5311L161.828 59.706L170.732 54.568C170.915 54.4625 171.068 54.3104 171.175 54.1272C171.281 53.944 171.337 53.7359 171.338 53.524V49.5851L172.099 49.0107Z" fill="#455A64"/>
<path d="M171.802 55.0986L162.461 60.4919C162.369 60.5454 162.264 60.5739 162.158 60.5744C162.052 60.575 161.947 60.5475 161.855 60.4949C161.763 60.4422 161.686 60.3662 161.632 60.2745C161.578 60.1827 161.55 60.0785 161.549 59.9721V55.4451C161.55 55.2338 161.606 55.0265 161.711 54.8434C161.817 54.6604 161.968 54.508 162.151 54.4011L171.519 49.0079C171.611 48.9526 171.716 48.9229 171.823 48.9219C171.931 48.9209 172.036 48.9485 172.129 49.002C172.222 49.0554 172.299 49.1328 172.352 49.226C172.405 49.3192 172.433 49.4249 172.431 49.5322V54.0547C172.429 54.269 172.37 54.4789 172.259 54.6626C172.148 54.8462 171.99 54.9968 171.802 55.0986Z" fill="#455A64"/>
<path d="M162.156 55.4442C162.157 55.3389 162.185 55.2356 162.238 55.1445C162.291 55.0533 162.366 54.9775 162.457 54.9245L171.803 49.5312V54.0537C171.803 54.1598 171.775 54.264 171.723 54.356C171.67 54.448 171.594 54.5246 171.502 54.578L162.161 59.9667L162.156 55.4442Z" fill="#751F91"/>
<path d="M167.741 62.1326C167.867 61.8361 168.078 61.5837 168.348 61.4077C169.14 60.9114 169.744 60.1656 170.066 59.2878C170.328 58.3505 170.472 57.3841 170.495 56.4112C170.521 55.4326 170.867 54.4894 171.48 53.7259C169.82 53.0558 169.145 54.5648 168.544 56.981L162.986 60.1723L163.064 60.3546C163.144 60.5322 163.186 60.7249 163.186 60.9199C163.186 61.1149 163.144 61.3077 163.064 61.4853L161.445 64.7722C162.229 65.3325 163.143 65.6832 164.101 65.7909C165.058 65.8986 166.027 65.7598 166.916 65.3877C167.125 64.2871 167.401 63.2001 167.741 62.1326Z" fill="#FFA8A7"/>
<path d="M166.62 68.7908C166.912 67.61 167.263 66.0554 167.491 64.6878C166.462 65.0466 165.366 65.1666 164.285 65.0386C163.203 64.9106 162.165 64.5381 161.249 63.9492C160.59 65.0642 160 66.2183 159.48 67.4049C160.48 68.1773 161.646 68.7049 162.886 68.9456C164.125 69.1863 165.404 69.1332 166.62 68.7908Z" fill="#E0E0E0"/>
<path d="M166.104 70.7595C166.104 70.7595 166.332 69.948 166.619 68.79C165.402 69.1305 164.123 69.1813 162.883 68.9383C161.643 68.6952 160.478 68.1651 159.48 67.3904C157.908 71.0319 156.937 74.904 156.603 78.8561C156.453 80.0104 156.51 81.1821 156.772 82.3164C156.908 82.8834 157.165 83.4145 157.524 83.8738C157.884 84.3331 158.338 84.7099 158.855 84.9788C160.328 85.6535 162.092 85.07 163.414 84.1536C165.926 82.4303 167.517 79.6813 168.999 77.028L173.043 62.5898C170.649 62.8543 168.689 64.1991 166.104 70.7595Z" fill="#F0F0F0"/>
<path opacity="0.1" d="M166.104 70.7578C165.155 74.1132 163.674 79.4699 163.674 79.4699C167.047 76.0416 166.104 70.7578 166.104 70.7578Z" fill="black"/>
<path opacity="0.1" d="M172.459 64.7227C171.227 65.5623 170.195 66.6627 169.437 67.9458C168.114 70.2253 167.727 72.8786 167.367 75.4772C167.112 77.3008 166.858 79.1243 166.605 80.9479C167.482 79.6894 168.285 78.3819 169.013 77.0318L172.459 64.7227Z" fill="black"/>
<path d="M177.368 62.1484L173.056 62.6043C169.522 65.7181 167.699 72.251 168.46 79.4724C168.908 84.4234 168.964 89.402 168.629 94.3619C178.203 101.355 191.164 96.2766 192.682 94.7585L191.455 85.8914C191.379 84.8956 191.545 83.8961 191.939 82.9782C192.85 80.8765 194.455 76.7462 194.674 73.5458C194.811 70.6944 194.216 67.8554 192.946 65.2987L186.678 62.5633L177.368 62.1484Z" fill="#F0F0F0"/>
<path opacity="0.1" d="M191.94 82.9587C192.738 81.1078 194.082 77.684 194.538 74.707C193.649 75.245 192.715 75.7738 192.341 76.6583C191.159 79.5165 190.85 82.6604 191.452 85.6941C191.404 84.7571 191.571 83.8215 191.94 82.9587Z" fill="black"/>
<path fill-rule="evenodd" clip-rule="evenodd" d="M176.174 68.4334C175.996 67.3981 175.944 66.3448 176.019 65.2969H177.515L179.666 66.0765C179.089 67.0507 178.363 67.929 177.515 68.6796C177.493 68.6817 177.471 68.6835 177.45 68.685L177.515 68.6978C177.077 74.2774 176.966 79.8777 177.182 85.4702L174.397 89.1173L172.623 85.3015C172.623 85.3015 172.564 76.7353 176.174 68.4335C176.174 68.4335 176.174 68.4335 176.174 68.4334Z" fill="#751F91"/>
<path d="M177.516 65.2973C179.371 65.9811 181.021 69.2864 181.021 69.2864C185.9 65.1469 186.661 62.5619 186.661 62.5619C185.407 60.7794 184.039 60.4922 184.039 60.4922L177.516 65.2973Z" fill="#E0E0E0"/>
<path d="M177.514 65.2984C176.097 65.3394 174.843 67.3134 174.843 67.3134C174.615 63.8577 177.514 61.1953 177.514 61.1953V65.2984Z" fill="#E0E0E0"/>
<path d="M184.153 56.6211L177.516 58.9917V61.449C179.009 61.2374 180.442 60.7173 181.724 59.9218C182.87 59.1145 183.723 57.9559 184.153 56.6211Z" fill="#F28F8F"/>
<path d="M184.153 56.6211C183.723 57.956 182.87 59.1145 181.724 59.9218C180.442 60.7174 179.009 61.2375 177.516 61.4491V65.2968C177.516 65.2968 184.532 62.1466 184.532 60.6649V56.4844L184.153 56.6211Z" fill="#FFA8A7"/>
<path d="M171.364 46.8889C170.626 46.9162 169.895 46.739 169.252 46.377C168.608 46.015 168.077 45.4822 167.717 44.8374C167.67 44.7452 167.649 44.6416 167.658 44.5383C167.667 44.4351 167.705 44.3364 167.767 44.2536C167.83 44.1708 167.914 44.1073 168.011 44.0702C168.107 44.0332 168.213 44.0241 168.314 44.0441C168.822 44.1353 169.343 44.1353 169.851 44.0441C169.266 43.2791 168.838 42.4059 168.593 41.4747C168.347 40.5436 168.288 39.573 168.419 38.619C168.436 38.5126 168.477 38.4114 168.539 38.3238C168.602 38.2361 168.684 38.1643 168.779 38.1142C168.875 38.0641 168.981 38.037 169.088 38.0353C169.196 38.0335 169.302 38.0569 169.399 38.1038C171.513 39.1477 173.863 39.6193 176.215 39.4715C177.469 39.3849 178.704 39.1159 179.958 39.0156C181.212 38.8641 182.485 39.0579 183.637 39.5764C184.207 39.8439 184.695 40.2604 185.048 40.782C185.401 41.3036 185.606 41.9109 185.643 42.5397C185.786 42.3373 185.972 42.1682 186.187 42.0439C186.401 41.9196 186.64 41.843 186.888 41.8194C187.146 41.7889 187.407 41.8112 187.656 41.8849C187.906 41.9586 188.137 42.0821 188.337 42.2479C187.612 42.6491 186.906 43.0503 186.181 43.4469C186.924 43.1825 187.859 43.7615 188.228 44.459C188.541 45.1856 188.677 45.9763 188.624 46.7658C188.669 47.8119 188.621 48.8599 188.483 49.8978C188.346 50.9425 187.938 51.9329 187.298 52.7699C186.735 53.4579 185.984 53.9666 185.137 54.2334C183.985 54.5513 182.764 54.5116 181.636 54.1194C180.508 53.7297 179.436 53.1965 178.444 52.5329C175.918 50.8701 173.548 48.981 171.364 46.8889Z" fill="#263238"/>
<path d="M171.206 44.8018C170.477 49.1391 170.95 53.5931 172.573 57.6807C172.947 58.6244 173.44 59.6001 174.32 60.1061C175.199 60.6121 176.389 60.521 177.442 60.3614C179.15 60.1765 180.816 59.7145 182.375 58.9937C183.946 58.2541 185.169 56.9358 185.79 55.3147C186.348 55.4286 186.928 55.3787 187.458 55.1708C187.989 54.9629 188.448 54.606 188.781 54.143C189.437 53.181 189.776 52.0383 189.752 50.8743C189.752 50.1357 189.615 49.2649 188.949 48.9413C188.284 48.6176 187.582 48.9777 187.057 49.3972C186.188 50.1158 185.553 51.0779 185.234 52.1599C184.746 50.3637 183.985 48.6267 183.497 46.8259C183.305 46.1147 183.068 45.3443 182.448 44.9476C181.696 44.4644 180.711 44.7425 179.84 44.9476C176.997 45.6339 174.025 45.5837 171.206 44.8018Z" fill="#FFA8A7"/>
<path d="M176.454 50.2617L174.348 53.8086L176.86 54.2781L176.454 50.2617Z" fill="#F28F8F"/>
<path d="M179.27 55.5L177.359 56.4118C177.523 56.6288 177.753 56.7867 178.015 56.8615C178.276 56.9364 178.555 56.9241 178.809 56.8266C179.024 56.6892 179.186 56.4837 179.269 56.2431C179.353 56.0024 179.353 55.7407 179.27 55.5Z" fill="#F28F8F"/>
<path opacity="0.3" d="M179.27 55.5L177.359 56.4118C177.523 56.6288 177.753 56.7867 178.015 56.8615C178.276 56.9364 178.555 56.9241 178.809 56.8266C179.024 56.6892 179.186 56.4837 179.269 56.2431C179.353 56.0024 179.353 55.7407 179.27 55.5Z" fill="black"/>
<path d="M178.152 56.8988C178.375 56.9444 178.607 56.9238 178.818 56.8396C178.992 56.7398 179.133 56.5911 179.223 56.412C179.313 56.2328 179.348 56.0311 179.324 55.832C179.053 55.8319 178.789 55.9235 178.576 56.0919C178.336 56.2958 178.184 56.5851 178.152 56.8988Z" fill="#F28F8F"/>
<path d="M180.091 50.4043C180.1 50.4986 180.091 50.5938 180.064 50.6846C180.037 50.7754 179.992 50.8599 179.932 50.9334C179.872 51.0068 179.798 51.0677 179.715 51.1127C179.631 51.1576 179.54 51.1857 179.445 51.1952C179.351 51.2048 179.256 51.1957 179.165 51.1685C179.074 51.1413 178.99 51.0964 178.916 51.0365C178.843 50.9766 178.782 50.9028 178.737 50.8194C178.692 50.7359 178.664 50.6445 178.654 50.5502C178.644 50.4561 178.653 50.3609 178.68 50.2702C178.707 50.1795 178.752 50.095 178.811 50.0217C178.871 49.9484 178.945 49.8876 179.028 49.8429C179.112 49.7983 179.203 49.7706 179.297 49.7615C179.488 49.7423 179.678 49.7991 179.826 49.9195C179.975 50.0399 180.07 50.2142 180.091 50.4043Z" fill="#263238"/>
<path d="M174.047 50.7838C174.06 50.9253 174.032 51.0676 173.965 51.1929C173.897 51.3182 173.795 51.4208 173.669 51.4879C173.544 51.5549 173.402 51.5834 173.26 51.5696C173.119 51.5559 172.984 51.5006 172.874 51.4107C172.764 51.3209 172.683 51.2004 172.641 51.0646C172.599 50.9287 172.599 50.7835 172.639 50.6472C172.68 50.511 172.76 50.3898 172.869 50.2989C172.978 50.208 173.112 50.1515 173.253 50.1364C173.444 50.1173 173.635 50.1747 173.784 50.2961C173.933 50.4175 174.027 50.5928 174.047 50.7838Z" fill="#263238"/>
<path d="M173.057 47.9986L171.579 49.2568C171.491 49.0675 171.462 48.8556 171.497 48.6495C171.532 48.4433 171.629 48.2528 171.776 48.1034C171.958 47.9677 172.174 47.8859 172.401 47.8673C172.627 47.8488 172.855 47.8943 173.057 47.9986Z" fill="#263238"/>
<path d="M179.193 47.2899C179.759 47.6044 180.324 47.919 180.894 48.229C180.943 48.0251 180.929 47.8112 180.853 47.6157C180.777 47.4202 180.643 47.2524 180.47 47.1348C180.263 47.0405 180.035 47.0051 179.81 47.0324C179.584 47.0598 179.371 47.1489 179.193 47.2899Z" fill="#263238"/>
<path d="M207.59 80.8747L209.869 79.7441C210.583 79.3911 211.178 78.8363 211.579 78.1485L212.295 76.9221C212.789 76.0817 213.518 75.4036 214.392 74.9709C215.706 74.3253 216.932 73.5132 218.039 72.5547C218.271 72.9245 218.369 73.363 218.315 73.7964C218.262 74.2297 218.062 74.6316 217.747 74.9345C217.277 75.3655 216.777 75.7631 216.252 76.1243L217.351 76.4024C218.144 76.6059 218.981 76.5549 219.744 76.2565L222.881 75.0393C222.971 75.0051 223.068 74.9952 223.163 75.0107C223.258 75.0262 223.347 75.0665 223.422 75.1276C223.496 75.1887 223.553 75.2683 223.587 75.3585C223.621 75.4486 223.63 75.5461 223.615 75.6411C223.325 77.0318 222.799 78.3626 222.06 79.5755C221.72 80.1557 221.259 80.656 220.708 81.0422C220.157 81.4284 219.53 81.6916 218.869 81.8139C217.268 82.1148 215.718 82.3518 214.839 82.4749C214.334 82.5502 213.845 82.7041 213.389 82.9308L210.024 84.604L207.59 80.8747Z" fill="#FFA8A7"/>
<path d="M205.411 84.4014C205.013 83.4615 204.874 82.4317 205.01 81.4199L200.697 83.4623C199.919 80.3243 199.31 77.1467 198.873 73.9432C198.363 69.6168 198.477 66.7082 192.91 65.2812L192.322 76.6786C192.322 76.6786 193.006 90.5833 196.995 92.1243C200.296 93.3962 202.625 90.2551 207.663 87C206.663 86.3866 205.876 85.479 205.411 84.4014Z" fill="#F0F0F0"/>
<path opacity="0.1" d="M197.83 86.3088C197.98 85.6614 199.042 84.1798 200.715 83.4595C200.715 83.4595 200.588 82.9534 200.401 82.1328C199.535 82.5614 197.401 83.8698 197.83 86.3088Z" fill="black"/>
<path d="M208.867 79.5859L205.01 81.4095C204.859 82.4991 205.032 83.6091 205.507 84.6013C205.982 85.5935 206.738 86.4241 207.682 86.9896C208.816 86.2558 209.991 85.5876 211.201 84.9883C211.201 84.9883 209.15 83.3471 208.867 79.5859Z" fill="#E0E0E0"/>
<path d="M224.66 23.8922C224.66 23.7891 224.632 23.6878 224.58 23.5988C224.528 23.5099 224.453 23.4364 224.363 23.3861L221.728 21.9227H221.705C221.619 21.8735 221.522 21.8477 221.423 21.8477C221.324 21.8477 221.226 21.8735 221.14 21.9227L203.123 32.3262C202.856 32.482 202.635 32.7049 202.48 32.9728C202.326 33.2407 202.244 33.5443 202.243 33.8534V40.5505L196.007 47.0014C195.451 47.5804 195.391 48.4511 195.824 48.5879L198.309 49.9556C198.353 50.0001 198.407 50.0332 198.467 50.0523C198.526 50.0713 198.589 50.0757 198.651 50.065L202.271 49.6091V54.5237C202.27 54.6253 202.296 54.7253 202.346 54.8135C202.397 54.9017 202.47 54.9747 202.558 55.0251L205.175 56.4794H205.211H205.239C205.323 56.5195 205.417 56.5383 205.51 56.5344C205.604 56.5304 205.695 56.5037 205.777 56.4566L223.793 46.0531C224.062 45.8991 224.285 45.6766 224.44 45.4083C224.594 45.14 224.675 44.8355 224.673 44.5259L224.66 23.8922ZM205.348 34.127L205.289 34.1954L205.348 34.127ZM205.179 34.3458L205.134 34.4096L205.179 34.3458ZM204.929 34.9339C204.926 34.9597 204.926 34.9856 204.929 35.0114C204.926 34.9856 204.926 34.9597 204.929 34.9339ZM205.48 34.0221C205.5 34.0026 205.522 33.9843 205.544 33.9674C205.522 33.9769 205.501 33.9876 205.48 33.9993V34.0221Z" fill="#751F91"/>
<path d="M218.478 30.3741C218.398 30.4145 218.326 30.4702 218.268 30.5382C218.222 30.5935 218.186 30.6569 218.163 30.7252C217.967 31.12 217.8 31.5283 217.662 31.947C217.511 32.3162 217.37 32.6855 217.242 33.0593C217.208 33.1258 217.182 33.1962 217.165 33.269C217.121 33.3578 217.088 33.4511 217.064 33.5471C216.982 33.7568 216.9 33.962 216.823 34.1717C216.791 34.231 216.763 34.2857 216.736 34.345C216.655 34.5185 216.587 34.6984 216.535 34.8829C216.501 34.9619 216.488 35.0485 216.498 35.1341C216.507 35.2197 216.539 35.3013 216.59 35.3707C216.787 35.5572 217.029 35.6892 217.292 35.7537L217.361 35.7765L217.579 35.8357L217.958 36.0226L218.031 36.0682C218.054 36.1001 218.081 36.1275 218.104 36.1548C218.128 36.1884 218.148 36.2253 218.163 36.2643C218.177 36.3257 218.177 36.3897 218.163 36.4512C218.14 36.5424 218.117 36.6381 218.099 36.7293C218.081 36.8205 217.985 37.0393 217.931 37.1852L217.848 37.3858L217.566 38.0514C217.47 38.2656 217.402 38.4434 217.333 38.6212C217.267 38.748 217.209 38.879 217.16 39.0133L217.064 39.2093C216.987 39.3735 216.905 39.5376 216.827 39.7063L216.759 39.8521L216.504 40.308L216.408 40.4904L216.111 41.0101L216.034 41.1423L215.742 41.6985L215.651 41.8353L214.967 42.8291L214.694 43.1984L214.616 43.3033L213.782 44.3609L213.463 44.6618C213.402 44.7344 213.33 44.796 213.248 44.8442C213.197 44.8761 213.138 44.893 213.078 44.893C213.017 44.893 212.958 44.8761 212.907 44.8442L212.701 44.7393C212.701 44.7074 212.674 44.7029 212.651 44.6983C212.368 44.4494 212.063 44.2266 211.739 44.0327C211.679 43.9942 211.608 43.9737 211.537 43.9737C211.465 43.9737 211.394 43.9942 211.334 44.0327C211.296 44.0551 211.261 44.0811 211.229 44.1102C211.092 44.2238 210.974 44.3576 210.878 44.5068C210.842 44.5288 210.814 44.5626 210.8 44.6026C210.55 44.9536 210.271 45.2682 210.012 45.6055C209.752 45.9429 209.533 46.1663 209.3 46.458C209.168 46.6085 209.041 46.7635 208.917 46.9139C208.794 47.0644 208.639 47.2559 208.507 47.4428C208.454 47.5035 208.407 47.5691 208.366 47.6388C208.299 47.7143 208.249 47.8038 208.221 47.9008C208.193 47.9977 208.186 48.0998 208.202 48.1996C208.203 48.3218 208.213 48.4438 208.234 48.5643C208.243 48.7201 208.275 48.8737 208.329 49.0202C208.343 49.1164 208.371 49.2101 208.411 49.2983C208.425 49.3266 208.44 49.354 208.457 49.3803C208.452 49.4013 208.452 49.4231 208.457 49.4441C208.471 49.4702 208.488 49.4946 208.507 49.5171C208.517 49.55 208.535 49.5804 208.557 49.6064C208.58 49.6323 208.608 49.6531 208.639 49.6675C208.682 49.725 208.738 49.7705 208.804 49.7997L208.917 49.8453H208.995L209.091 49.8818H209.136C209.189 49.8933 209.243 49.8933 209.296 49.8818C209.308 49.8886 209.321 49.8922 209.335 49.8922C209.348 49.8922 209.362 49.8886 209.373 49.8818C209.439 49.8979 209.508 49.8979 209.574 49.8818C209.646 49.8976 209.721 49.8976 209.793 49.8818C209.865 49.8929 209.939 49.8929 210.012 49.8818H210.144C210.248 49.8715 210.35 49.8501 210.449 49.818H210.499L210.609 49.7906C210.637 49.786 210.663 49.7751 210.686 49.7587L210.8 49.7177C210.915 49.6844 211.026 49.6417 211.133 49.59L211.224 49.5444L211.297 49.5034C211.362 49.4678 211.424 49.4282 211.484 49.3849C211.558 49.3416 211.63 49.2945 211.698 49.2436C211.78 49.1883 211.86 49.129 211.936 49.0658C212.002 49.0202 212.071 48.97 212.141 48.9153L212.223 48.8424L212.264 48.8059L212.378 48.7102C212.496 48.6082 212.608 48.5002 212.715 48.3865C212.804 48.3146 212.886 48.2353 212.961 48.1494C212.99 48.1292 213.013 48.1026 213.03 48.0719C213.193 47.9313 213.345 47.7789 213.486 47.616C213.608 47.509 213.723 47.3948 213.832 47.2741C213.924 47.1928 214.009 47.1044 214.087 47.0097L214.229 46.8638C214.271 46.832 214.307 46.7916 214.334 46.7453C214.356 46.7329 214.373 46.7137 214.384 46.6905L214.461 46.6176C214.503 46.571 214.543 46.5224 214.58 46.4717C214.662 46.3895 214.74 46.3027 214.812 46.2119L214.885 46.1207L214.958 46.0295C215.103 45.8703 215.238 45.7029 215.364 45.528C215.431 45.4618 215.49 45.3866 215.537 45.3046C215.622 45.2088 215.7 45.1067 215.77 44.9992C215.887 44.8541 215.995 44.7019 216.093 44.5433C216.157 44.4612 216.184 44.4202 216.216 44.3837L216.298 44.2652C216.358 44.1831 216.408 44.1011 216.463 44.0145L216.567 43.8731C216.6 43.8246 216.631 43.7744 216.659 43.7227C216.727 43.638 216.787 43.5463 216.836 43.4491C216.923 43.3329 217.002 43.211 217.073 43.0844C217.1 43.0498 217.125 43.0132 217.146 42.975C217.159 42.9578 217.169 42.9395 217.178 42.9203L217.21 42.861L217.288 42.7516C217.361 42.6377 217.429 42.5237 217.493 42.4006L217.584 42.2501L217.871 41.7532C217.912 41.7056 217.944 41.6517 217.967 41.5937C218.04 41.4751 218.108 41.3566 218.177 41.2289C218.177 41.1879 218.218 41.1469 218.241 41.1059C218.279 41.0503 218.311 40.9907 218.336 40.9281L218.582 40.4722C218.623 40.3855 218.669 40.3035 218.71 40.2169C218.78 40.1025 218.84 39.9819 218.888 39.8567C219.084 39.4965 219.257 39.1318 219.417 38.758L219.49 38.5893C219.558 38.4587 219.616 38.3231 219.663 38.1836C219.85 37.7653 220.016 37.3377 220.16 36.9025L220.201 36.7931C220.296 36.5472 220.377 36.2961 220.442 36.0409C220.543 35.7309 220.625 35.4254 220.702 35.1291C220.73 35.0288 220.757 34.9285 220.78 34.8236C220.801 34.7947 220.811 34.759 220.807 34.7233C220.809 34.699 220.809 34.6747 220.807 34.6504L220.844 34.5136C220.956 34.1429 221.044 33.7652 221.108 33.383V33.3237C221.116 33.2908 221.116 33.2564 221.108 33.2235C221.108 33.2235 221.108 33.1824 221.108 33.1642C221.108 33.146 221.108 33.0912 221.108 33.0593C221.106 33.0214 221.106 32.9833 221.108 32.9454C221.137 32.7844 221.151 32.6211 221.149 32.4576C221.149 32.3937 221.149 32.3253 221.149 32.257C221.161 32.2106 221.161 32.162 221.149 32.1156C221.149 32.0928 221.149 32.0655 221.149 32.0381C221.148 31.8953 221.123 31.7537 221.076 31.6187C221.04 31.4162 220.976 31.2197 220.885 31.0352C220.779 30.736 220.611 30.4626 220.392 30.2328C220.335 30.1478 220.254 30.0813 220.16 30.0413C220.16 30.0413 220.137 30.0048 220.11 30.0094C220.034 29.9519 219.94 29.9228 219.845 29.9273C219.558 29.9161 219.273 29.9658 219.006 30.0732L218.911 30.1143C218.828 30.1348 218.749 30.1654 218.674 30.2054L218.628 30.2328C218.605 30.3012 218.537 30.3285 218.478 30.3741Z" fill="white"/>
<path opacity="0.1" d="M204.942 56.0135C204.942 56.1133 204.967 56.2117 205.016 56.2988C205.064 56.386 205.135 56.4589 205.22 56.5104L202.604 55.0561C202.515 55.0057 202.442 54.9326 202.392 54.8445C202.341 54.7563 202.315 54.6562 202.316 54.5546V49.6401L204.947 49.3164L204.942 56.0135Z" fill="black"/>
<path opacity="0.2" d="M203.123 32.3262L221.145 21.9227C221.231 21.8735 221.328 21.8477 221.427 21.8477C221.527 21.8477 221.624 21.8735 221.71 21.9227H221.733L224.368 23.3861C224.279 23.3358 224.178 23.3093 224.076 23.3093C223.974 23.3093 223.873 23.3358 223.784 23.3861L205.763 33.7896C205.428 33.9814 205.166 34.2777 205.015 34.633L202.398 33.124C202.55 32.7884 202.804 32.5093 203.123 32.3262Z" fill="white"/>
<path opacity="0.1" d="M202.262 40.558V33.8609C202.262 33.6125 202.314 33.367 202.417 33.1406L205.015 34.6314C204.928 34.8473 204.883 35.0779 204.883 35.3107V42.0078L202.262 40.558Z" fill="white"/>
<path opacity="0.05" d="M196.024 47.0004L202.261 40.5586L204.901 42.0266L198.664 48.4729C198.181 48.9744 198.071 49.6901 198.327 49.9682L195.842 48.6006C195.409 48.4501 195.468 47.5794 196.024 47.0004Z" fill="white"/>
<path d="M143.151 1.76221L88.9734 33.0546C88.1162 33.5485 87.3982 34.2516 86.8864 35.0982C86.3746 35.9448 86.0858 36.9074 86.0469 37.8959V155.549C86.0469 157.535 87.2718 159.851 88.781 160.724C90.2903 161.598 92.9074 161.498 94.634 160.507L148.602 129.348C149.506 128.757 150.259 127.962 150.799 127.026C151.339 126.091 151.652 125.042 151.713 123.964V6.71632C151.713 4.73467 150.488 2.41857 148.975 1.54481C147.461 0.671047 144.869 0.771383 143.151 1.76221Z" fill="#37474F"/>
<path d="M93.9108 160.878C92.2385 161.526 90.1147 161.493 88.8103 160.74C87.3011 159.866 86.0762 157.55 86.0762 155.565V37.8782C86.108 36.9369 86.3785 36.0191 86.8621 35.2109L91.8999 38.0705C91.0282 39.0847 90.5179 40.3596 90.4492 41.6952V158.09C90.4283 160.477 91.9375 161.61 93.9108 160.878Z" fill="#263238"/>
<path d="M93.1546 36.9345C92.3575 37.457 91.6941 38.1593 91.2177 38.9849C90.7414 39.8105 90.4655 40.7363 90.4121 41.688V158.091C90.4121 160.771 92.3101 161.853 94.6304 160.528L148.607 129.365C149.511 128.774 150.263 127.979 150.804 127.043C151.344 126.108 151.657 125.059 151.718 123.981V6.71652C151.718 4.74323 150.317 3.93218 148.607 4.923L93.1546 36.9345Z" fill="#455A64"/>
<path d="M95.985 44.6135C95.1248 45.174 94.4088 45.9295 93.8952 46.8186C93.3817 47.7077 93.085 48.7054 93.0293 49.7307V148.746C93.0293 150.632 94.3546 151.397 95.985 150.456L146.759 121.137C147.619 120.574 148.334 119.818 148.848 118.928C149.361 118.039 149.658 117.041 149.715 116.015V17.0001C149.715 15.1229 148.386 14.3579 146.759 15.2943L95.985 44.6135Z" fill="#37474F"/>
<path d="M145.974 113.553V15.75L95.985 44.5967C95.1248 45.1573 94.4088 45.9127 93.8952 46.8018C93.3817 47.691 93.085 48.6886 93.0293 49.7139V147.542L143.018 118.695C143.879 118.13 144.596 117.37 145.11 116.477C145.623 115.584 145.919 114.582 145.974 113.553Z" fill="#751F91"/>
<path opacity="0.6" d="M145.974 113.553V15.75L95.985 44.5967C95.1248 45.1573 94.4088 45.9127 93.8952 46.8018C93.3817 47.691 93.085 48.6886 93.0293 49.7139V147.542L143.018 118.695C143.879 118.13 144.596 117.37 145.11 116.477C145.623 115.584 145.919 114.582 145.974 113.553Z" fill="white"/>
<path d="M117.138 27.1692L126.139 21.9726C126.674 21.6632 127.109 21.8806 127.109 22.4659C127.085 22.792 126.984 23.1079 126.816 23.3882C126.647 23.6685 126.416 23.9053 126.139 24.0797L117.138 29.293C116.603 29.6066 116.168 29.385 116.168 28.8039C116.189 28.4741 116.288 28.1541 116.456 27.8699C116.625 27.5858 116.859 27.3456 117.138 27.1692Z" fill="black"/>
<path d="M132.581 18.2367C133.083 17.9482 133.493 18.1823 133.493 18.7634C133.475 19.0798 133.384 19.3876 133.225 19.6621C133.067 19.9366 132.846 20.1701 132.581 20.3437C132.075 20.6322 131.67 20.3981 131.67 19.817C131.687 19.5005 131.778 19.1924 131.937 18.9178C132.095 18.6432 132.316 18.4098 132.581 18.2367Z" fill="black"/>
<path d="M136.214 16.1338C136.716 15.8412 137.126 16.0753 137.126 16.6606C137.108 16.9765 137.017 17.2838 136.858 17.5577C136.7 17.8315 136.479 18.0642 136.214 18.2367C135.712 18.5293 135.303 18.2952 135.303 17.7099C135.32 17.394 135.411 17.0867 135.57 16.8128C135.728 16.5389 135.949 16.3063 136.214 16.1338Z" fill="black"/>
<path d="M107.046 32.9846C107.552 32.692 107.962 32.9303 107.962 33.5114C107.945 33.8278 107.853 34.1356 107.694 34.4096C107.534 34.6836 107.313 34.916 107.046 35.0875C106.544 35.3801 106.135 35.146 106.135 34.5649C106.151 34.2483 106.243 33.9401 106.401 33.6655C106.559 33.3908 106.78 33.1575 107.046 32.9846Z" fill="black"/>
<path d="M110.712 30.8773C111.218 30.5888 111.628 30.823 111.628 31.4041C111.61 31.7205 111.519 32.0285 111.361 32.303C111.202 32.5775 110.982 32.811 110.716 32.9844C110.21 33.277 109.801 33.0387 109.801 32.4576C109.818 32.1412 109.91 31.8334 110.068 31.5589C110.227 31.2844 110.447 31.051 110.712 30.8773Z" fill="black"/>
<path d="M145.972 103.29V113.562C145.871 115.307 145.087 116.943 143.789 118.115C143.552 118.33 143.293 118.521 143.016 118.683L142.067 119.222C137.769 115.644 134.508 112.905 134.508 112.905C127.108 104.168 127.961 97.5832 128.864 97.5079C128.969 97.5079 129.149 97.4578 129.399 97.4034C131.793 96.9255 134.263 96.9878 136.63 97.586C138.996 98.1841 141.199 99.3029 143.079 100.861C143.793 101.425 144.784 102.27 145.972 103.29Z" fill="#FFA8A7"/>
<path d="M143.79 118.106C143.553 118.322 143.293 118.513 143.017 118.675L142.068 119.223L103.421 141.535C102.209 136.894 100.211 129.206 100.186 129.068C100.186 128.997 104.554 122.471 104.851 114.854C105.148 107.237 103.028 103.896 102.343 103.148C102.652 103.023 109.542 101.083 109.542 101.083L123.28 98.3402L129.383 97.3828C129.383 97.3828 137.661 101.438 142.181 110.502C143.412 112.838 143.969 115.471 143.79 118.106Z" fill="#751F91"/>
<path opacity="0.2" d="M143.79 118.106C143.553 118.322 143.293 118.513 143.017 118.675L142.068 119.223L103.421 141.535C102.209 136.894 100.211 129.206 100.186 129.068C100.186 128.997 104.554 122.471 104.851 114.854C105.148 107.237 103.028 103.896 102.343 103.148C102.652 103.023 109.542 101.083 109.542 101.083L123.28 98.3402L129.383 97.3828C129.383 97.3828 137.661 101.438 142.181 110.502C143.412 112.838 143.969 115.471 143.79 118.106Z" fill="black"/>
<path d="M102.351 103.152C98.2203 103.612 95.4527 105.581 93.0195 109.708V147.539L98.8181 144.194L104.207 129.562C104.207 129.562 110.846 107.63 102.351 103.152Z" fill="#FFA8A7"/>
<path d="M108.994 95.8898C109.14 95.3755 107.924 93.6991 107.652 93.235C107.121 92.3236 106.536 91.4415 105.925 90.5803C104.633 88.7659 103.417 86.9096 102.087 85.1454C100.581 83.2396 99.3006 81.1661 98.2704 78.9663C96.987 76.0817 96.3431 72.8333 96.9577 69.7354C97.5723 66.6375 99.5664 63.7319 102.468 62.4819C103.722 56.4492 109.115 51.5076 115.24 50.776C121.582 50.0151 128.3 53.3722 134.421 50.5335C135.182 50.1781 135.922 49.6974 136.758 49.6263C138.627 49.4382 140.182 51.3236 140.357 53.1966C140.533 55.0695 139.714 56.8756 138.923 58.5771C139.646 58.7998 140.289 59.2263 140.776 59.8054C141.262 60.3845 141.571 61.0916 141.665 61.8419C141.76 62.5922 141.636 63.3538 141.308 64.0353C140.98 64.7169 140.463 65.2894 139.818 65.6843C140.867 68.4143 139.839 71.6209 137.878 73.7865C135.918 75.9521 133.167 77.2397 130.395 78.172C127.623 79.1043 124.747 79.7481 122.067 80.9062C118.923 82.2933 116.123 84.3544 113.864 86.9436C111.604 89.5329 109.942 92.5869 108.994 95.8898Z" fill="#263238"/>
<path d="M133.288 61.9023C134.726 63.3656 137.627 66.8732 137.305 79.6076C137.029 90.4021 133.543 93.061 131.766 93.8219C129.989 94.5828 126.619 94.1104 123.329 93.5543V98.822C123.329 98.822 127.999 102.062 129.182 105.005C130.094 107.305 124.274 110.499 115.44 106.678C111.828 105.122 108.91 101.155 108.91 101.155L109.031 85.565C109.031 85.565 107.087 87.4422 103.81 84.5617C101.101 82.1829 100.193 78.1819 102.313 76.0372C104.433 73.8926 108.342 74.4904 109.838 77.5548C109.838 77.5548 115.754 78.044 122.757 74.2103C129.759 70.3766 132.794 66.083 133.288 61.9023Z" fill="#FFA8A7"/>
<path d="M125.081 77.6793C125.082 77.9456 125.005 78.2065 124.859 78.4295C124.714 78.6524 124.506 78.8276 124.261 78.9333C124.017 79.039 123.747 79.0705 123.484 79.0239C123.222 78.9773 122.979 78.8547 122.786 78.6712C122.593 78.4878 122.458 78.2516 122.398 77.9921C122.338 77.7326 122.356 77.4612 122.449 77.2116C122.542 76.962 122.706 76.7453 122.921 76.5884C123.137 76.4314 123.393 76.3412 123.659 76.3289C123.842 76.3228 124.023 76.353 124.194 76.4178C124.365 76.4826 124.521 76.5807 124.653 76.7064C124.785 76.8321 124.891 76.9828 124.965 77.1498C125.038 77.3169 125.077 77.4968 125.081 77.6793Z" fill="#263238"/>
<path d="M124.043 85.6758L129.135 86.5997C129.09 86.9385 128.976 87.2647 128.802 87.5587C128.628 87.8527 128.396 88.1086 128.12 88.3111C127.845 88.5136 127.531 88.6586 127.199 88.7373C126.866 88.8161 126.521 88.827 126.184 88.7695C125.496 88.6314 124.888 88.2318 124.489 87.6548C124.09 87.0777 123.93 86.3683 124.043 85.6758Z" fill="#B16668"/>
<path d="M126.181 88.7708C126.524 88.8314 126.876 88.82 127.214 88.7373C127.189 88.165 126.945 87.6243 126.531 87.2279C126.117 86.8315 125.567 86.6099 124.994 86.6094C124.687 86.6087 124.384 86.6728 124.104 86.7975C124.226 87.2903 124.486 87.7378 124.854 88.0874C125.223 88.437 125.683 88.6741 126.181 88.7708Z" fill="#F28F8F"/>
<path d="M135.875 73.3138L132.777 72.0596C132.849 71.8539 132.961 71.6649 133.108 71.504C133.255 71.3431 133.433 71.2138 133.631 71.1239C133.829 71.0339 134.044 70.9853 134.261 70.9808C134.479 70.9764 134.695 71.0162 134.897 71.098C135.313 71.2711 135.647 71.5977 135.829 72.0102C136.011 72.4227 136.028 72.8895 135.875 73.3138Z" fill="#263238"/>
<path d="M135.161 76.675C135.163 76.9413 135.087 77.2024 134.942 77.4258C134.797 77.6491 134.589 77.825 134.345 77.9314C134.101 78.0378 133.831 78.0701 133.568 78.0243C133.306 77.9785 133.063 77.8566 132.869 77.6737C132.676 77.4909 132.54 77.2551 132.479 76.9958C132.418 76.7365 132.435 76.465 132.527 76.2152C132.62 75.9653 132.783 75.7481 132.998 75.5905C133.213 75.4329 133.469 75.3419 133.735 75.3288C133.917 75.3232 134.099 75.3536 134.269 75.4183C134.439 75.483 134.595 75.5807 134.728 75.7058C134.86 75.8309 134.966 75.9809 135.041 76.1472C135.115 76.3135 135.156 76.4928 135.161 76.675Z" fill="#263238"/>
<path d="M128.797 76.1289L129.733 84.0304L133.805 82.0906L128.797 76.1289Z" fill="#F28F8F"/>
<path d="M123.307 93.5703C119.838 93.1104 112.697 91.041 111.602 88.2148C111.602 88.2148 111.965 89.9916 114.11 91.8228C116.255 93.6539 123.307 95.7317 123.307 95.7317V93.5703Z" fill="#F28F8F"/>
<path d="M109.291 81.5488C109.73 81.5115 110.158 81.388 110.549 81.1854C110.941 80.9829 111.289 80.7052 111.573 80.3682C111.857 80.0312 112.072 79.6416 112.206 79.2215C112.339 78.8015 112.389 78.3592 112.351 77.92C112.314 77.4808 112.191 77.0532 111.988 76.6617C111.786 76.2702 111.508 75.9225 111.171 75.6383C110.834 75.3541 110.444 75.1391 110.024 75.0055C109.604 74.8719 109.162 74.8224 108.723 74.8597L109.291 81.5488Z" fill="#263238"/>
<path d="M137.678 116.008C140.137 114.587 142.127 111.142 142.127 108.303C142.127 105.465 140.137 104.319 137.678 105.737C135.22 107.154 133.234 110.603 133.234 113.437C133.234 116.272 135.224 117.426 137.678 116.008Z" fill="#F28F8F"/>
<path fill-rule="evenodd" clip-rule="evenodd" d="M135.158 114.16C135.304 114.017 135.994 113.323 136.123 113.185C136.189 113.124 136.24 113.049 136.271 112.964C136.302 112.88 136.313 112.79 136.303 112.7C136.303 112.471 136.282 111.864 136.282 111.693C136.281 111.609 136.297 111.526 136.331 111.45C136.365 111.373 136.416 111.305 136.479 111.25C136.84 110.843 137.263 110.496 137.733 110.221C138.085 110.02 138.478 109.898 138.883 109.866C139.025 109.866 139.021 110.012 139.016 110.159C139.012 110.305 139.016 110.472 139.016 110.627C139.016 110.673 139.016 110.71 139.016 110.748C139.025 110.83 139.039 110.911 139.058 110.991C139.079 111.124 139.146 111.154 139.213 111.158C139.28 111.162 139.907 111.283 140.166 111.325C140.425 111.367 140.475 111.179 140.534 111.066C140.593 110.953 140.664 110.836 140.731 110.71C140.83 110.512 140.885 110.293 140.889 110.071C140.953 109.533 140.821 108.99 140.517 108.541C140.425 108.431 140.307 108.345 140.174 108.29C139.865 108.185 139.532 108.175 139.217 108.261C138.048 108.469 136.987 109.076 136.215 109.979C134.857 111.522 134.961 111.651 134.802 112.023C134.571 112.586 134.48 113.198 134.539 113.804C134.656 114.222 134.827 114.41 134.89 114.406C134.953 114.402 135.016 114.31 135.158 114.16Z" fill="white"/>
<path opacity="0.5" d="M125.792 122.869C128.246 121.451 130.24 118.002 130.24 115.168C130.24 112.333 128.246 111.179 125.792 112.601C123.338 114.022 121.344 117.467 121.344 120.302C121.344 123.136 123.338 124.286 125.792 122.869Z" fill="white"/>
<path d="M125.83 119.362C125.241 119.705 124.76 119.341 124.76 118.551V116.076C124.766 115.675 124.865 115.281 125.051 114.926C125.237 114.571 125.504 114.265 125.83 114.031C126.419 113.689 126.9 114.052 126.9 114.838V117.317C126.893 117.718 126.793 118.112 126.607 118.466C126.422 118.821 126.155 119.128 125.83 119.362Z" fill="white"/>
<path d="M125.321 120.433C125.084 120.434 124.851 120.365 124.652 120.236C124.406 120.05 124.212 119.804 124.088 119.522C123.963 119.239 123.913 118.93 123.941 118.623C123.941 118.556 123.968 118.492 124.015 118.445C124.062 118.398 124.126 118.372 124.192 118.372C124.259 118.372 124.323 118.398 124.37 118.445C124.417 118.492 124.443 118.556 124.443 118.623C124.419 118.845 124.45 119.07 124.533 119.278C124.616 119.486 124.749 119.67 124.92 119.814C125.041 119.888 125.179 119.928 125.32 119.932C125.462 119.936 125.602 119.902 125.727 119.835C127.194 119.17 127.311 117.431 127.29 116.716C127.29 116.65 127.316 116.586 127.362 116.537C127.407 116.489 127.47 116.46 127.537 116.457C127.569 116.457 127.602 116.462 127.632 116.475C127.663 116.487 127.691 116.505 127.714 116.528C127.737 116.551 127.756 116.578 127.768 116.608C127.781 116.639 127.788 116.671 127.788 116.704C127.834 118.401 127.14 119.743 125.931 120.295C125.74 120.383 125.532 120.43 125.321 120.433Z" fill="white"/>
<path d="M125.194 121.626C125.139 121.626 125.085 121.608 125.042 121.574C124.998 121.54 124.966 121.493 124.952 121.44C124.938 121.386 124.941 121.33 124.963 121.279C124.984 121.228 125.021 121.185 125.069 121.157L126.323 120.426C126.352 120.409 126.383 120.398 126.416 120.393C126.449 120.388 126.482 120.39 126.514 120.399C126.546 120.408 126.576 120.423 126.602 120.443C126.628 120.463 126.65 120.489 126.666 120.518C126.698 120.576 126.707 120.644 126.69 120.708C126.672 120.772 126.631 120.827 126.574 120.861L125.32 121.592C125.282 121.616 125.239 121.628 125.194 121.626Z" fill="white"/>
<path opacity="0.5" d="M113.907 129.735C116.361 128.318 118.351 124.869 118.351 122.03C118.351 119.191 116.361 118.046 113.907 119.463C111.453 120.88 109.459 124.329 109.459 127.168C109.459 130.007 111.449 131.152 113.907 129.735Z" fill="white"/>
<path d="M113.355 124.508C113.22 124.509 113.087 124.474 112.97 124.408C112.83 124.315 112.716 124.186 112.643 124.035C112.569 123.883 112.538 123.714 112.552 123.547C112.571 123.152 112.683 122.768 112.88 122.427C113.077 122.085 113.353 121.795 113.685 121.582C113.817 121.468 113.98 121.399 114.153 121.383C114.326 121.366 114.499 121.404 114.649 121.491C114.8 121.578 114.919 121.709 114.991 121.867C115.063 122.025 115.085 122.201 115.052 122.372C115.034 122.766 114.921 123.15 114.724 123.492C114.527 123.833 114.251 124.123 113.919 124.337C113.749 124.442 113.555 124.501 113.355 124.508Z" fill="white"/>
<path d="M117.652 121.866C117.623 121.819 117.577 121.784 117.523 121.77C117.469 121.756 117.412 121.764 117.363 121.791L116.882 122.071V121.373C116.881 121.318 116.859 121.265 116.82 121.226C116.781 121.188 116.728 121.165 116.673 121.164C116.618 121.164 116.565 121.186 116.526 121.225C116.486 121.264 116.464 121.318 116.464 121.373V122.31L115.77 122.728C115.731 122.751 115.701 122.786 115.683 122.829C115.666 122.871 115.663 122.918 115.675 122.962C115.687 123.006 115.713 123.045 115.749 123.073C115.785 123.101 115.829 123.116 115.875 123.116C115.912 123.117 115.948 123.107 115.979 123.087L116.464 122.811V123.43C116.464 123.485 116.486 123.539 116.526 123.578C116.565 123.617 116.618 123.639 116.673 123.639C116.728 123.638 116.781 123.616 116.82 123.577C116.859 123.538 116.881 123.485 116.882 123.43V122.569L117.572 122.151C117.62 122.123 117.656 122.078 117.671 122.025C117.686 121.972 117.679 121.915 117.652 121.866Z" fill="white"/>
<path d="M115.559 124.792C115.319 124.673 115.051 124.621 114.784 124.641C114.517 124.662 114.26 124.754 114.041 124.909L113.418 125.269C112.852 125.632 112.381 126.124 112.044 126.706C111.706 127.288 111.512 127.942 111.479 128.613V129.056C112.093 129.395 112.929 129.336 113.857 128.801C114.847 128.187 115.664 127.331 116.232 126.314V126.205C116.254 125.931 116.203 125.656 116.085 125.408C115.967 125.16 115.785 124.948 115.559 124.792Z" fill="white"/>
<path opacity="0.5" d="M102.017 136.598C104.475 135.176 106.465 131.727 106.465 128.893C106.465 126.058 104.475 124.908 102.017 126.326C99.5584 127.743 97.5684 131.192 97.5684 134.026C97.5684 136.861 99.5625 138.015 102.017 136.598Z" fill="white"/>
<path d="M102.016 134.53C102.791 134.027 103.435 133.349 103.898 132.549C104.36 131.75 104.626 130.853 104.675 129.931C104.675 128.259 103.484 127.552 102.016 128.397C101.243 128.901 100.6 129.58 100.138 130.379C99.6763 131.178 99.4088 132.074 99.3574 132.995C99.3616 134.693 100.549 135.378 102.016 134.53Z" fill="white"/>
<path opacity="0.3" d="M102.017 56.1999C104.475 54.7826 106.465 51.3336 106.465 48.4949C106.465 45.6562 104.475 44.5107 102.017 45.928C99.5584 47.3452 97.5684 50.7943 97.5684 53.633C97.5684 56.4716 99.5625 57.6172 102.017 56.1999Z" fill="white"/>
<path d="M102.016 47.994C101.243 48.4983 100.6 49.1773 100.138 49.9762C99.6763 50.775 99.4088 51.6714 99.3574 52.5928C99.3574 53.6003 99.7755 54.265 100.428 54.4323L100.135 55.8997L101.515 54.3779C101.696 54.3146 101.872 54.2334 102.037 54.1354C102.812 53.6329 103.456 52.9543 103.918 52.1551C104.381 51.3558 104.647 50.4586 104.696 49.5367C104.675 47.8352 103.484 47.1495 102.016 47.994Z" fill="white"/>
<path opacity="0.3" d="M113.903 49.335C116.361 47.9178 118.351 44.4687 118.351 41.6342C118.351 38.7997 116.361 37.6458 113.903 39.0631C111.445 40.4803 109.459 43.9252 109.459 46.7681C109.459 49.6109 111.449 50.7523 113.903 49.335Z" fill="white"/>
<path d="M115.909 40.4343L115.198 40.8523V40.4803C115.198 40.242 115.073 40.1249 114.918 40.2127L112.891 41.3833C112.801 41.4529 112.729 41.5425 112.681 41.6448C112.632 41.7472 112.608 41.8595 112.61 41.9728V42.3448L111.9 42.7629C111.715 42.9081 111.566 43.0943 111.465 43.3069C111.364 43.5195 111.314 43.7526 111.319 43.9879V47.6209C111.319 48.1142 111.578 48.3609 111.9 48.1769L115.909 45.8608C116.094 45.7152 116.242 45.5289 116.343 45.3164C116.444 45.1039 116.494 44.871 116.49 44.6359V40.9987C116.49 40.497 116.231 40.2461 115.909 40.4343ZM112.707 45.564C112.69 45.5854 112.671 45.6038 112.648 45.6183C112.59 45.6476 112.539 45.6183 112.514 45.5807C112.421 45.341 112.376 45.0853 112.381 44.8282C112.381 43.7078 113.066 42.4034 113.902 41.9017C113.985 41.8549 114.072 41.8157 114.162 41.7846L113.915 41.6216C113.881 41.5832 113.86 41.5357 113.853 41.4851C113.846 41.4346 113.855 41.3831 113.877 41.3373C113.923 41.2244 114.007 41.1659 114.065 41.2035L114.626 41.5756C114.645 41.593 114.66 41.6144 114.67 41.6382C114.68 41.662 114.685 41.6877 114.684 41.7136C114.684 41.7822 114.667 41.8497 114.634 41.9101L114.111 42.8256C114.098 42.8513 114.079 42.874 114.057 42.8925C114.049 42.9029 114.039 42.9113 114.028 42.9171C114.016 42.9229 114.003 42.926 113.99 42.926C113.977 42.926 113.964 42.9229 113.953 42.9171C113.941 42.9113 113.931 42.9029 113.923 42.8925C113.899 42.8454 113.886 42.793 113.886 42.7399C113.886 42.6868 113.899 42.6344 113.923 42.5873L114.149 42.1902C114.058 42.2186 113.969 42.2564 113.886 42.303C113.512 42.5719 113.206 42.9243 112.993 43.3322C112.779 43.7402 112.664 44.1923 112.656 44.6526C112.652 44.8612 112.689 45.0686 112.765 45.263C112.781 45.314 112.784 45.3683 112.774 45.4209C112.764 45.4734 112.741 45.5226 112.707 45.564ZM113.902 45.982C113.819 46.031 113.73 46.0716 113.639 46.1033L113.869 46.2872C113.896 46.3297 113.911 46.379 113.911 46.4294C113.911 46.4798 113.896 46.5291 113.869 46.5715C113.853 46.6131 113.827 46.6503 113.794 46.6802C113.777 46.6938 113.756 46.7012 113.735 46.7012C113.714 46.7012 113.693 46.6938 113.677 46.6802L113.146 46.2621C113.127 46.243 113.113 46.22 113.104 46.1947C113.095 46.1693 113.092 46.1424 113.095 46.1158C113.096 46.048 113.115 45.9816 113.15 45.9235L113.71 45.0498C113.773 44.9536 113.856 44.9369 113.898 45.0121C113.919 45.0622 113.927 45.1165 113.922 45.1704C113.917 45.2243 113.898 45.2761 113.869 45.3215L113.622 45.7061C113.713 45.6784 113.8 45.6405 113.881 45.5932C114.261 45.3287 114.573 44.9779 114.791 44.5694C115.009 44.161 115.127 43.7066 115.136 43.2437C115.14 43.0364 115.103 42.8303 115.027 42.6375C115.013 42.585 115.013 42.53 115.026 42.4775C115.04 42.4249 115.066 42.3765 115.102 42.3365C115.177 42.2487 115.261 42.2445 115.295 42.3365C115.388 42.5746 115.434 42.829 115.428 43.0848C115.428 44.1885 114.743 45.4929 113.902 45.9779V45.982Z" fill="white"/>
<path d="M139.915 23.3017L126.537 31.0151C126.009 31.3581 125.57 31.8209 125.256 32.3658C124.941 32.9107 124.76 33.5223 124.727 34.1506V57.4245C124.727 58.5783 125.533 59.0466 126.537 58.4696L139.915 50.7563C140.442 50.4122 140.88 49.9492 141.194 49.4045C141.509 48.8598 141.691 48.2487 141.725 47.6207V24.3469C141.725 23.193 140.914 22.7248 139.915 23.3017Z" fill="#455A64"/>
<path d="M141.575 48.5434C141.297 49.4551 140.704 50.2387 139.903 50.7549L139.154 51.173L138.799 51.382C137.616 49.739 136.575 48.2173 136.575 48.2173C136.248 47.3241 135.969 46.4142 135.739 45.4915C135.56 44.7876 135.429 44.0725 135.346 43.3509C136.101 43.1226 136.907 43.1226 137.662 43.3509C138.414 43.7057 139.034 44.2916 139.43 45.0232C139.857 45.688 140.756 47.1805 141.575 48.5434Z" fill="#751F91"/>
<path d="M139.167 51.1885L138.812 51.3934L135.379 53.375L134.853 53.676L127.98 57.6393L127.699 57.7982L127.666 56.615L128.013 51.13C128.013 50.0723 128.561 45.8623 128.561 45.8623L130.12 45.2394L131.061 44.8673L131.37 44.7461L131.496 44.6959L134.096 43.6549C134.267 43.5922 134.435 43.542 134.593 43.5002C134.645 43.4837 134.698 43.4712 134.752 43.4626C134.955 43.4105 135.162 43.3769 135.371 43.3622C137.302 43.2117 138.335 44.6624 138.812 46.9827C139.009 48.3768 139.128 49.781 139.167 51.1885Z" fill="#F0F0F0"/>
<path fill-rule="evenodd" clip-rule="evenodd" d="M136.346 48.1699C136.455 47.5387 136.486 46.8966 136.44 46.2578H135.529L134.217 46.733C134.569 47.3269 135.012 47.8623 135.529 48.3199C135.542 48.3212 135.555 48.3223 135.568 48.3232L135.529 48.331C135.653 49.9083 135.734 51.4884 135.772 53.0694L137.658 52.0924C137.348 50.8387 136.924 49.4987 136.346 48.1698L136.346 48.1699Z" fill="#751F91"/>
<path d="M129.184 52.5652C129.184 52.5652 128.532 55.0736 127.98 57.6364L127.7 57.7994L126.446 58.5227C125.493 59.0118 124.74 58.5227 124.74 57.4231V52.1597C125.091 49.9523 125.493 48.4639 126.074 47.4857C126.655 46.5074 127.591 46.2064 128.561 45.8594C129.444 46.5157 129.807 49.6513 129.184 52.5652Z" fill="#751F91"/>
<path d="M141.575 48.5434C141.297 49.4551 140.704 50.2387 139.903 50.7549L139.154 51.173L138.799 51.382C137.616 49.739 136.575 48.2173 136.575 48.2173C136.248 47.3241 135.969 46.4142 135.739 45.4915C135.56 44.7876 135.429 44.0725 135.346 43.3509C136.101 43.1226 136.907 43.1226 137.662 43.3509C138.414 43.7057 139.034 44.2916 139.43 45.0232C139.857 45.688 140.756 47.1805 141.575 48.5434Z" fill="#F0F0F0"/>
<path d="M129.184 52.5652C129.184 52.5652 128.532 55.0736 127.98 57.6364L127.7 57.7994L126.446 58.5227C125.493 59.0118 124.74 58.5227 124.74 57.4231V52.1597C125.091 49.9523 125.493 48.4639 126.074 47.4857C126.655 46.5074 127.591 46.2064 128.561 45.8594C129.444 46.5157 129.807 49.6513 129.184 52.5652Z" fill="#F0F0F0"/>
<path d="M130.399 33.7148C130.132 33.8134 129.888 33.964 129.68 34.1577C129.472 34.3515 129.304 34.5846 129.187 34.8436C128.902 35.5669 129.003 37.1723 129.383 38.878C129.589 39.9607 129.909 41.0187 130.336 42.0344C130.402 42.1664 130.498 42.2811 130.617 42.369C130.735 42.4569 130.872 42.5156 131.018 42.5403L130.972 40.4499L130.905 38.9992C131.35 38.2221 131.655 37.3732 131.808 36.4908C131.925 35.1196 131.678 34.6095 131.678 34.6095L130.399 33.7148Z" fill="#263238"/>
<path d="M130.192 34.0087L128.938 33.5906C128.989 33.388 129.115 33.2121 129.29 33.0976C129.465 32.9831 129.676 32.9382 129.882 32.9718C130.058 33.0714 130.188 33.2349 130.245 33.4281C130.303 33.6213 130.284 33.8293 130.192 34.0087Z" fill="#263238"/>
<path d="M131.834 35.4981C131.834 37.6595 133.368 39.1395 135.241 38.805C137.114 38.4705 138.632 36.4387 138.628 34.2731C138.623 32.1075 137.097 30.6276 135.22 30.9662C133.343 31.3049 131.83 33.3325 131.834 35.4981Z" fill="#263238"/>
<path d="M130.956 38.7561C130.651 39.1156 130.4 38.3673 130.145 38.1039C129.89 37.8405 129.049 37.5688 128.631 38.6599C128.213 39.7511 129.016 41.0346 129.643 41.2603C130.563 41.5906 130.972 40.4493 130.972 40.4493L131.069 45.1693C131.959 46.5698 134.079 46.8625 135.095 46.3817C136.211 45.8591 135.513 45.002 134.764 44.3708V42.9326C135.28 42.9344 135.794 42.8726 136.295 42.7487C137.131 42.4476 137.549 41.645 137.812 40.5538C138.303 37.992 138.303 35.3604 137.812 32.7986C136.876 32.1297 133.631 32.8404 131.675 34.6214C131.821 37.4852 131.261 38.3966 130.956 38.7561Z" fill="#FFA8A7"/>
<path d="M138.281 30.4146C138.256 30.3645 138.214 30.3185 138.159 30.3268C138.114 30.3409 138.075 30.3687 138.047 30.4063C137.814 30.6579 137.566 30.8939 137.302 31.1128C137.367 30.7253 137.367 30.3297 137.302 29.9422C137.265 29.7081 137.206 29.1688 136.951 29.1562C136.801 29.1562 136.671 29.3151 136.558 29.4573C135.534 30.7407 134.205 30.4648 132.975 30.7115C131.947 30.9289 130.705 31.6312 130.241 32.8687C130.028 33.4331 129.99 33.9975 130.413 34.2901C130.792 34.5133 131.227 34.6235 131.667 34.6079C133.715 34.658 136.65 35.1137 138.164 32.6429C138.383 32.2775 138.494 31.8568 138.481 31.4305C138.486 31.0798 138.417 30.7321 138.276 30.4105L138.281 30.4146Z" fill="#263238"/>
<path d="M134.761 42.9333C134.761 42.9333 132.892 42.833 132.253 42.5529C131.86 42.3788 131.54 42.0726 131.35 41.6875C131.444 42.0918 131.619 42.4728 131.864 42.8079C132.345 43.4225 134.79 43.5061 134.79 43.5061L134.761 42.9333Z" fill="#F28F8F"/>
<path d="M134.276 37.6544C134.28 37.7692 134.245 37.8821 134.178 37.9751C134.11 38.0682 134.014 38.1363 133.904 38.1686C133.699 38.2021 133.528 38.0349 133.528 37.784C133.524 37.6692 133.558 37.5564 133.626 37.4633C133.693 37.3702 133.789 37.3022 133.9 37.2698C134.125 37.2363 134.276 37.4078 134.276 37.6544Z" fill="#263238"/>
<path d="M133.874 36.0974L133.076 36.7495C133.022 36.6182 133.011 36.4733 133.044 36.3353C133.077 36.1972 133.152 36.0731 133.26 35.9803C133.304 35.9372 133.357 35.9053 133.416 35.8875C133.475 35.8696 133.537 35.8663 133.598 35.8778C133.658 35.8893 133.715 35.9153 133.763 35.9535C133.811 35.9918 133.85 36.0411 133.874 36.0974Z" fill="#263238"/>
<path d="M134.209 40.1094L135.752 40.4982C135.71 40.7367 135.578 40.9501 135.384 41.0946C135.189 41.2392 134.947 41.304 134.707 41.2758C134.597 41.2325 134.497 41.1679 134.412 41.0857C134.328 41.0034 134.26 40.9052 134.214 40.7966C134.168 40.6881 134.143 40.5715 134.143 40.4535C134.142 40.3355 134.164 40.2185 134.209 40.1094Z" fill="#B16668"/>
<path d="M134.472 40.6367C134.375 40.6374 134.278 40.6558 134.188 40.6911C134.21 40.8275 134.271 40.9548 134.363 41.0583C134.454 41.1618 134.573 41.2374 134.706 41.2764C134.888 41.3183 135.078 41.2867 135.237 41.1886C135.184 41.0276 135.081 40.8875 134.944 40.7884C134.807 40.6893 134.641 40.6362 134.472 40.6367Z" fill="#F28F8F"/>
<path d="M137.47 35.809L136.738 35.2948C136.761 35.2355 136.797 35.1818 136.842 35.1375C136.888 35.0931 136.942 35.059 137.002 35.0376C137.062 35.0162 137.126 35.0079 137.189 35.0133C137.253 35.0188 137.314 35.0378 137.37 35.0691C137.471 35.1605 137.537 35.2851 137.556 35.4206C137.574 35.5562 137.544 35.6938 137.47 35.809Z" fill="#263238"/>
<path d="M137.227 36.9989C137.231 37.1137 137.196 37.2265 137.129 37.3196C137.062 37.4127 136.965 37.4808 136.855 37.5131C136.646 37.5508 136.479 37.3793 136.479 37.1327C136.475 37.0179 136.51 36.9051 136.577 36.812C136.644 36.7189 136.741 36.6508 136.851 36.6185C137.052 36.5808 137.227 36.7522 137.227 36.9989Z" fill="#263238"/>
<path d="M135.475 36.9062L135.604 39.4774L136.779 38.8043L135.475 36.9062Z" fill="#F28F8F"/>
<defs>
<filter id="filter0_f_4249_4492" x="0" y="121.613" width="294" height="199.953" filterUnits="userSpaceOnUse" color-interpolation-filters="sRGB">
<feFlood flood-opacity="0" result="BackgroundImageFix"/>
<feBlend mode="normal" in="SourceGraphic" in2="BackgroundImageFix" result="shape"/>
<feGaussianBlur stdDeviation="17" result="effect1_foregroundBlur_4249_4492"/>
</filter>
<radialGradient id="paint0_radial_4249_4492" cx="0" cy="0" r="1" gradientUnits="userSpaceOnUse" gradientTransform="translate(147 221.591) rotate(90.0004) scale(74.3504 127.341)">
<stop stop-color="#751F91"/>
<stop offset="1" stop-color="#BD9AF5" stop-opacity="0.09"/>
</radialGradient>
<linearGradient id="paint1_linear_4249_4492" x1="34" y1="173.201" x2="235.754" y2="261.989" gradientUnits="userSpaceOnUse">
<stop stop-color="#AB7AFC"/>
<stop offset="1" stop-color="#462C6A"/>
</linearGradient>
<clipPath id="clip0_4249_4492">
<rect width="226" height="139.974" fill="white" transform="translate(34 90)"/>
</clipPath>
</defs>
</svg>
