<svg width="294" height="303" viewBox="0 0 294 303" fill="none" xmlns="http://www.w3.org/2000/svg">
<g filter="url(#filter0_f_4249_4491)">
<path d="M248.216 186.057C263.787 195.172 263.998 209.798 248.426 218.913L175.408 261.732C159.836 270.847 134.585 270.847 119.013 261.732L45.7845 218.913C30.2128 209.798 30.0024 195.172 45.574 186.057L118.382 143.449C133.953 134.335 159.205 134.335 174.776 143.449L248.216 186.057Z" fill="url(#paint0_radial_4249_4491)"/>
</g>
<g clip-path="url(#clip0_4249_4491)">
<path d="M248.216 153.039L175.408 195.75C159.836 204.842 134.585 204.842 119.013 195.75L45.784 153.039C37.9981 148.599 34 142.679 34 136.547V145.005C34 150.925 37.9981 157.057 45.784 161.497L119.013 204.208C134.585 213.3 159.836 213.3 175.408 204.208L248.216 161.708C256.002 157.268 259.79 151.348 259.79 145.427V136.97C259.79 142.679 256.002 148.599 248.216 153.039Z" fill="url(#paint1_linear_4249_4491)"/>
<path d="M248.217 120.264C263.788 129.356 263.999 143.945 248.427 153.037L175.408 195.749C159.837 204.841 134.585 204.841 119.014 195.749L45.7845 153.037C30.2128 143.945 30.0024 129.356 45.5741 120.264L118.382 77.7643C133.954 68.6723 159.205 68.6723 174.777 77.7643L248.217 120.264Z" fill="#F5FBFF"/>
</g>
<path d="M227.99 163.702L226.302 164.672C225.999 164.826 225.664 164.906 225.325 164.906C224.985 164.906 224.65 164.826 224.348 164.672L146.34 119.639C146.222 119.6 146.119 119.525 146.046 119.424C145.973 119.323 145.933 119.201 145.933 119.077C145.933 118.952 145.973 118.83 146.046 118.73C146.119 118.629 146.222 118.553 146.34 118.515L148.015 117.558C148.318 117.404 148.653 117.324 148.992 117.324C149.332 117.324 149.667 117.404 149.97 117.558L227.99 162.574C228.108 162.614 228.21 162.689 228.283 162.791C228.356 162.892 228.395 163.013 228.395 163.138C228.395 163.262 228.356 163.384 228.283 163.485C228.21 163.586 228.108 163.662 227.99 163.702Z" fill="#E0E0E0"/>
<path d="M115.376 179.923C102.228 179.923 91.5703 174.08 91.5703 166.874C91.5703 159.667 102.228 153.824 115.376 153.824C128.523 153.824 139.182 159.667 139.182 166.874C139.182 174.08 128.523 179.923 115.376 179.923Z" fill="#E0E0E0"/>
<path d="M87.8737 144.414C77.7301 144.414 69.5071 139.905 69.5071 134.344C69.5071 128.782 77.7301 124.273 87.8737 124.273C98.0173 124.273 106.24 128.782 106.24 134.344C106.24 139.905 98.0173 144.414 87.8737 144.414Z" fill="#E0E0E0"/>
<path d="M78.8903 124.225C78.9174 121.918 77.306 117.125 74.9498 114.101C72.5936 111.076 68.8607 108.842 66.175 109.727C63.6744 110.548 63.9181 113.816 66.9017 116.014C69.8853 118.213 74.3991 120.98 75.6855 124.744L78.4163 129.366L78.8903 124.225Z" fill="#6741A3"/>
<path opacity="0.1" d="M78.8903 124.225C78.9174 121.918 77.306 117.125 74.9498 114.101C72.5936 111.076 68.8607 108.842 66.175 109.727C63.6744 110.548 63.9181 113.816 66.9017 116.014C69.8853 118.213 74.3991 120.98 75.6855 124.744L78.4163 129.366L78.8903 124.225Z" fill="black"/>
<path d="M79.0211 127.386C78.9846 127.382 78.9504 127.366 78.9235 127.341C78.8967 127.315 78.8787 127.282 78.8722 127.246C77.4233 119.356 71.1311 112.883 67.3395 111.425C67.297 111.409 67.2627 111.377 67.2441 111.335C67.2254 111.294 67.224 111.247 67.2402 111.204C67.2482 111.184 67.2601 111.165 67.2753 111.149C67.2905 111.133 67.3087 111.12 67.3289 111.112C67.349 111.103 67.3706 111.098 67.3926 111.098C67.4146 111.097 67.4364 111.101 67.4568 111.109C71.3252 112.594 77.7347 119.175 79.1927 127.187C79.1966 127.209 79.1962 127.231 79.1915 127.253C79.1868 127.274 79.1778 127.294 79.1653 127.312C79.1527 127.33 79.1367 127.346 79.1181 127.358C79.0996 127.37 79.0789 127.378 79.0572 127.381L79.0211 127.386Z" fill="white"/>
<path d="M77.7666 132.41C77.41 131.11 75.8528 128.952 73.316 127.151C70.5039 125.165 66.929 124.222 66.1211 122.692C65.1506 120.85 66.7124 119.144 69.6192 119.532C72.5261 119.92 77.5906 123.96 78.3398 129.945L77.7666 132.41Z" fill="#6741A3"/>
<path d="M78.3657 131.053C78.3334 131.049 78.3027 131.037 78.2772 131.017C78.2516 130.997 78.2322 130.97 78.2213 130.94C75.8922 124.169 70.7735 121.741 68.3948 121.402C68.3508 121.395 68.3112 121.372 68.2843 121.337C68.2573 121.301 68.2452 121.257 68.2503 121.213C68.2531 121.191 68.2602 121.169 68.2713 121.15C68.2824 121.131 68.2972 121.114 68.3148 121.101C68.3325 121.087 68.3526 121.077 68.3741 121.072C68.3956 121.066 68.418 121.065 68.4399 121.068C71.0715 121.443 76.1585 123.916 78.5418 130.831C78.5489 130.852 78.5518 130.874 78.5505 130.896C78.5491 130.918 78.5434 130.939 78.5338 130.959C78.5241 130.979 78.5107 130.996 78.4943 131.011C78.4778 131.025 78.4587 131.036 78.4379 131.044C78.4151 131.053 78.3902 131.056 78.3657 131.053Z" fill="white"/>
<path d="M225.887 162.566L226.23 162.367C226.518 162.18 226.758 161.926 226.931 161.628C227.103 161.33 227.203 160.996 227.223 160.652V44.9821C227.203 44.6378 227.103 44.3029 226.93 44.0043C226.758 43.7056 226.518 43.4515 226.23 43.2624L151.698 0.237084C151.39 0.0812187 151.05 0 150.705 0C150.36 0 150.02 0.0812187 149.712 0.237084L149.374 0.43569C149.084 0.623778 148.843 0.877615 148.671 1.17649C148.498 1.47536 148.399 1.8108 148.381 2.15544V117.821C148.399 118.166 148.498 118.501 148.671 118.8C148.843 119.099 149.084 119.353 149.374 119.541L223.901 162.566C224.208 162.722 224.549 162.803 224.894 162.803C225.239 162.803 225.579 162.722 225.887 162.566Z" fill="#6741A3"/>
<path opacity="0.4" d="M148.39 1.99746C148.458 1.48289 148.873 1.29331 149.369 1.57768L223.905 44.6075C224.197 44.7914 224.438 45.0461 224.605 45.3478L226.93 43.9936C226.76 43.6921 226.518 43.4376 226.226 43.2534L151.699 0.237084C151.391 0.0812187 151.051 0 150.706 0C150.361 0 150.02 0.0812187 149.713 0.237084L149.369 0.43569C149.106 0.612412 148.882 0.842876 148.713 1.112C148.544 1.38113 148.434 1.68286 148.39 1.99746Z" fill="white"/>
<path opacity="0.1" d="M224.067 162.643C224.357 162.759 224.667 162.812 224.978 162.798C225.29 162.785 225.594 162.706 225.873 162.567L226.22 162.368C226.509 162.179 226.749 161.925 226.921 161.627C227.092 161.328 227.191 160.993 227.209 160.648V44.9828C227.199 44.6383 227.099 44.3024 226.92 44.0078L224.596 45.3619C224.78 45.6511 224.89 45.9814 224.916 46.3234V161.993C224.916 162.562 224.537 162.828 224.067 162.643Z" fill="black"/>
<path d="M216.105 120.729L216.448 120.53C216.737 120.342 216.977 120.089 217.15 119.791C217.322 119.493 217.422 119.159 217.441 118.815V98.0245C217.422 97.6801 217.322 97.345 217.15 97.0463C216.977 96.7476 216.737 96.4936 216.448 96.3047L148.782 57.2019C148.475 57.0461 148.136 56.9648 147.792 56.9648C147.447 56.9648 147.108 57.0461 146.801 57.2019L146.458 57.4005C146.168 57.5886 145.928 57.8424 145.755 58.1413C145.582 58.4402 145.483 58.7756 145.465 59.1202V79.9107C145.483 80.2547 145.582 80.5895 145.755 80.8877C145.928 81.1858 146.168 81.4388 146.458 81.6259L214.119 120.729C214.427 120.885 214.767 120.966 215.112 120.966C215.457 120.966 215.798 120.885 216.105 120.729Z" fill="#EBEBEB"/>
<path d="M145.474 58.9641C145.542 58.4495 145.957 58.2599 146.458 58.5443L214.124 97.6516C214.416 97.8356 214.657 98.0902 214.824 98.3919L217.148 97.0378C216.981 96.7335 216.739 96.4771 216.444 96.293L148.783 57.1902C148.476 57.0343 148.136 56.9531 147.792 56.9531C147.448 56.9531 147.108 57.0343 146.801 57.1902L146.458 57.3888C146.19 57.565 145.964 57.797 145.794 58.0688C145.624 58.3407 145.515 58.6461 145.474 58.9641Z" fill="#FAFAFA"/>
<path d="M214.29 120.811C214.58 120.926 214.89 120.979 215.202 120.965C215.513 120.951 215.818 120.871 216.096 120.73L216.448 120.536C216.734 120.346 216.972 120.091 217.143 119.792C217.314 119.494 217.413 119.16 217.432 118.816V98.0258C217.421 97.6813 217.322 97.3454 217.143 97.0508L214.818 98.4049C214.995 98.7006 215.096 99.0356 215.112 99.3799V120.175C215.116 120.726 214.755 120.992 214.29 120.811Z" fill="#E0E0E0"/>
<path d="M204.554 96.2579C200.695 94.0281 197.566 95.7614 197.566 100.131C197.566 104.5 200.699 109.808 204.563 111.988C208.427 114.169 211.555 112.44 211.555 108.116C211.555 103.791 208.413 98.4878 204.554 96.2579Z" fill="#6741A3"/>
<path d="M216.105 148.908L216.448 148.71C216.737 148.522 216.977 148.269 217.15 147.971C217.322 147.673 217.422 147.338 217.441 146.995V126.204C217.422 125.86 217.322 125.525 217.15 125.226C216.977 124.927 216.737 124.673 216.448 124.484L148.782 85.3816C148.475 85.2257 148.136 85.1445 147.792 85.1445C147.447 85.1445 147.108 85.2257 146.801 85.3816L146.458 85.5802C146.168 85.768 145.927 86.0218 145.755 86.3207C145.582 86.6196 145.483 86.9552 145.465 87.2999V108.09C145.483 108.434 145.582 108.769 145.755 109.067C145.928 109.365 146.168 109.618 146.458 109.806L214.119 148.908C214.427 149.064 214.767 149.146 215.112 149.146C215.457 149.146 215.798 149.064 216.105 148.908Z" fill="#EBEBEB"/>
<path d="M145.474 87.1389C145.542 86.6243 145.957 86.4393 146.458 86.7236L214.124 125.831C214.415 126.014 214.655 126.267 214.824 126.567L217.148 125.213C216.977 124.921 216.735 124.677 216.444 124.504L148.783 85.4011C148.476 85.2453 148.136 85.1641 147.792 85.1641C147.448 85.1641 147.108 85.2453 146.801 85.4011L146.458 85.5997C146.194 85.7716 145.97 85.9978 145.8 86.2632C145.631 86.5286 145.519 86.8271 145.474 87.1389Z" fill="#FAFAFA"/>
<path d="M214.29 148.986C214.579 149.102 214.89 149.155 215.201 149.142C215.512 149.129 215.817 149.05 216.096 148.91L216.448 148.711C216.735 148.522 216.973 148.267 217.144 147.968C217.315 147.67 217.414 147.335 217.432 146.991V126.205C217.422 125.861 217.322 125.525 217.143 125.23L214.818 126.585C214.995 126.882 215.095 127.219 215.112 127.564V148.359C215.116 148.905 214.755 149.172 214.29 148.986Z" fill="#E0E0E0"/>
<path d="M204.554 124.434C200.695 122.204 197.566 123.937 197.566 128.307C197.566 132.676 200.699 137.984 204.563 140.164C208.427 142.344 211.555 140.616 211.555 136.291C211.555 131.967 208.413 126.659 204.554 124.434Z" fill="#6741A3"/>
<path d="M216.105 73.6155L216.448 73.4169C216.737 73.228 216.977 72.974 217.15 72.6753C217.322 72.3766 217.422 72.0415 217.441 71.6971V50.9247C217.422 50.581 217.322 50.2466 217.15 49.9486C216.977 49.6506 216.737 49.3974 216.448 49.2095L148.782 10.0886C148.475 9.93277 148.136 9.85156 147.792 9.85156C147.447 9.85156 147.108 9.93277 146.801 10.0886L146.458 10.2872C146.168 10.4743 145.928 10.7273 145.755 11.0255C145.582 11.3236 145.483 11.6584 145.465 12.0024V32.7929C145.483 33.1375 145.582 33.473 145.755 33.7718C145.928 34.0707 146.168 34.3245 146.458 34.5126L214.119 73.6155C214.427 73.7713 214.767 73.8526 215.112 73.8526C215.457 73.8526 215.798 73.7713 216.105 73.6155Z" fill="#EBEBEB"/>
<path d="M145.474 11.8463C145.542 11.3317 145.957 11.1466 146.458 11.431L214.124 50.5384C214.417 50.7193 214.658 50.9728 214.824 51.2741L217.148 49.92C216.982 49.6162 216.739 49.361 216.444 49.1797L148.783 10.0769C148.476 9.92105 148.136 9.83984 147.792 9.83984C147.448 9.83984 147.108 9.92105 146.801 10.0769L146.458 10.2755C146.191 10.4508 145.964 10.6819 145.794 10.9531C145.624 11.2242 145.515 11.5289 145.474 11.8463Z" fill="#FAFAFA"/>
<path d="M214.291 73.6923C214.581 73.8082 214.891 73.8613 215.202 73.848C215.514 73.8348 215.819 73.7556 216.097 73.6156L216.449 73.417C216.738 73.2269 216.978 72.9713 217.15 72.6709C217.322 72.3705 217.42 72.0338 217.438 71.6882V50.9248C217.428 50.5788 217.328 50.2412 217.149 49.9453L214.824 51.2994C215.001 51.5967 215.102 51.9332 215.117 52.2789V73.0423C215.117 73.611 214.756 73.8728 214.291 73.6923Z" fill="#E0E0E0"/>
<path d="M204.554 49.1448C200.695 46.915 197.566 48.6483 197.566 53.0131C197.566 57.3779 200.699 62.6906 204.563 64.8753C208.427 67.06 211.555 65.3267 211.555 61.0025C211.555 56.6783 208.413 51.3791 204.554 49.1448Z" fill="#6741A3"/>
<path d="M211.348 100.015L211.691 99.816C211.98 99.6279 212.221 99.3741 212.393 99.0752C212.566 98.7763 212.665 98.4409 212.684 98.0962V77.3058C212.665 76.9613 212.565 76.6261 212.392 76.3274C212.22 76.0286 211.979 75.7746 211.691 75.586L144.029 36.4832C143.721 36.3273 143.381 36.2461 143.036 36.2461C142.691 36.2461 142.351 36.3273 142.043 36.4832L141.7 36.6773C141.412 36.8664 141.172 37.1205 140.999 37.4192C140.827 37.7178 140.727 38.0527 140.707 38.397V59.1875C140.726 59.5319 140.826 59.8669 140.999 60.1656C141.171 60.4643 141.411 60.7183 141.7 60.9072L209.366 100.015C209.673 100.17 210.012 100.252 210.357 100.252C210.701 100.252 211.04 100.17 211.348 100.015Z" fill="#37474F"/>
<path d="M140.716 38.2436C140.784 37.729 141.199 37.5394 141.7 37.8283L209.366 76.9356C209.659 77.1177 209.901 77.3708 210.071 77.6714L212.391 76.3173C212.225 76.0133 211.984 75.7569 211.691 75.5725L144.029 36.4832C143.722 36.3273 143.381 36.2461 143.036 36.2461C142.691 36.2461 142.351 36.3273 142.043 36.4832L141.7 36.6773C141.434 36.8525 141.208 37.0831 141.038 37.3533C140.868 37.6236 140.758 37.9272 140.716 38.2436Z" fill="#455A64"/>
<path d="M209.532 100.093C209.822 100.208 210.132 100.261 210.443 100.247C210.754 100.234 211.059 100.155 211.338 100.016L211.685 99.8172C211.973 99.6281 212.213 99.3739 212.385 99.0752C212.556 98.7764 212.655 98.4415 212.674 98.0975V77.307C212.662 76.9621 212.561 76.6263 212.38 76.332L210.06 77.6862C210.236 77.9821 210.335 78.3172 210.349 78.6611V99.4561C210.358 100.007 210.02 100.273 209.532 100.093Z" fill="#263238"/>
<path d="M199.796 75.5364C195.937 73.3111 192.809 75.0444 192.809 79.4092C192.809 83.774 195.941 89.0867 199.805 91.2714C203.669 93.4561 206.801 91.7228 206.797 87.3986C206.792 83.0744 203.655 77.7662 199.796 75.5364Z" fill="#F5F5F5"/>
<path d="M196.339 86.4472C196.186 86.4572 196.034 86.4207 195.902 86.3423C195.77 86.264 195.666 86.1476 195.601 86.0084L194.319 82.3808C194.148 81.8945 194.66 81.2101 195.468 80.8461C196.277 80.4822 197.069 80.584 197.237 81.0678L198.129 83.5991L210.127 76.221C210.876 75.7584 211.774 75.6858 212.108 76.0962C212.443 76.5067 212.123 77.1878 211.378 77.6366L197.677 86.0598C197.289 86.3062 196.84 86.4387 196.381 86.4421L196.339 86.4472Z" fill="#00E676"/>
<path d="M140.725 69.1165L142.689 67.9836C143.542 67.4961 144.584 67.9836 145.135 68.3176L146.376 67.627C147.861 66.7242 149.929 68.6065 150.389 69.0533L150.922 68.7509C152.497 67.803 155.363 70.3443 155.363 70.3443V60.8563L154.118 60.256L156.099 59.1095C156.383 58.9835 156.695 58.9343 157.004 58.9668C157.313 58.9992 157.608 59.1123 157.859 59.2945C158.593 59.7719 159.203 60.4156 159.641 61.1733C160.078 61.9309 160.331 62.7812 160.378 63.6549V85.5783C162.184 84.2241 164.116 83.4116 165.795 83.7141C167.132 84.0267 168.303 84.8327 169.072 85.971C169.902 87.4424 168.53 88.3633 166.761 90.3854C164.991 92.4076 163.457 94.8089 161.859 96.2985C161.07 97.0976 160.133 97.7353 159.101 98.1762V101.029L157.16 102.153L144.305 92.4889V89.6316C144.305 89.6316 142.472 82.3103 141.885 79.2499C141.321 76.307 140.802 71.6081 141.772 69.1707L140.721 69.0985L140.725 69.1165Z" fill="#6741A3"/>
<path opacity="0.4" d="M140.725 69.1165L142.689 67.9836C143.542 67.4961 144.584 67.9836 145.135 68.3176L146.376 67.627C147.861 66.7242 149.929 68.6065 150.389 69.0533L150.922 68.7509C152.497 67.803 155.363 70.3443 155.363 70.3443V60.8563L154.118 60.256L156.099 59.1095C156.383 58.9835 156.695 58.9343 157.004 58.9668C157.313 58.9992 157.608 59.1123 157.859 59.2945C158.593 59.7719 159.203 60.4156 159.641 61.1733C160.078 61.9309 160.331 62.7812 160.378 63.6549V85.5783C162.184 84.2241 164.116 83.4116 165.795 83.7141C167.132 84.0267 168.303 84.8327 169.072 85.971C169.902 87.4424 168.53 88.3633 166.761 90.3854C164.991 92.4076 163.457 94.8089 161.859 96.2985C161.07 97.0976 160.133 97.7353 159.101 98.1762V101.029L157.16 102.153L144.305 92.4889V89.6316C144.305 89.6316 142.472 82.3103 141.885 79.2499C141.321 76.307 140.802 71.6081 141.772 69.1707L140.721 69.0985L140.725 69.1165Z" fill="white"/>
<path d="M155.219 94.3128L164.942 88.7022L169.198 86.2422C169.74 87.5692 168.427 88.4991 166.766 90.3994C165.01 92.408 163.461 94.8229 161.864 96.3124C161.075 97.1115 160.138 97.7493 159.106 98.1902V101.029L157.165 102.153L154.326 100.018C154.691 97.6079 155.219 94.3128 155.219 94.3128Z" fill="#6741A3"/>
<path d="M158.432 64.788L160.373 63.6641V86.6618L158.432 86.7114V64.788Z" fill="#6741A3"/>
<path d="M143.18 70.5933L141.673 69.483C141.709 69.3836 141.736 69.2843 141.777 69.1896L141.226 69.1534L142.436 69.0993L144.453 67.9844C144.689 68.079 144.917 68.1922 145.135 68.3229L144.503 68.6885L143.18 70.5933Z" fill="#6741A3"/>
<path d="M148.52 70.2647L147.108 69.1904L149.058 68.0078C149.528 68.3102 149.968 68.6579 150.371 69.046L149.017 69.8314L148.52 70.2647Z" fill="#6741A3"/>
<path d="M151.472 70.1582L153.404 69.0298L153.395 69.0117V71.4537L151.147 70.6322L151.472 70.1582Z" fill="#6741A3"/>
<g opacity="0.15">
<path opacity="0.15" d="M155.219 94.3128L164.942 88.7022L169.198 86.2422C169.74 87.5692 168.427 88.4991 166.766 90.3994C165.01 92.408 163.461 94.8229 161.864 96.3124C161.075 97.1115 160.138 97.7493 159.106 98.1902V101.029L157.165 102.153L154.326 100.018C154.691 97.6079 155.219 94.3128 155.219 94.3128Z" fill="black"/>
<path opacity="0.15" d="M158.432 64.788L160.373 63.6641V86.6618L158.432 86.7114V64.788Z" fill="black"/>
<path opacity="0.15" d="M143.18 70.5933L141.673 69.483C141.709 69.3836 141.736 69.2843 141.777 69.1896L141.226 69.1534L142.436 69.0993L144.453 67.9844C144.689 68.079 144.917 68.1922 145.135 68.3229L144.503 68.6885L143.18 70.5933Z" fill="black"/>
<path opacity="0.15" d="M148.52 70.2647L147.108 69.1904L149.058 68.0078C149.528 68.3102 149.968 68.6579 150.371 69.046L149.017 69.8314L148.52 70.2647Z" fill="black"/>
<path opacity="0.15" d="M151.472 70.1582L153.404 69.0298L153.395 69.0117V71.4537L151.147 70.6322L151.472 70.1582Z" fill="black"/>
</g>
<path d="M157.165 102.17V99.3126C158.198 98.8655 159.133 98.2216 159.919 97.4168C161.517 95.9273 163.078 93.5079 164.821 91.5038C166.563 89.4997 167.98 88.5563 167.132 87.0893C166.363 85.9511 165.192 85.1451 163.855 84.8324C162.167 84.53 160.244 85.356 158.438 86.6966V64.7868C158.392 63.9135 158.14 63.0635 157.703 62.3059C157.266 61.5483 156.657 60.9043 155.924 60.4264C154.534 59.623 153.405 60.273 153.405 61.8799V71.4536C153.405 71.4536 149.934 68.3752 148.535 70.262C148.535 70.262 145.123 66.6916 143.57 69.7068C143.57 69.7068 141.069 67.6891 139.959 70.0318C138.849 72.3744 139.372 77.3305 139.959 80.3909C140.546 83.4512 142.383 90.7726 142.383 90.7726V93.6298L157.165 102.17Z" fill="#6741A3"/>
<path d="M153.395 75.5689C153.395 75.5689 153.079 71.1995 151.472 70.1523H151.531C152.196 70.5108 152.821 70.939 153.395 71.4297V71.3485C153.401 71.3612 153.404 71.3751 153.404 71.3891C153.404 71.4032 153.401 71.417 153.395 71.4297V75.5689Z" fill="#455A64"/>
<path d="M148.521 70.2621V74.2613C148.521 74.2613 148.07 70.1493 147.167 69.1562C147.658 69.4741 148.112 69.845 148.521 70.2621Z" fill="#455A64"/>
<path d="M143.574 69.7088V73.7216C143.574 73.7216 143.33 69.6818 142.459 69.0859C142.859 69.238 143.235 69.4479 143.574 69.7088Z" fill="#455A64"/>
<path d="M157.869 56.5414C158.185 56.722 158.438 56.6182 158.438 56.3022V53.1426C158.421 52.9578 158.361 52.7797 158.262 52.6228C158.163 52.4659 158.028 52.3346 157.869 52.2398C157.557 52.0592 157.305 52.1676 157.305 52.479V55.6387C157.32 55.8231 157.38 56.0011 157.478 56.158C157.576 56.3149 157.71 56.4464 157.869 56.5414Z" fill="#EBEBEB"/>
<path d="M162.628 61.5463C162.849 61.9255 163.206 62.1331 163.427 61.9977L165.264 60.937C165.485 60.8106 165.485 60.3953 165.264 60.0342C165.043 59.6505 164.686 59.4429 164.465 59.5828L162.628 60.6436C162.389 60.7474 162.389 61.1627 162.628 61.5463Z" fill="#EBEBEB"/>
<path d="M164.572 68.106V68.1963C164.592 68.3924 164.657 68.5813 164.763 68.7475C164.869 68.9138 165.012 69.0527 165.182 69.1532L167.691 70.6021C168.025 70.7962 168.301 70.6834 168.301 70.3448V70.2545C168.28 70.0587 168.215 69.8702 168.109 69.7042C168.003 69.5381 167.86 69.3989 167.691 69.2976L165.182 67.8487C164.843 67.6546 164.572 67.7675 164.572 68.106Z" fill="#EBEBEB"/>
<path d="M151.17 60.4616V60.3714C151.151 60.1744 151.086 59.9847 150.981 59.8176C150.875 59.6505 150.731 59.5108 150.561 59.4099L148.051 57.961C147.717 57.7669 147.442 57.8843 147.442 58.2183V58.3086C147.462 58.5044 147.528 58.6929 147.633 58.8589C147.739 59.025 147.882 59.1642 148.051 59.2655L150.561 60.7144C150.89 60.9085 151.17 60.7956 151.17 60.4616Z" fill="#EBEBEB"/>
<path d="M153.149 56.0732C153.37 55.9468 153.37 55.536 153.149 55.1704L151.311 52.0108C151.09 51.6271 150.734 51.4195 150.513 51.5594C150.291 51.6903 150.291 52.101 150.513 52.4847L152.35 55.6444C152.553 55.9964 152.914 56.2041 153.149 56.0732Z" fill="#EBEBEB"/>
<path d="M102.324 132.014C102.242 131.175 101.525 125.859 101.525 125.859L107.913 126.003C107.913 126.003 107.502 131.178 107.913 132.438C108.191 133.273 109.061 134.233 109.394 134.62C109.728 135.006 105.784 135.555 104.288 135.312C102.791 135.069 102.361 134.464 102.246 133.585C102.176 133.061 102.203 132.528 102.324 132.014Z" fill="#FFA8A7"/>
<path d="M116.611 139.723C116.705 139.723 116.87 140.658 116.374 141.064C115.804 141.538 114.111 142.339 111.841 142.13C109.572 141.921 108.328 141.319 107.402 140.652C106.476 139.985 105.182 139.043 104.153 138.866C103.199 138.701 102.155 138.336 101.843 138.074C101.531 137.812 101.531 136.621 101.531 136.621L116.611 139.723Z" fill="#263238"/>
<path d="M102.324 132.013C102.244 132.016 102.167 132.046 102.106 132.098C102.045 132.15 102.003 132.221 101.987 132.3C101.928 132.63 101.878 133.587 101.741 134.13C101.554 134.884 101.454 136.424 101.597 137.029C101.741 137.634 103.3 138.021 104.3 138.339C105.466 138.765 106.563 139.359 107.558 140.1C108.643 140.873 110.904 141.643 112.378 141.593C114.124 141.537 116.076 140.97 116.506 140.218C117.039 139.283 117.416 138.22 114.797 137.197C114.305 137.001 112.559 136.119 111.964 135.798C110.352 134.931 109.214 134.123 108.441 132.533C108.373 132.332 108.236 132.161 108.054 132.05C107.891 131.995 107.717 131.985 107.549 132.022C107.119 132.088 105.407 132.35 105.017 132.53C104.628 132.711 104.185 132.88 104.204 133.285C104.217 133.427 104.254 133.566 104.313 133.696C104.347 133.777 104.372 133.887 104.294 133.94C104.216 133.993 104.12 133.94 104.051 133.883C103.792 133.655 103.552 133.406 103.334 133.138C103.209 132.999 103.067 132.874 102.913 132.767C102.758 132.694 102.608 132.61 102.464 132.518C102.302 132.381 102.336 132.203 102.324 132.013Z" fill="#455A64"/>
<path d="M107.558 140.099C107.097 139.771 106.623 139.457 106.121 139.164C106.121 139.164 109.211 140.769 110.42 139.968C111.197 139.453 110.804 138.864 110.782 138.674C110.76 138.484 113.519 137.056 114.286 136.953C114.501 137.056 114.685 137.137 114.797 137.184C117.416 138.206 117.039 139.279 116.506 140.205C116.076 140.956 114.667 141.57 112.409 141.63C110.935 141.683 108.643 140.872 107.558 140.099Z" fill="#37474F"/>
<path d="M110.567 138.135C112.191 138.677 111.502 138.97 111.062 139.042C110.623 139.114 107.867 137.742 106.183 136.595C104.425 135.397 103.303 134.069 102.651 133.63C102.408 133.465 102.146 133.262 101.912 133.072C101.946 132.76 101.971 132.448 101.999 132.299C102.015 132.22 102.057 132.149 102.118 132.097C102.179 132.045 102.256 132.015 102.336 132.012C102.336 132.202 102.314 132.38 102.476 132.517C102.621 132.609 102.771 132.692 102.925 132.766C103.08 132.873 103.221 132.998 103.346 133.137C103.564 133.405 103.804 133.654 104.063 133.882C105.5 135.469 108.927 137.589 110.567 138.135Z" fill="#37474F"/>
<path d="M110.928 138.829C110.892 138.83 110.857 138.819 110.828 138.798C110.811 138.788 110.797 138.774 110.787 138.758C110.776 138.741 110.77 138.723 110.767 138.703C110.764 138.684 110.766 138.665 110.771 138.646C110.777 138.627 110.787 138.61 110.8 138.596C111.239 138.075 113.363 136.815 114.541 136.903C114.561 136.903 114.581 136.907 114.599 136.915C114.618 136.923 114.634 136.934 114.648 136.949C114.662 136.964 114.672 136.981 114.679 137C114.686 137.019 114.689 137.039 114.687 137.059C114.685 137.079 114.679 137.098 114.669 137.116C114.659 137.133 114.646 137.148 114.63 137.161C114.614 137.173 114.595 137.182 114.576 137.187C114.556 137.192 114.536 137.193 114.516 137.19C113.406 137.112 111.398 138.359 111.046 138.77C111.016 138.805 110.973 138.826 110.928 138.829Z" fill="#263238"/>
<path d="M109.504 138.079C109.468 138.079 109.434 138.069 109.404 138.048C109.388 138.037 109.375 138.023 109.365 138.007C109.354 137.99 109.348 137.972 109.345 137.953C109.342 137.934 109.344 137.914 109.349 137.896C109.355 137.877 109.364 137.86 109.376 137.845C109.816 137.328 111.936 136.068 113.118 136.152C113.137 136.153 113.157 136.157 113.175 136.165C113.193 136.173 113.21 136.185 113.224 136.2C113.237 136.214 113.248 136.231 113.255 136.25C113.262 136.269 113.265 136.288 113.264 136.308C113.262 136.328 113.255 136.348 113.246 136.366C113.236 136.383 113.222 136.399 113.206 136.411C113.19 136.424 113.172 136.433 113.153 136.438C113.133 136.444 113.113 136.445 113.093 136.442C111.983 136.364 109.975 137.612 109.623 138.023C109.592 138.057 109.55 138.077 109.504 138.079Z" fill="#263238"/>
<path d="M108.072 137.372C108.035 137.373 107.999 137.362 107.969 137.341C107.953 137.33 107.939 137.316 107.929 137.3C107.919 137.284 107.912 137.265 107.909 137.246C107.907 137.227 107.908 137.208 107.914 137.189C107.919 137.171 107.928 137.153 107.941 137.139C108.384 136.618 110.504 135.358 111.682 135.446C111.702 135.446 111.721 135.45 111.739 135.459C111.757 135.467 111.774 135.478 111.787 135.493C111.8 135.508 111.811 135.525 111.817 135.543C111.824 135.562 111.827 135.582 111.825 135.602C111.823 135.622 111.817 135.641 111.807 135.659C111.797 135.677 111.784 135.692 111.768 135.705C111.752 135.717 111.733 135.726 111.714 135.732C111.694 135.737 111.674 135.738 111.654 135.736C110.544 135.658 108.536 136.905 108.184 137.316C108.155 137.348 108.115 137.368 108.072 137.372Z" fill="#263238"/>
<path d="M106.757 136.556C106.72 136.556 106.684 136.545 106.654 136.525C106.638 136.514 106.624 136.5 106.614 136.484C106.604 136.467 106.597 136.449 106.595 136.429C106.592 136.41 106.594 136.39 106.6 136.372C106.606 136.353 106.616 136.336 106.629 136.322C107.069 135.802 109.195 134.542 110.37 134.629C110.39 134.63 110.41 134.634 110.428 134.642C110.446 134.65 110.463 134.662 110.476 134.676C110.49 134.691 110.501 134.708 110.508 134.727C110.514 134.745 110.518 134.765 110.517 134.785C110.51 134.825 110.488 134.862 110.456 134.886C110.423 134.911 110.383 134.923 110.342 134.919C109.235 134.841 107.225 136.085 106.872 136.497C106.858 136.514 106.84 136.528 106.821 136.538C106.801 136.548 106.779 136.554 106.757 136.556Z" fill="#263238"/>
<path d="M105.459 135.736C105.424 135.735 105.389 135.726 105.359 135.708C105.343 135.697 105.328 135.684 105.317 135.667C105.307 135.651 105.299 135.633 105.296 135.613C105.294 135.594 105.295 135.574 105.3 135.556C105.306 135.537 105.315 135.52 105.328 135.505C105.933 134.769 108.162 133.703 109.347 133.79C109.367 133.791 109.386 133.795 109.404 133.803C109.423 133.811 109.439 133.823 109.453 133.837C109.466 133.852 109.477 133.869 109.484 133.888C109.491 133.906 109.494 133.926 109.493 133.946C109.488 133.986 109.467 134.023 109.435 134.048C109.403 134.073 109.362 134.085 109.322 134.08C108.252 134.002 106.12 135.015 105.581 135.676C105.566 135.695 105.548 135.71 105.527 135.72C105.506 135.73 105.482 135.736 105.459 135.736Z" fill="#263238"/>
<path d="M84.4219 130.942C84.4219 130.942 84.5591 129.467 84.7898 126.281L90.2269 127.329L88.8333 131.924C88.8333 131.924 88.7585 133.483 88.2098 134.237C87.6611 134.992 84.4687 134.649 84.0821 133.589C83.6955 132.529 84.4219 130.942 84.4219 130.942Z" fill="#FFA8A7"/>
<path d="M88.2157 141.382C87.9819 142.713 87.6264 143.564 86.9343 144.269C86.2422 144.973 85.0638 145.048 83.904 144.643C82.7442 144.238 81.307 143.396 81.0981 142.192C80.8893 140.989 81.0233 140.194 81.4099 138.984L88.2157 141.382Z" fill="#263238"/>
<path d="M84.4213 130.942C83.9349 130.902 83.6886 132.691 83.2303 134.462C82.7409 136.361 81.9178 137.053 81.4938 138.605C81.0106 140.379 81.0542 141.212 81.765 142.431C82.4759 143.65 85.2755 145.152 86.8592 143.784C88.1531 142.671 88.3401 141.255 88.418 139.419C88.4326 137.868 88.5482 136.319 88.7641 134.783C88.9917 133.433 89.2411 132.133 88.8358 131.918C88.7828 132.114 88.7267 132.364 88.6737 132.541C88.6207 132.719 88.5116 133.421 88.2403 133.386C88.2345 133.214 88.2491 133.041 88.284 132.872C88.3054 132.794 88.3084 132.712 88.2927 132.632C88.277 132.553 88.2431 132.478 88.1936 132.414C88.0478 132.281 87.8691 132.189 87.6761 132.149C87.2053 132.005 86.7408 131.871 86.2513 131.765C86.0144 131.715 85.7712 131.672 85.528 131.637C85.322 131.603 85.1124 131.596 84.9045 131.615C84.8506 131.619 84.798 131.634 84.7502 131.659C84.7024 131.685 84.6605 131.72 84.627 131.762C84.5947 131.825 84.5786 131.894 84.5803 131.965C84.5673 132.091 84.5347 132.214 84.4836 132.329C84.4587 132.382 84.4057 132.442 84.3371 132.417C84.3136 132.407 84.294 132.39 84.2816 132.368C84.2691 132.346 84.2645 132.32 84.2685 132.295C84.2872 132.096 84.3994 131.057 84.4213 130.942Z" fill="#455A64"/>
<path d="M81.6534 138.105C81.5816 138.361 81.1265 140.054 81.7032 140.456C82.3268 140.893 82.8256 139.58 82.8256 139.58C82.8256 139.58 84.4062 139.437 86.5667 140.515C86.4264 140.78 86.6821 141.762 87.3181 141.656C87.9541 141.55 88.3874 139.593 88.3937 139.568C88.3157 141.323 88.1037 142.685 86.8348 143.77C85.2511 145.139 82.4546 143.636 81.7406 142.417C81.0267 141.198 80.9862 140.366 81.4694 138.592C81.5411 138.427 81.5972 138.261 81.6534 138.105Z" fill="#37474F"/>
<path d="M82.9903 139.721C82.9155 140.378 82.1018 140.032 82.1548 139.097C82.2078 138.162 83.0901 136.054 83.2304 134.458C83.6887 132.687 83.935 130.898 84.4213 130.938C84.4213 130.96 84.3122 131.873 84.3122 131.873C84.3122 131.873 84.2779 132.16 84.2655 132.301C84.122 133.641 83.6419 136.194 83.3582 137.401C83.1787 138.164 83.0558 138.939 82.9903 139.721Z" fill="#37474F"/>
<path d="M86.3207 140.47C86.6035 139.742 86.8338 138.994 87.0097 138.232C87.2965 137.041 87.9668 134.556 88.4251 133.281C88.5399 133.052 88.6218 132.807 88.6683 132.555C88.7182 132.377 88.7712 132.149 88.8179 131.962C88.8179 131.947 88.8179 131.934 88.8179 131.922C89.1079 132.081 89.058 132.81 88.9177 133.715C88.8055 134.229 88.6371 134.865 88.4064 135.632C87.8359 137.135 87.6925 139.42 87.3308 140.283C86.9692 141.147 86.0994 141.094 86.3207 140.47Z" fill="#37474F"/>
<path d="M86.6227 140.589L86.5603 140.564C85.4198 139.966 84.1435 139.675 82.8566 139.719C82.8122 139.724 82.7674 139.714 82.7295 139.69C82.6916 139.666 82.6628 139.63 82.6477 139.588C82.629 139.51 82.6945 139.442 82.7911 139.436C84.1676 139.382 85.5338 139.694 86.7505 140.34C86.7691 140.347 86.7857 140.359 86.799 140.374C86.8124 140.389 86.8222 140.406 86.8276 140.426C86.833 140.445 86.8339 140.465 86.8303 140.485C86.8267 140.505 86.8186 140.523 86.8066 140.539C86.7831 140.563 86.7537 140.58 86.7214 140.589C86.6891 140.598 86.655 140.598 86.6227 140.589Z" fill="#263238"/>
<path d="M87.184 139.222L87.1247 139.2C85.8356 138.569 84.4166 138.249 82.9814 138.265C82.937 138.269 82.8924 138.259 82.855 138.234C82.8176 138.21 82.7896 138.173 82.7756 138.131C82.7601 138.05 82.8286 137.984 82.9253 137.981C84.444 137.961 85.9456 138.303 87.3056 138.979C87.3245 138.986 87.3416 138.997 87.3556 139.012C87.3696 139.026 87.3802 139.044 87.3865 139.063C87.3928 139.082 87.3946 139.102 87.392 139.122C87.3893 139.143 87.3821 139.162 87.371 139.179C87.3465 139.202 87.3163 139.218 87.2834 139.226C87.2505 139.233 87.2162 139.232 87.184 139.222Z" fill="#263238"/>
<path d="M83.2155 136.915C83.1838 136.91 83.154 136.896 83.1289 136.876C83.1038 136.856 83.0843 136.83 83.0721 136.8C83.0472 136.722 83.1064 136.65 83.2031 136.638C85.429 136.382 87.4898 137.555 87.5677 137.604C87.5863 137.612 87.6029 137.624 87.6162 137.638C87.6296 137.653 87.6394 137.671 87.6448 137.69C87.6502 137.71 87.6511 137.73 87.6475 137.75C87.6439 137.769 87.6358 137.788 87.6238 137.804C87.591 137.834 87.549 137.853 87.5044 137.857C87.4599 137.861 87.4153 137.85 87.3776 137.826C87.3557 137.826 85.3542 136.682 83.281 136.919C83.2591 136.921 83.237 136.92 83.2155 136.915Z" fill="#263238"/>
<path d="M83.4657 135.657C83.4344 135.65 83.4051 135.637 83.3802 135.617C83.3552 135.597 83.3354 135.571 83.3223 135.542C83.2974 135.464 83.3535 135.392 83.4501 135.38C85.0042 135.207 86.5719 135.548 87.9146 136.349C87.9328 136.357 87.9489 136.369 87.9614 136.385C87.9739 136.401 87.9825 136.419 87.9865 136.438C87.9904 136.458 87.9897 136.478 87.9842 136.497C87.9788 136.517 87.9688 136.534 87.9551 136.549C87.9193 136.576 87.8755 136.591 87.8304 136.591C87.7853 136.591 87.7415 136.576 87.7057 136.549C86.4491 135.817 84.9931 135.503 83.5468 135.651C83.5203 135.658 83.4929 135.66 83.4657 135.657Z" fill="#263238"/>
<path d="M83.755 134.242C83.7242 134.236 83.6954 134.223 83.671 134.203C83.6465 134.183 83.6272 134.158 83.6147 134.13C83.5866 134.052 83.6427 133.98 83.7363 133.967C86.0402 133.64 88.1415 134.921 88.2319 134.978C88.2501 134.986 88.2663 134.998 88.279 135.013C88.2918 135.028 88.3008 135.046 88.3053 135.066C88.3098 135.085 88.3098 135.105 88.3052 135.125C88.3005 135.144 88.2915 135.162 88.2786 135.177C88.244 135.207 88.2006 135.225 88.155 135.228C88.1094 135.23 88.0641 135.218 88.0261 135.193C88.0074 135.193 85.9747 133.946 83.8391 134.257C83.8104 134.257 83.7819 134.252 83.755 134.242Z" fill="#263238"/>
<path d="M88.5315 78.8137C87.2845 91.5461 86.371 108.896 86.371 108.896C86.265 109.862 85.5511 111.511 84.9961 116.278C84.4131 121.31 84.1855 128.474 84.1855 128.474C84.1855 128.474 87.0881 130.463 89.9594 129.562C89.9594 129.562 93.261 118.426 94.8322 112.512C96.3193 106.916 98.6763 96.3005 98.6763 96.3005L99.967 106.869C99.967 106.869 99.7051 110.501 99.7706 113.045C99.8423 116.004 101.691 129.148 101.691 129.148C103.679 129.913 105.867 129.99 107.904 129.366C107.904 129.366 109.151 110.766 109.286 107.209C109.572 100.232 108.999 86.692 108.905 77.6758L88.5315 78.8137Z" fill="#37474F"/>
<path d="M98.6758 96.3022L100.044 89.3406C100.044 89.3406 103.514 88.8979 105.316 87.3359C105.316 87.3359 104.135 89.4216 100.855 90.1886L99.5082 96.3365L99.9665 106.868L98.6758 96.3022Z" fill="#263238"/>
<path d="M101.968 106.994C102.301 105.242 101.834 96.6748 101.491 90.4177L101.45 89.6757L101.747 89.6602L101.787 90.4021C102.149 97.024 102.601 105.261 102.261 107.05C101.55 110.791 101.497 115.097 102.102 119.876C102.532 123.274 102.831 127.533 102.987 129.541C102.881 129.519 102.778 129.494 102.676 129.469C102.517 127.458 102.22 123.249 101.796 119.907C101.213 115.103 101.254 110.757 101.968 106.994Z" fill="#263238"/>
<path d="M85.7152 117.455C85.9221 115.685 86.264 113.934 86.7378 112.217C87.401 109.869 87.7901 107.453 87.8975 105.015C88.1469 99.6718 89.4563 86.9519 90.4789 78.7027L90.7907 78.684C90.4322 81.4711 90.0518 84.7696 89.6777 88.1335C91.4049 88.1771 92.5116 87.7189 93.2786 82.5218C93.5311 80.7977 93.7057 79.5008 93.8241 78.5343L94.1359 78.5156C94.0174 79.4914 93.8241 80.804 93.581 82.5685C92.8577 87.4757 91.8195 88.4484 89.818 88.4484H89.6559C88.9638 94.933 88.3527 101.57 88.1906 105.056C88.0791 107.514 87.6879 109.951 87.0246 112.32C86.5543 114.023 86.2135 115.759 86.0051 117.514C85.6934 120.482 85.0698 125.872 84.8298 128.878C84.7207 128.822 84.6271 128.769 84.543 128.722C84.8048 125.645 85.391 120.382 85.7152 117.455Z" fill="#263238"/>
<path d="M108.025 55.6511C108.044 55.5292 108.057 55.4064 108.063 55.2832C108.147 53.5187 107.068 51.832 105.591 50.8656C104.266 49.9989 102.866 49.3597 101.697 48.2592L105.167 46.0769C107.287 44.9109 107.19 42.9593 106.657 41.5189C105.469 38.2953 101.962 37.1168 99.798 37.0202C95.6921 36.8362 93.6968 37.9149 93.2947 40.0443C91.7795 39.9352 90.4483 41.5563 90.2331 46.1455C90.2106 47.0406 90.0508 47.927 89.7593 48.7736C89.4955 49.4862 89.016 50.0987 88.3875 50.5257C87.2059 51.4267 85.7531 52.1157 84.9581 53.4407C84.4799 54.252 84.3199 55.2119 84.5092 56.1343C84.6429 56.7214 84.9265 57.2638 85.3322 57.7087C85.5131 57.8947 85.6369 58.1287 85.6889 58.3829C85.7408 58.6371 85.7187 58.9008 85.6253 59.1428C85.4388 59.749 85.4016 60.3913 85.5166 61.0149C85.6317 61.6386 85.8957 62.2253 86.2862 62.725C86.9472 63.4982 88.2192 64.2308 89.2293 64.2838C90.3583 64.3416 91.4876 64.1763 92.5527 63.7975C93.2947 63.5379 94.0768 63.4112 94.8628 63.4233C95.7981 63.4421 96.7334 63.838 97.6126 64.0968C98.6913 64.4085 99.7419 64.8543 100.892 64.7203C101.985 64.5519 102.994 64.0333 103.767 63.2425C104.222 62.7848 104.545 62.2129 104.702 61.5871C104.774 61.347 105.061 58.7812 104.758 58.8061C106.404 58.7407 107.76 57.2723 108.025 55.6511Z" fill="#263238"/>
<path d="M108.004 52.7508C107.006 52.7318 106.031 53.0467 105.232 53.6456C104.609 54.054 102.19 55.8279 102.19 55.8279L99.8014 57.6673C99.8014 57.6673 96.2068 53.5707 94.782 53.3338L94.1211 57.5831C94.1211 57.5831 96.927 60.4825 97.8997 61.6828C98.5793 62.5214 99.3306 63.1138 100.621 62.3469C101.912 61.5799 106.857 58.1973 106.857 58.1973L108.004 52.7508Z" fill="#B16668"/>
<path d="M108.005 52.6484C107.136 52.6591 106.286 52.9012 105.542 53.3499C104.899 53.7552 101.691 56.0778 101.691 56.0778C101.691 56.0778 102.527 58.999 104.563 59.4636L107.68 57.7489L108.005 52.6484Z" fill="#37474F"/>
<path d="M86.913 95.3063C86.913 90.8263 86.118 83.0665 87.4898 79.0728C88.8615 75.0791 90.2302 72.4697 90.2676 71.2008C90.2676 71.2008 88.9551 63.9305 88.7898 62.4309C88.3627 58.5246 89.0611 56.6914 89.8467 56.2736C90.8002 55.9017 91.7733 55.5822 92.7617 55.3165C95.4647 54.5465 99.3399 54.4498 101.859 54.4872C102.794 54.5371 103.106 54.5714 103.106 54.5714C104.337 55.4872 105.475 56.5232 106.501 57.6641C108.503 59.9867 109.831 62.0942 109.513 64.4823C109.337 65.5215 108.878 66.4922 108.188 67.2882C108.032 68.4448 107.779 71.7215 107.779 71.7215C107.81 73.009 108.054 74.7767 108.715 77.8788C108.715 77.8788 110.208 90.8294 110.208 97.8534C110.077 99.6117 109.98 101.872 109.98 101.872C109.834 105.545 94.227 112.029 86.1367 102.312C86.8288 99.9048 86.913 96.9742 86.913 95.3063Z" fill="#751F91"/>
<path opacity="0.05" d="M105.101 103.028C105.101 98.1959 104.256 90.5733 103.006 88.207C101.756 85.8407 103.916 87.0348 105.104 85.1081C106.42 82.9757 107.371 80.6468 107.545 82.6327C107.72 84.6186 106.781 97.0673 106.42 100.119C106.058 103.172 105.101 105.937 105.101 103.028Z" fill="black"/>
<path d="M93.8111 49.8498C93.4593 49.8903 93.103 49.8406 92.7758 49.7053C92.4485 49.5701 92.1611 49.3537 91.9406 49.0766C90.9772 47.9512 90.918 46.835 91.4043 46.1086C91.8034 45.5101 92.7543 45.1484 93.3996 45.5786C94.045 46.0089 94.1011 46.4017 94.3536 46.9068C94.6061 47.4118 95.6318 47.3993 95.9373 45.3978C96.2211 43.5272 96.5609 41.8219 97.4962 41.002C98.9053 39.7767 100.424 40.0293 100.947 40.79C101.533 39.9326 102.394 39.6053 103.317 40.1353C104.24 40.6653 104.91 42.0807 105.128 45.6472C105.349 49.2824 104.505 51.8295 103.666 52.4156C103.024 52.8583 102.219 52.9362 100.86 52.9549L100.941 55.0781C100.941 55.0781 103.781 59.4022 99.161 58.4825C98.2542 58.2862 97.4005 57.8966 96.658 57.3403C95.9155 56.7839 95.3018 56.074 94.8587 55.2589L94.5999 49.3042C94.5999 49.3042 94.5157 49.7407 93.8111 49.8498Z" fill="#FFA8A7"/>
<path d="M99.5142 48.7227L101.385 49.3929C101.346 49.5175 101.283 49.633 101.198 49.7328C101.114 49.8325 101.011 49.9146 100.895 49.9741C100.779 50.0336 100.652 50.0693 100.522 50.0793C100.392 50.0893 100.261 50.0732 100.138 50.0321C99.8849 49.9364 99.6789 49.7467 99.5627 49.5027C99.4465 49.2587 99.4291 48.9792 99.5142 48.7227Z" fill="#B16668"/>
<path d="M99.7073 49.0663C99.6287 49.047 99.5482 49.0365 99.4673 49.0352C99.4608 49.2498 99.5216 49.4611 99.6412 49.6395C99.7609 49.8178 99.9333 49.9543 100.134 50.0297C100.235 50.0639 100.34 50.0807 100.446 50.0796C100.476 49.8482 100.417 49.614 100.279 49.4254C100.142 49.2369 99.9369 49.1083 99.7073 49.0663Z" fill="#F28F8F"/>
<path d="M99.5787 45.8029C99.5363 45.9124 99.4627 46.007 99.367 46.0749C99.2713 46.1429 99.1578 46.1812 99.0405 46.1851C98.9232 46.189 98.8073 46.1584 98.7073 46.097C98.6073 46.0356 98.5275 45.9461 98.4779 45.8398C98.4283 45.7334 98.4111 45.6148 98.4284 45.4987C98.4457 45.3826 98.4967 45.2742 98.5752 45.1869C98.6536 45.0995 98.7559 45.0372 98.8695 45.0076C98.9831 44.978 99.1029 44.9825 99.2139 45.0204C99.3639 45.0786 99.4857 45.1925 99.5536 45.3383C99.6216 45.4842 99.6306 45.6506 99.5787 45.8029Z" fill="#263238"/>
<path d="M104.202 44.179L102.887 43.6147C102.919 43.5273 102.969 43.4475 103.034 43.3801C103.098 43.3127 103.175 43.2591 103.261 43.2226C103.347 43.1862 103.439 43.1676 103.532 43.168C103.626 43.1684 103.718 43.1878 103.803 43.225C103.98 43.3021 104.12 43.4442 104.194 43.6219C104.268 43.7996 104.271 43.9992 104.202 44.179Z" fill="#263238"/>
<path d="M102.772 45.704C102.823 45.8559 102.93 45.9824 103.072 46.0573C103.213 46.1322 103.378 46.1497 103.533 46.1062C103.684 46.0498 103.808 45.9366 103.878 45.7906C103.948 45.6446 103.958 45.4771 103.907 45.3236C103.883 45.2475 103.844 45.1768 103.793 45.1157C103.742 45.0547 103.679 45.0045 103.608 44.9682C103.537 44.9318 103.459 44.91 103.38 44.904C103.3 44.8981 103.22 44.908 103.145 44.9334C103.069 44.9587 102.999 44.9989 102.939 45.0516C102.88 45.1043 102.831 45.1684 102.796 45.2402C102.761 45.312 102.741 45.39 102.737 45.4697C102.733 45.5493 102.745 45.629 102.772 45.704Z" fill="#263238"/>
<path d="M99.1423 43.4897L97.783 44.1787C97.7331 44.0919 97.7015 43.9957 97.6902 43.8961C97.6789 43.7966 97.6882 43.6957 97.7174 43.5999C97.7466 43.5041 97.7952 43.4152 97.8601 43.3389C97.925 43.2626 98.0049 43.2004 98.0948 43.1561C98.2791 43.0684 98.4899 43.0541 98.6844 43.116C98.879 43.178 99.0426 43.3116 99.1423 43.4897Z" fill="#263238"/>
<path d="M100.826 44.5508L101.129 48.1236L103.083 47.4346L100.826 44.5508Z" fill="#F28F8F"/>
<path d="M100.867 52.9552C99.5482 52.881 98.2491 52.6012 97.0167 52.1259C96.5708 51.9358 95.966 51.1221 95.4766 50.2148C95.4766 50.2148 95.8195 52.0012 96.786 52.6154C98.2575 53.5507 100.898 53.7752 100.898 53.7752L100.867 52.9552Z" fill="#F28F8F"/>
<path d="M110.66 82.2695C110.791 82.7528 112.366 88.3676 112.366 88.3676C112.366 88.3676 110.95 90.6809 109.08 90.1384C108.983 89.1564 106.897 85.8673 105.65 83.6569C106.402 83.6039 110.255 82.4316 110.66 82.2695Z" fill="#B16668"/>
<path d="M113.373 89.9141L107.587 96.5234L107.512 96.6294C107.568 96.7827 107.674 96.9125 107.813 96.9975C107.953 97.0824 108.117 97.1176 108.279 97.0971C108.958 97.0971 110.614 96.4735 111.639 95.4104C112.665 94.3473 112.805 92.7885 112.918 92.4113C113.114 91.7535 113.828 91.5134 113.897 90.8525C113.844 90.4857 113.657 90.1514 113.373 89.9141Z" fill="#263238"/>
<path d="M108.453 90.0083C108.507 90.2064 108.59 90.3955 108.699 90.5694C108.788 90.8175 108.803 91.0861 108.742 91.3426C108.623 91.9922 108.413 92.6219 108.119 93.2132C107.851 93.7677 107.549 94.305 107.215 94.8219C107.037 95.1006 106.978 95.4384 107.049 95.7611C107.12 96.0837 107.317 96.3649 107.595 96.5428C108.295 96.6152 109 96.4704 109.615 96.1282C110.788 95.5576 111.445 95.0401 112.016 93.9178C112.412 93.1384 112.353 92.6084 112.755 91.829C112.917 91.5172 113.618 90.9155 113.69 90.3107C113.59 89.8816 113.39 89.4822 113.107 89.1447C112.939 88.9161 112.802 88.6654 112.702 88.3996C112.562 87.9818 112.587 87.776 112.446 87.589C112.414 87.5384 112.366 87.5005 112.309 87.4818C112.252 87.463 112.19 87.4646 112.134 87.4861L112.225 87.7979C112.312 88.2499 111.464 88.9452 111.05 89.1447C110.887 88.8641 110.869 88.7238 110.66 88.6552C110.372 88.6215 110.082 88.684 109.834 88.8329C109.471 89.0004 109.129 89.2096 108.814 89.4565C108.661 89.5455 108.544 89.6857 108.484 89.8524C108.462 89.9015 108.452 89.9547 108.453 90.0083Z" fill="#751F91"/>
<path opacity="0.25" d="M108.453 90.0083C108.507 90.2064 108.59 90.3955 108.699 90.5694C108.788 90.8175 108.803 91.0861 108.742 91.3426C108.623 91.9922 108.413 92.6219 108.119 93.2132C107.851 93.7677 107.549 94.305 107.215 94.8219C107.037 95.1006 106.978 95.4384 107.049 95.7611C107.12 96.0837 107.317 96.3649 107.595 96.5428C108.295 96.6152 109 96.4704 109.615 96.1282C110.788 95.5576 111.445 95.0401 112.016 93.9178C112.412 93.1384 112.353 92.6084 112.755 91.829C112.917 91.5172 113.618 90.9155 113.69 90.3107C113.59 89.8816 113.39 89.4822 113.107 89.1447C112.939 88.9161 112.802 88.6654 112.702 88.3996C112.562 87.9818 112.587 87.776 112.446 87.589C112.414 87.5384 112.366 87.5005 112.309 87.4818C112.252 87.463 112.19 87.4646 112.134 87.4861L112.225 87.7979C112.312 88.2499 111.464 88.9452 111.05 89.1447C110.887 88.8641 110.869 88.7238 110.66 88.6552C110.372 88.6215 110.082 88.684 109.834 88.8329C109.471 89.0004 109.129 89.2096 108.814 89.4565C108.661 89.5455 108.544 89.6857 108.484 89.8524C108.462 89.9015 108.452 89.9547 108.453 90.0083Z" fill="black"/>
<path d="M108.148 92.9256C108.204 92.8492 108.27 92.781 108.345 92.723C108.497 92.5965 108.672 92.4992 108.859 92.4362C109.249 92.2981 109.666 92.2564 110.075 92.3146C110.159 92.3146 110.172 92.5141 110.075 92.5048C109.7 92.4772 109.323 92.5326 108.972 92.6669C108.82 92.7185 108.672 92.7799 108.529 92.8508C108.371 92.9195 108.233 93.0267 108.127 93.1626C108.112 93.124 108.107 93.0826 108.111 93.0416C108.114 93.0006 108.127 92.961 108.148 92.9256Z" fill="#FAFAFA"/>
<path d="M108.512 92.0697C108.562 91.9959 108.624 91.9316 108.696 91.8795C108.772 91.8106 108.857 91.7519 108.949 91.705C109.042 91.6644 109.139 91.6332 109.235 91.6021C109.413 91.547 109.594 91.5043 109.778 91.4743C109.937 91.4462 110.27 91.4119 110.233 91.5553V91.5803C110.171 91.6956 109.984 91.6831 109.871 91.6987C109.691 91.7271 109.513 91.7667 109.338 91.8172C109.169 91.8635 109.004 91.924 108.846 91.998C108.767 92.0381 108.693 92.0861 108.624 92.1414C108.574 92.1783 108.536 92.2293 108.515 92.288C108.45 92.2537 108.475 92.1258 108.512 92.0697Z" fill="#FAFAFA"/>
<path d="M108.656 91.4173C108.667 91.3248 108.699 91.236 108.748 91.1572C108.798 91.0784 108.864 91.0118 108.943 90.9621C109.072 90.8517 109.218 90.7641 109.377 90.7034C109.561 90.6297 109.752 90.5754 109.947 90.5413C110.013 90.5413 110.081 90.5163 110.15 90.5101H110.2H110.271C110.299 90.5071 110.328 90.5071 110.356 90.5101C110.384 90.5105 110.41 90.5216 110.43 90.5413C110.44 90.556 110.445 90.5734 110.445 90.5911C110.445 90.6089 110.44 90.6262 110.43 90.641C110.424 90.6545 110.414 90.6662 110.402 90.6753L110.365 90.6971C110.337 90.7093 110.308 90.7187 110.278 90.7252H110.246C110.187 90.7347 110.126 90.7409 110.066 90.7439H110.034H109.994C109.933 90.7491 109.873 90.7575 109.813 90.7688L109.723 90.7907L109.679 90.8063H109.66H109.632H109.585L109.495 90.8406C109.367 90.8905 109.244 90.952 109.127 91.0245C109.063 91.0646 109.001 91.1094 108.943 91.1585C108.858 91.223 108.788 91.3048 108.737 91.3986C108.697 91.4921 108.653 91.4422 108.656 91.4173Z" fill="#FAFAFA"/>
<path d="M107.518 96.626C106.748 96.1178 106.601 95.379 107.256 94.4873C107.911 93.5957 109.526 93.1311 110.274 93.2122C111.022 93.2933 111.646 93.5832 111.77 94.3283C111.77 94.3283 111.187 95.5348 109.482 96.3298C108.879 96.6455 108.187 96.7498 107.518 96.626Z" fill="#FAFAFA"/>
<path d="M109.096 76.5551C109.725 78.1861 110.261 79.8515 110.701 81.5433C111.181 83.6259 111.792 85.7646 111.792 85.7646C111.792 85.7646 110.495 87.4419 107.658 87.685C107.658 87.685 105.504 83.9813 104.004 81.4903C102.305 78.6845 101.158 77.2254 101.666 74.8872C102.446 70.8842 104.332 66.1578 104.581 64.1875L116.603 64.7549L109.096 76.5551Z" fill="#455A64"/>
<path d="M111.539 87.6792C111.489 88.178 110.916 93.9799 110.916 93.9799C110.916 93.9799 108.761 95.626 107.215 94.4414C107.48 93.4905 106.726 89.6714 106.352 87.1523C107.087 87.383 111.103 87.6823 111.539 87.6792Z" fill="#F28F8F"/>
<path d="M111.375 95.5508L103.521 99.8531L103.412 99.9279C103.412 100.168 103.481 100.442 103.958 100.639C104.581 100.901 106.358 100.91 107.699 100.286C109.039 99.6629 109.732 98.2631 109.975 97.9545C110.399 97.4089 111.222 97.2187 111.534 96.5453C111.542 96.2069 111.488 95.8698 111.375 95.5508Z" fill="#263238"/>
<path d="M106.685 94.0851C106.662 94.293 106.671 94.5031 106.71 94.7086C106.704 94.9717 106.621 95.2273 106.473 95.4444C106.128 96.0023 105.709 96.5101 105.226 96.9533C104.776 97.375 104.3 97.7676 103.801 98.1286C103.535 98.3242 103.358 98.617 103.308 98.9431C103.257 99.2691 103.338 99.6018 103.533 99.8683C104.157 100.191 104.866 100.313 105.562 100.217C106.862 100.108 107.664 99.862 108.602 99.0234C109.254 98.4404 109.391 97.926 110.049 97.343C110.31 97.1123 111.252 96.5667 111.523 96.0242C111.607 95.6428 111.568 95.2449 111.414 94.8863C111.31 94.645 111.246 94.3879 111.227 94.1256C111.246 93.6798 111.339 93.5021 111.28 93.2745C111.268 93.2153 111.236 93.162 111.19 93.1235C111.143 93.0849 111.085 93.0634 111.024 93.0625L110.99 93.3992C110.909 93.8513 109.865 94.1942 109.406 94.2285C109.36 93.9167 109.406 93.7733 109.222 93.633C108.966 93.498 108.673 93.4499 108.387 93.4958C107.987 93.5243 107.592 93.5986 107.208 93.7172C107.033 93.7451 106.873 93.8333 106.756 93.9666C106.726 94.0018 106.702 94.0419 106.685 94.0851Z" fill="#751F91"/>
<path opacity="0.15" d="M106.685 94.0851C106.662 94.293 106.671 94.5031 106.71 94.7086C106.704 94.9717 106.621 95.2273 106.473 95.4444C106.128 96.0023 105.709 96.5101 105.226 96.9533C104.776 97.375 104.3 97.7676 103.801 98.1286C103.535 98.3242 103.358 98.617 103.308 98.9431C103.257 99.2691 103.338 99.6018 103.533 99.8683C104.157 100.191 104.866 100.313 105.562 100.217C106.862 100.108 107.664 99.862 108.602 99.0234C109.254 98.4404 109.391 97.926 110.049 97.343C110.31 97.1123 111.252 96.5667 111.523 96.0242C111.607 95.6428 111.568 95.2449 111.414 94.8863C111.31 94.645 111.246 94.3879 111.227 94.1256C111.246 93.6798 111.339 93.5021 111.28 93.2745C111.268 93.2153 111.236 93.162 111.19 93.1235C111.143 93.0849 111.085 93.0634 111.024 93.0625L110.99 93.3992C110.909 93.8513 109.865 94.1942 109.406 94.2285C109.36 93.9167 109.406 93.7733 109.222 93.633C108.966 93.498 108.673 93.4499 108.387 93.4958C107.987 93.5243 107.592 93.5986 107.208 93.7172C107.033 93.7451 106.873 93.8333 106.756 93.9666C106.726 94.0018 106.702 94.0419 106.685 94.0851Z" fill="black"/>
<path d="M105.342 96.702C105.42 96.6512 105.505 96.6123 105.594 96.5866C105.783 96.524 105.981 96.4966 106.18 96.5056C106.591 96.5131 106.995 96.6201 107.356 96.8173C107.43 96.8579 107.374 97.0418 107.29 96.9951C106.949 96.8358 106.578 96.7518 106.202 96.7488C106.042 96.7394 105.882 96.7394 105.722 96.7488C105.549 96.7595 105.381 96.8119 105.232 96.9015C105.236 96.8626 105.248 96.8248 105.266 96.7905C105.285 96.7562 105.311 96.7261 105.342 96.702Z" fill="#FAFAFA"/>
<path d="M105.99 96.04C106.061 95.9879 106.14 95.9469 106.224 95.9184C106.324 95.8818 106.429 95.8587 106.535 95.8498C106.639 95.8417 106.743 95.8417 106.847 95.8498C107.033 95.8607 107.217 95.8858 107.399 95.9246C107.558 95.9558 107.879 96.0462 107.792 96.1678L107.773 96.1865C107.673 96.2707 107.502 96.1865 107.393 96.1647C107.215 96.124 107.035 96.0959 106.853 96.0805C106.679 96.0665 106.504 96.0665 106.33 96.0805C106.242 96.0885 106.155 96.1063 106.071 96.1335C106.011 96.1516 105.957 96.1861 105.915 96.2333C105.862 96.1896 105.934 96.0774 105.99 96.04Z" fill="#FAFAFA"/>
<path d="M106.357 95.4819C106.403 95.4018 106.465 95.3324 106.54 95.2786C106.615 95.2248 106.7 95.1878 106.791 95.1701C106.95 95.1137 107.118 95.0852 107.287 95.086C107.485 95.0852 107.684 95.104 107.879 95.1421C107.944 95.1421 108.013 95.167 108.078 95.1857H108.125H108.15H108.175H108.194C108.22 95.1961 108.245 95.2097 108.269 95.2262C108.294 95.2382 108.315 95.2578 108.328 95.2824C108.333 95.2994 108.333 95.3177 108.328 95.335C108.323 95.3522 108.313 95.3675 108.3 95.379C108.289 95.3892 108.276 95.3967 108.262 95.4008H108.237H108.191C108.161 95.4039 108.13 95.4039 108.1 95.4008H108.072C108.013 95.4008 107.954 95.3697 107.894 95.3541H107.863C107.851 95.3568 107.838 95.3568 107.826 95.3541C107.767 95.3385 107.707 95.3229 107.648 95.3135H107.555H107.299C107.162 95.3123 107.025 95.3237 106.891 95.3478C106.816 95.3639 106.742 95.3847 106.669 95.4102C106.566 95.438 106.47 95.488 106.389 95.5567C106.364 95.5661 106.345 95.5037 106.357 95.4819Z" fill="#FAFAFA"/>
<path d="M103.412 99.9283C102.879 99.1739 103.01 98.4256 103.942 97.8395C104.874 97.2534 106.549 97.3968 107.219 97.7429C107.889 98.0889 108.363 98.5877 108.207 99.3266C108.207 99.3266 107.225 100.24 105.351 100.362C104.675 100.438 103.992 100.285 103.412 99.9283Z" fill="#FAFAFA"/>
<path d="M116.803 64.1761C116.831 65.4388 117.361 67.1784 117.071 69.8253C116.781 72.4721 114.24 76.8399 113.445 78.2023C112.65 79.5647 111.659 81.3823 111.659 81.3823C111.659 81.3823 112.154 84.8959 111.849 87.0127C111.543 89.1296 111.337 91.3431 111.337 91.3431C111.337 91.3431 109.523 92.4405 106.789 91.6362C106.789 91.6362 106.122 87.4055 105.626 84.5405C105.062 81.2981 104.672 80.2537 105.479 77.002C106.349 73.4947 107.518 71.6397 107.518 71.6397C107.518 71.6397 105.102 67.7926 105.218 63.9922L116.803 64.1761Z" fill="#455A64"/>
<path d="M111.698 78.5995C112.156 77.7266 112.73 76.6385 113.457 75.1701C115.726 70.6153 115.848 68.3114 115.259 64.9069L115.505 64.8633C116.1 68.3363 115.979 70.6652 113.678 75.2824C112.951 76.7414 112.378 77.8326 111.92 78.7118C111.019 80.4265 110.644 81.1373 110.651 81.6891C110.962 83.6158 110.99 84.6664 110.688 88.1706C110.585 89.3553 110.47 90.5245 110.348 91.6936C110.267 91.7216 110.199 91.731 110.111 91.7528C110.236 90.5556 110.336 89.3709 110.442 88.1488C110.754 84.6664 110.707 83.6345 110.404 81.7109C110.395 81.0812 110.775 80.3423 111.698 78.5995Z" fill="#37474F"/>
<path d="M115.521 69.8382L115.564 69.595C114.005 69.3175 113.263 67.793 113.429 65.1836L113.179 65.168C112.961 68.6472 114.333 69.6262 115.521 69.8382Z" fill="#37474F"/>
<path d="M107.512 71.6385C108.822 69.7461 110.87 69.849 112.217 69.9238C108.822 68.7516 106.954 70.9838 106.954 70.9838C106.051 70.3367 105.341 69.4548 104.903 68.4336C104.828 70.2543 106.599 71.5512 106.599 71.5512C106.599 71.5512 105.227 76.7982 105.04 78.8371C105.683 76.3792 106.509 73.9729 107.512 71.6385Z" fill="#37474F"/>
<path d="M117.594 63.196C117.824 60.7393 118.089 58.1298 118.195 57.5157C118.41 56.2686 118.264 54.2421 116.636 53.656C115.009 53.0699 114.108 52.8143 114.108 52.8143C114.108 52.8143 111.168 52.5742 110.46 52.5742C109.232 52.5742 108.013 52.6522 108.013 52.6522C107.287 53.1292 105.363 54.4542 104.895 58.9591C104.671 60.9976 104.344 63.0235 103.917 65.0291C103.9 65.1737 103.916 65.3202 103.963 65.4578C104.011 65.5954 104.089 65.7206 104.191 65.8241C106.308 68.2839 114.382 69.453 117.129 67.6355C117.293 67.5159 117.424 67.3563 117.508 67.1717C117.593 66.9872 117.629 66.784 117.612 66.5817C117.504 65.456 117.497 64.3228 117.594 63.196Z" fill="#751F91"/>
<path opacity="0.3" d="M117.594 63.196C117.824 60.7393 118.089 58.1298 118.195 57.5157C118.41 56.2686 118.264 54.2421 116.636 53.656C115.009 53.0699 114.108 52.8143 114.108 52.8143C114.108 52.8143 111.168 52.5742 110.46 52.5742C109.232 52.5742 108.013 52.6522 108.013 52.6522C107.287 53.1292 105.363 54.4542 104.895 58.9591C104.671 60.9976 104.344 63.0235 103.917 65.0291C103.9 65.1737 103.916 65.3202 103.963 65.4578C104.011 65.5954 104.089 65.7206 104.191 65.8241C106.308 68.2839 114.382 69.453 117.129 67.6355C117.293 67.5159 117.424 67.3563 117.508 67.1717C117.593 66.9872 117.629 66.784 117.612 66.5817C117.504 65.456 117.497 64.3228 117.594 63.196Z" fill="white"/>
<path d="M114.678 51.172C115.978 50.1401 117.231 49.8346 118.31 47.8424C119.389 45.8502 118.7 43.9485 117.615 43.431C117.615 43.431 117.721 41.5604 115.657 40.2759C114.027 39.2752 111.564 38.8605 109.796 39.5558C108.836 39.933 108.072 40.279 107.489 41.1146C106.839 42.0514 106.53 43.1825 106.613 44.3195C106.737 45.0863 107.125 45.7855 107.71 46.2961C108.274 46.8073 114.678 51.172 114.678 51.172Z" fill="#263238"/>
<path d="M115.214 47.7705C115.23 47.7916 115.248 47.8115 115.267 47.8297C115.56 48.0822 115.632 47.5179 116 47.1906C116.099 47.1078 116.216 47.0488 116.342 47.018C116.468 46.9872 116.599 46.9855 116.726 47.0129C116.936 47.0354 117.135 47.1193 117.298 47.254C117.461 47.3887 117.581 47.5683 117.643 47.7705C117.691 47.9763 117.697 48.1898 117.661 48.3981C117.626 48.6065 117.548 48.8056 117.435 48.9837C117.321 49.1619 117.172 49.3154 116.998 49.4352C116.824 49.5551 116.628 49.6388 116.42 49.6816C116.178 49.7432 115.922 49.732 115.685 49.6494C115.448 49.5669 115.241 49.4165 115.089 49.217L114.594 53.0735C113.669 53.687 112.606 54.059 111.501 54.1554C109.194 54.4016 108.823 53.2793 109.736 52.6402L109.864 51.6519C109.305 51.5822 108.759 51.4243 108.249 51.1843C106.821 50.4236 106.6 49.1453 106.503 48.4782C106.379 47.6083 106.675 46.7292 107.105 45.6723C107.292 45.2171 107.105 44.7838 107.174 44.4689C107.218 44.2124 107.299 43.9636 107.414 43.73C108.128 43.8741 108.864 43.873 109.578 43.7267C110.292 43.5805 110.969 43.2922 111.569 42.8789C111.306 43.2664 110.968 43.5976 110.575 43.8534C110.182 44.1093 109.742 44.2845 109.281 44.3691C111.258 45.3605 113.403 44.5094 114.213 43.3154C114.048 43.8909 114.048 44.5013 114.213 45.0768C114.408 45.6643 114.765 46.185 115.242 46.5795C115.133 46.8708 115.095 47.1842 115.133 47.493C115.139 47.5904 115.166 47.6852 115.214 47.7705Z" fill="#F28F8F"/>
<path d="M111.721 45.3395L112.831 46.069C112.924 45.9174 112.955 45.7356 112.918 45.5614C112.881 45.3872 112.778 45.234 112.631 45.1337C112.558 45.0859 112.477 45.0533 112.391 45.0377C112.305 45.0222 112.217 45.0241 112.132 45.0433C112.047 45.0625 111.967 45.0986 111.896 45.1495C111.826 45.2004 111.766 45.265 111.721 45.3395Z" fill="#263238"/>
<path d="M110.846 48.4921C110.486 48.5634 110.118 48.5865 109.752 48.5607C109.693 48.558 109.635 48.5718 109.585 48.6005C109.534 48.6293 109.492 48.6717 109.464 48.7231C109.436 48.7745 109.423 48.8327 109.426 48.8911C109.43 48.9495 109.45 49.0057 109.484 49.0533C109.592 49.1799 109.731 49.2778 109.886 49.3382C110.042 49.3985 110.21 49.4196 110.375 49.3994C110.546 49.4027 110.713 49.3568 110.858 49.2672C111.003 49.1776 111.119 49.0482 111.192 48.8943C111.208 48.8436 111.211 48.7897 111.201 48.7376C111.19 48.6855 111.166 48.637 111.131 48.5967C111.097 48.5564 111.052 48.5256 111.002 48.5073C110.952 48.489 110.899 48.4838 110.846 48.4921Z" fill="#B16668"/>
<path d="M110.023 49.3094V49.2876C110.12 49.0868 110.287 48.9282 110.493 48.8416C110.698 48.7549 110.928 48.7461 111.14 48.8168C111.136 48.8394 111.13 48.8614 111.121 48.8823C111.053 49.0228 110.947 49.141 110.814 49.2228C110.682 49.3046 110.528 49.3465 110.373 49.3437C110.255 49.3498 110.137 49.3382 110.023 49.3094Z" fill="#FFA8A7"/>
<path d="M107.565 44.7715L108.893 44.6063C108.887 44.5194 108.863 44.4346 108.823 44.3572C108.783 44.2798 108.727 44.2114 108.66 44.1562C108.593 44.101 108.515 44.0602 108.431 44.0363C108.347 44.0123 108.259 44.0058 108.173 44.0171C107.994 44.0412 107.832 44.1329 107.718 44.2732C107.605 44.4136 107.55 44.5919 107.565 44.7715Z" fill="#263238"/>
<path d="M110.32 45.5781L109.728 47.8976L108.496 47.2648L110.32 45.5781Z" fill="#B16668"/>
<path d="M111.336 46.5629C111.336 46.6603 111.365 46.7556 111.419 46.8366C111.473 46.9176 111.55 46.9807 111.64 47.018C111.73 47.0553 111.829 47.065 111.925 47.046C112.02 47.027 112.108 46.9801 112.177 46.9112C112.246 46.8423 112.293 46.7545 112.312 46.659C112.331 46.5634 112.321 46.4644 112.284 46.3744C112.246 46.2844 112.183 46.2075 112.102 46.1533C112.021 46.0992 111.926 46.0703 111.829 46.0703C111.764 46.0703 111.7 46.0831 111.64 46.1078C111.58 46.1326 111.526 46.1688 111.48 46.2146C111.434 46.2603 111.398 46.3146 111.373 46.3744C111.349 46.4342 111.336 46.4982 111.336 46.5629Z" fill="#263238"/>
<path d="M107.729 45.7895C107.729 45.8869 107.757 45.9821 107.812 46.0631C107.866 46.1441 107.943 46.2073 108.033 46.2445C108.123 46.2818 108.222 46.2916 108.317 46.2726C108.413 46.2536 108.501 46.2067 108.569 46.1378C108.638 46.0689 108.685 45.9811 108.704 45.8856C108.723 45.79 108.713 45.691 108.676 45.601C108.639 45.5109 108.576 45.434 108.495 45.3799C108.414 45.3258 108.319 45.2969 108.221 45.2969C108.09 45.2969 107.965 45.3488 107.873 45.4411C107.78 45.5335 107.729 45.6588 107.729 45.7895Z" fill="#263238"/>
<path d="M109.877 51.6629C110.97 51.7875 112.078 51.6152 113.082 51.1641C113.641 50.8673 114.103 50.4174 114.416 49.8672C114.223 50.3969 113.918 50.8786 113.521 51.2795C112.087 52.4642 109.799 52.2615 109.799 52.2615L109.877 51.6629Z" fill="#B16668"/>
<path d="M115.555 74.2814C115.268 74.8332 113.794 74.1723 112.634 74.3656C111.662 74.4936 110.677 74.4999 109.703 74.3843C109.008 74.3313 109.018 74.8956 109.682 75.3881C110.346 75.8807 111.836 75.8683 112.014 76.0117C112.191 76.1551 112.678 76.7163 111.546 77.0467C110.414 77.3772 108.977 77.6702 108.503 78.3094C108.029 78.9485 111.191 80.5135 112.328 79.7591C113.466 79.0046 113.485 79.1729 114.112 78.6367C116.076 76.9501 116.073 75.1107 115.864 73.6797L115.555 74.2814Z" fill="#F28F8F"/>
<path d="M96.2258 72.5149C97.875 73.5064 101.214 74.8906 103.527 75.9942C104.64 76.465 105.557 77.0355 106.751 77.2724C107.54 77.4096 108.622 76.9607 109.332 76.705C110.829 76.2561 112.138 76.3122 113.653 75.8602C114.277 75.67 114.155 76.6489 113.557 77.1696C112.958 77.6902 111.234 77.7931 111.169 78.6286C111.189 78.6621 111.217 78.6905 111.25 78.7115C111.283 78.7326 111.32 78.7458 111.359 78.7502C114.398 79.0807 114.788 77.9053 115.159 77.5031C115.361 77.6551 115.525 77.8519 115.638 78.0781C115.751 78.3042 115.81 78.5535 115.811 78.8063C115.699 79.168 115.381 79.2802 115.231 79.6294C115.081 79.9785 115.262 80.1469 114.988 80.4025C114.857 80.4836 114.732 80.574 114.604 80.6582C114.469 80.749 114.355 80.8684 114.271 81.0079C114.187 81.1474 114.135 81.3037 114.118 81.4657C113.912 82.1048 113.454 82.3822 112.843 82.588C111.767 82.8921 110.661 83.0741 109.544 83.1305C107.608 83.1118 106.364 82.2856 104.771 81.7618C103.674 81.4002 95.1565 79.0121 93.0521 78.2046C90.4676 77.2101 90.3304 76.2156 89.6539 74.2172C88.5814 71.0403 87.8799 68.9733 87.2627 66.8253C86.3274 63.5455 84.8621 59.53 87.6648 57.4724C88.3655 57.0183 89.118 56.6499 89.9064 56.375C89.9064 56.375 92.4192 57.7031 93.5447 62.0397C93.5416 62.021 96.1229 72.0348 96.2258 72.5149Z" fill="#FFA8A7"/>
<path d="M89.9379 56.2305C88.8709 56.5504 87.883 57.091 87.0385 57.8173C86.68 58.1727 85.4797 59.7471 86.0315 62.6434C86.5833 65.5397 88.2606 70.6775 88.2606 70.6775C88.2606 70.6775 89.1273 71.1701 91.9394 70.5684C94.7515 69.9667 95.4717 68.8662 95.4717 68.8662C95.4717 68.8662 94.0906 63.2389 93.732 61.7393C93.3735 60.2397 91.9581 57.1502 89.9379 56.2305Z" fill="#37474F"/>
<path d="M94.857 54.9883L94.7822 53.3359C94.3208 53.4108 93.7035 53.5573 92.6809 54.7545C91.7862 55.802 91.8205 56.3476 91.7675 57.2486C91.7207 58.0529 91.5648 58.6172 91.8547 58.6203C92.1447 58.6234 92.3411 58.2057 92.3629 57.8939C92.4061 57.5754 92.4813 57.262 92.5874 56.9586C92.5874 56.9586 92.6529 57.9625 92.9553 58.2743C93.3344 58.6605 93.7721 58.9845 94.2522 59.2345C94.6575 59.4091 94.8009 59.3966 94.91 59.1441C95.1314 59.2937 95.3434 59.6772 95.5523 59.7676C95.6087 59.7841 95.668 59.7891 95.7264 59.7822C95.7849 59.7754 95.8414 59.7569 95.8926 59.7278C95.9437 59.6987 95.9886 59.6597 96.0244 59.613C96.0601 59.5662 96.0862 59.5128 96.101 59.4558C96.2143 59.4277 96.3143 59.361 96.3837 59.2671C96.4531 59.1732 96.4876 59.058 96.4813 58.9414C96.4969 58.4894 96.048 57.95 95.8235 57.5884C95.599 57.2267 94.857 54.9883 94.857 54.9883Z" fill="#B16668"/>
<path d="M92.4852 57.8335C92.5231 57.7875 92.5707 57.7505 92.6246 57.7252C92.6785 57.6998 92.7374 57.6868 92.797 57.687C92.9122 57.6776 93.0279 57.6776 93.1431 57.687C93.2833 57.6988 93.4228 57.7186 93.5608 57.7462L94.0347 57.8647C94.2279 57.9139 94.4251 57.9463 94.6239 57.9613C94.6987 57.9613 94.8016 57.9613 94.8079 57.8709C94.8079 57.8477 94.8011 57.825 94.7884 57.8056C94.7757 57.7862 94.7575 57.7709 94.7362 57.7618C94.6364 57.7088 94.5321 57.665 94.4244 57.6308L93.0028 57.1601C92.8531 57.1102 92.691 57.0447 92.6349 56.8982C92.6164 56.8196 92.6214 56.7372 92.6491 56.6614C92.6768 56.5855 92.726 56.5194 92.7908 56.4711C92.8238 56.4479 92.8506 56.4168 92.8687 56.3807C92.8787 56.3526 92.8839 56.3231 92.8843 56.2934C92.8972 56.1555 92.9533 56.0253 93.0445 55.9212C93.1358 55.8171 93.2575 55.7444 93.3925 55.7135C93.4017 55.7154 93.4113 55.7154 93.4205 55.7135C93.4237 55.7023 93.4237 55.6904 93.4205 55.6792C93.4296 55.6022 93.461 55.5296 93.5109 55.4703C93.5741 55.3936 93.6625 55.3416 93.7603 55.3238C93.782 55.3209 93.803 55.3146 93.8227 55.3051C93.8853 55.2846 93.9502 55.272 94.016 55.2677C94.2989 55.2267 94.5844 55.2058 94.8702 55.2053C95.1178 55.1991 95.3652 55.2253 95.606 55.2833C95.5335 55.2304 95.4727 55.1634 95.4271 55.0862C95.3815 55.009 95.3522 54.9233 95.341 54.8343C95.341 54.5787 95.5842 54.694 95.8055 54.6784C96.0269 54.6629 96.5537 54.6566 96.7408 54.6317C96.9278 54.6067 97.1056 54.7502 97.514 54.9622C97.8953 55.1398 98.2569 55.3571 98.5927 55.6106C98.7049 55.7384 98.9605 56.1281 99.3222 56.6706C99.5903 57.0697 99.8241 57.1757 100.719 57.3877C102.306 57.7618 106.817 58.4321 106.817 58.4321L112.189 56.1094C112.189 56.1094 114.761 53.9084 116.906 54.1516C119.284 55.6699 118.536 59.1179 115.524 60.2278C113.342 61.0291 111.73 61.7243 109.938 62.273C107.484 63.0212 107.204 63.1833 105.885 62.7812C103.466 62.22 99.2474 60.4554 98.8545 60.3525C98.7364 60.3286 98.6165 60.314 98.496 60.3089L98.2747 60.2902C98.2394 60.2934 98.2039 60.2934 98.1687 60.2902C98.1429 60.2854 98.1165 60.2854 98.0907 60.2902C98.0284 60.2902 97.966 60.2902 97.9037 60.2902C97.779 60.2902 97.6574 60.2715 97.5327 60.2528C97.285 60.2218 97.04 60.1718 96.8 60.1031C96.5589 60.037 96.3224 59.9547 96.0923 59.8568L95.9333 59.782C95.7057 59.6573 95.475 59.5357 95.2412 59.4204C95.0074 59.305 94.7736 59.1897 94.5366 59.0837C94.2997 58.9777 94.0596 58.8717 93.8196 58.7719C93.5795 58.6721 93.3363 58.5817 93.0932 58.4944C93.0028 58.4601 92.9123 58.4258 92.8219 58.3853C92.776 58.3638 92.7312 58.3399 92.6879 58.3136C92.64 58.286 92.5951 58.2536 92.5538 58.217C92.513 58.184 92.4772 58.1451 92.4478 58.1016C92.4437 58.0842 92.4437 58.066 92.4478 58.0486C92.4356 57.9747 92.4487 57.8989 92.4852 57.8335Z" fill="#F28F8F"/>
<path d="M95.0484 56.0715C94.8115 55.9998 94.5652 55.9531 94.322 55.8938C94.0176 55.8025 93.7039 55.746 93.3867 55.7255C93.3991 55.7245 93.4109 55.7202 93.421 55.713C93.4242 55.7018 93.4242 55.6899 93.421 55.6787C93.425 55.6509 93.4323 55.6237 93.4428 55.5977C93.7229 55.604 94.0007 55.648 94.269 55.7286C94.4973 55.7865 94.7221 55.8573 94.9424 55.9406C95.198 56.0238 95.4461 56.128 95.6844 56.2524C95.6844 56.2524 95.7094 56.296 95.6844 56.2898C95.4818 56.2243 95.2698 56.1401 95.0484 56.0715Z" fill="#B16668"/>
<path d="M94.0218 56.5712C93.6442 56.447 93.2463 56.3962 92.8496 56.4215C92.8496 56.4215 92.8683 56.3997 92.8714 56.3841C92.8761 56.3615 92.8761 56.3382 92.8714 56.3155C93.2407 56.2493 93.6208 56.2794 93.9751 56.4028C94.2023 56.4608 94.4261 56.5315 94.6454 56.6148C94.9019 56.698 95.1511 56.8023 95.3905 56.9266C95.3905 56.9266 95.4154 56.9671 95.3905 56.9609C95.166 56.9048 94.954 56.8175 94.7327 56.752C94.5113 56.6865 94.265 56.646 94.0218 56.5712Z" fill="#B16668"/>
<path d="M96.7617 54.6229C96.8856 54.6254 97.0065 54.6621 97.1109 54.7289L97.4227 54.9128C97.6378 55.0313 97.8529 55.1498 98.0649 55.2745C98.1709 55.3368 98.2769 55.4023 98.3766 55.4678C98.4807 55.5271 98.571 55.6079 98.6416 55.7047C98.7819 55.9042 98.916 56.1131 99.0532 56.3282C99.1795 56.5481 99.3245 56.7567 99.4865 56.9518C99.6818 57.1128 99.9144 57.2222 100.163 57.2698C100.64 57.41 101.123 57.5098 101.607 57.6065C102.576 57.7873 102.935 57.8372 103.91 57.9899C104.886 58.1427 105.859 58.283 106.838 58.4108L103.926 57.9026C102.953 57.7312 102.595 57.6813 101.628 57.4911C101.145 57.4007 100.662 57.3041 100.191 57.1793C99.9591 57.1241 99.7448 57.0116 99.5676 56.852C99.4101 56.6673 99.2663 56.4715 99.1373 56.2659C98.9971 56.0632 98.8599 55.8575 98.7102 55.6579C98.6734 55.6053 98.6293 55.558 98.5793 55.5177L98.4265 55.4116C98.3205 55.3462 98.2145 55.2838 98.1148 55.2246C97.8965 55.1061 97.6752 54.9939 97.4569 54.8848L97.1452 54.7133C97.0297 54.6445 96.8958 54.6129 96.7617 54.6229Z" fill="#B16668"/>
<path d="M95.625 55.2753C95.625 55.2753 96.2485 55.4218 96.3919 55.4717C96.6665 55.6187 96.9589 55.7297 97.2618 55.8022C97.3343 55.8154 97.4092 55.8079 97.4776 55.7803C97.5461 55.7527 97.6053 55.7062 97.6483 55.6463C97.5579 55.6818 97.461 55.6981 97.3639 55.6944C97.2668 55.6906 97.1715 55.6668 97.084 55.6245C96.6943 55.4904 96.6258 55.2254 96.6725 55.0664C96.5572 55.1288 96.5509 55.4093 96.5509 55.4093C96.5509 55.4093 95.8526 55.1942 95.625 55.2753Z" fill="#B16668"/>
<path d="M116.865 53.7518C118.19 54.3005 118.736 55.6629 118.396 57.4368C118.056 59.2108 116.582 59.9122 115.678 60.3518C114.773 60.7914 111.534 61.8514 111.534 61.8514C111.577 60.8502 111.388 59.8526 110.982 58.9364C110.312 57.5023 109.639 57.2155 109.639 57.2155C109.639 57.2155 110.773 56.6294 112.033 55.9372C113.293 55.2451 115.169 53.1501 116.865 53.7518Z" fill="#37474F"/>
<path d="M104.619 109.305C104.272 96.4091 105.305 93.3216 108.736 90.9609L110.068 98.4312C110.068 98.4312 108.506 107.233 108.673 110.167C108.817 112.744 109.07 115.967 109.679 118.048C109.787 118.423 110.03 118.745 110.361 118.951C111.237 119.497 111.589 120.057 112.248 120.756C112.762 121.298 113.2 121.429 113.15 121.6C113.051 121.79 112.884 121.935 112.682 122.007C112.481 122.079 112.26 122.072 112.063 121.989C111.626 121.813 111.211 121.587 110.826 121.316C111.128 122.106 111.557 122.843 112.094 123.496C113.322 124.999 113.376 125.925 110.898 125.947C109.35 125.947 108.113 125.004 106.944 121.587C106.491 120.334 106.127 119.05 105.856 117.746C105.242 114.338 104.674 111.381 104.619 109.305Z" fill="#B16668"/>
<path d="M111.619 89.9814C109.981 89.7422 107.755 90.0853 106.315 92.6581C104.876 95.231 104.51 99.659 104.361 104.06C104.361 104.06 107.218 106.448 110.649 105.274L111.619 89.9814Z" fill="#6741A3"/>
<path opacity="0.1" d="M111.619 89.9814C109.981 89.7422 107.755 90.0853 106.315 92.6581C104.876 95.231 104.51 99.659 104.361 104.06C104.361 104.06 107.218 106.448 110.649 105.274L111.619 89.9814Z" fill="black"/>
<path d="M106.803 160.899C106.546 160.998 106.478 161.495 106.437 162.479C106.41 163.224 106.248 164.528 107.124 164.785C107.999 165.043 109.277 164.912 109.832 164.212C110.531 163.309 111.001 162.56 111.998 161.504C112.865 160.574 113.804 159.698 114.147 158.407C114.463 157.229 114.201 156.719 113.398 156.376C112.296 155.925 110.559 157.446 109.696 157.685C108.956 157.902 107.065 160.8 106.803 160.899Z" fill="#263238"/>
<path d="M106.803 159.989V161.198C107.258 161.489 107.783 161.65 108.322 161.664C108.862 161.679 109.394 161.546 109.864 161.28C109.913 161.162 110.18 159.551 110.18 159.551L106.803 159.989Z" fill="#B16668"/>
<path d="M116.585 167.871C116.374 168.519 116.196 169.177 116.052 169.844C115.903 170.575 115.691 171.798 115.944 172.349C116.197 172.899 117.199 173.252 118.751 173.252C119.753 173.252 121.315 173.924 122.385 174.52C123.455 175.116 125.793 175.382 126.962 175.247C128.339 175.084 129.765 174.285 129.991 173.712C130.216 173.139 129.918 172.552 126.668 171.166C126.637 171.166 122.155 169.695 120.584 167.961L116.585 167.871Z" fill="#263238"/>
<path d="M116.586 166.562C116.586 166.562 116.586 167.465 116.586 167.975C116.586 168.485 117.186 169.253 118.757 169.194C119.859 169.158 120.626 168.86 120.563 167.953V166.644L116.586 166.562Z" fill="#B16668"/>
<path d="M106.019 143.93C106.286 141.782 106.764 139.665 107.445 137.61C107.445 137.61 107.016 132.194 106.809 127.021C106.583 121.451 106.809 114.455 106.714 113.064C106.714 113.064 124.679 109.453 124.999 115.863C125.32 122.272 124.29 138.685 124.096 141.51C123.902 144.336 123.397 146.841 122.81 151.44C122.223 156.04 120.621 166.643 120.621 166.643C119.999 166.959 119.309 167.117 118.611 167.103C117.913 167.089 117.23 166.903 116.622 166.562C116.622 166.562 115.358 153.693 115.489 150.429C115.591 148.013 116.006 145.62 116.725 143.311C116.725 143.311 116.387 138.003 116.084 133.381C115.782 128.759 115.466 126.547 115.398 124.543L115.01 124.349C115.01 124.349 114.617 132.311 114.405 135.141C114.193 137.971 113.742 140.68 112.925 145.929C112.212 150.488 110.099 160.125 110.099 160.125C108.05 161.235 106.822 159.981 106.822 159.981C106.822 159.981 105.464 147.884 106.019 143.93Z" fill="#37474F"/>
<path d="M115.381 124.55C115.381 124.55 111.021 122.401 108.84 120.465C108.84 120.465 110.867 123.318 113.526 124.581C113.526 124.581 114.469 134.476 114.465 134.277L115.011 124.532L115.381 124.55Z" fill="#263238"/>
<path d="M119.258 87.9425L118.193 93.7924L112.911 93.4087L114.017 86.7734L119.258 87.9425Z" fill="#B16668"/>
<path d="M107.328 92.9796C107.851 91.3908 109.869 89.6575 111.887 90.0321C114.887 90.5419 117.845 91.2798 120.734 92.2393C122.584 92.9029 124.268 94.4962 124.421 100.581C124.421 100.581 125.04 114.763 125.049 117.503C120.409 119.34 115.57 119.286 112.911 118.704C107.35 117.489 106.682 115.183 106.682 115.183C106.682 115.183 106.61 104.986 106.777 100.581C106.917 96.8389 106.967 94.0719 107.328 92.9796Z" fill="#6741A3"/>
<path d="M123.333 80.8242C123.333 80.8242 124.688 82.9637 124.512 83.1669C124.336 83.37 123.324 83.5325 123.324 83.5325L123.333 80.8242Z" fill="#B16668"/>
<path d="M119.615 74.9166C122.409 75.5711 123.19 76.8214 123.357 81.29C123.529 85.9573 123.018 87.4107 122.391 88.0246C121.971 88.4399 119.683 88.476 118.518 88.1194C117.078 87.668 113.824 86.4493 112.343 84.057C110.601 81.2584 110.208 77.512 112.176 76.0179C114.948 73.9461 118.478 74.6458 119.615 74.9166Z" fill="#B16668"/>
<path d="M123.157 79.8147C123.114 79.9241 123.041 80.0187 122.945 80.0866C122.849 80.1546 122.736 80.1929 122.619 80.1968C122.501 80.2008 122.385 80.1701 122.285 80.1087C122.185 80.0473 122.106 79.9579 122.056 79.8515C122.006 79.7451 121.989 79.6265 122.007 79.5104C122.024 79.3943 122.075 79.2859 122.153 79.1986C122.232 79.1113 122.334 79.0489 122.448 79.0193C122.561 78.9897 122.681 78.9942 122.792 79.0321C122.942 79.0903 123.064 79.2042 123.132 79.35C123.2 79.4959 123.209 79.6624 123.157 79.8147Z" fill="#263238"/>
<path d="M119.198 88.2626C118.25 87.4998 118.336 87.0078 118.336 87.0078C119.013 87.6443 121.532 88.1859 122.398 88.0234C122.042 88.389 120.403 88.4432 119.198 88.2626Z" fill="#9A4A4D"/>
<path d="M123.325 76.0759C122.504 77.4796 120.725 78.1522 120.725 78.1522C120.188 78.7616 120.486 81.1448 119.543 81.5195C119.543 81.5195 119.136 79.7862 117.678 79.9713C116.221 80.1563 115.972 82.016 116.871 83.167C117.769 84.318 118.631 83.9073 118.631 83.9073C118.631 83.9073 118.532 86.3673 117.408 87.7395C117.408 87.7395 116.157 88.1141 113.887 87.5724C112.488 87.2429 110.542 85.4419 109.752 83.5687C108.073 79.5966 108.033 76.0578 110.565 75.0558C110.876 73.2502 112.321 72.4694 113.955 72.1308C117.471 71.4086 119.737 73.6023 122.445 73.4127C123.998 73.3044 124.287 74.4283 123.325 76.0759Z" fill="#263238"/>
<path d="M110.506 75.6616L108.849 74.6324C108.985 74.4127 109.204 74.2563 109.455 74.1974C109.707 74.1386 109.972 74.1822 110.192 74.3187C110.411 74.4552 110.568 74.6733 110.627 74.9252C110.686 75.177 110.642 75.4419 110.506 75.6616Z" fill="#263238"/>
<path d="M120.589 92.2188C120.589 92.2188 123.216 92.7062 124.588 94.7826C125.961 96.8589 131.901 104.307 131.901 104.307C131.901 104.307 140.441 100.032 140.861 99.522C141.28 99.012 141.046 97.9919 140.928 97.4277C140.811 96.8634 140.621 95.6221 140.477 95.261C140.26 94.6427 141.167 94.8097 141.705 95.3829C142.242 95.9562 142.476 97.0801 142.743 97.2742C143.009 97.4683 145.045 95.1301 146.029 94.0017C147.013 92.8732 147.478 92.0833 148.141 92.5483C148.615 92.8868 148.308 93.5548 147.604 94.5208C147.273 94.9259 146.971 95.3543 146.701 95.8027C146.616 95.9742 146.877 96.1141 146.977 96.2044C147.171 96.3759 147.509 96.6558 147.536 96.9266C147.522 97.0767 147.522 97.2279 147.536 97.378C147.631 97.6985 148.028 97.8294 148.141 98.1634C148.223 98.3936 148.141 98.6464 148.177 98.8856C148.209 99.0391 148.29 99.1745 148.322 99.337C148.331 99.4902 148.306 99.6436 148.251 99.7868C148.196 99.9301 148.111 100.06 148.001 100.168C147.311 100.994 146.363 101.309 145.456 101.811C144.702 102.23 143.921 102.411 143.05 102.799C142.179 103.187 131.941 110.752 130.343 109.872C128.746 108.992 120.558 99.4227 120.558 99.4227C119.866 98.3474 119.501 97.0946 119.506 95.8161C119.512 94.5375 119.888 93.2879 120.589 92.2188Z" fill="#B16668"/>
<path d="M119.673 91.9102C120.801 92.0365 122.381 91.8289 124.597 94.2032C126.376 96.2407 128.034 98.3809 129.562 100.613C129.271 101.785 128.648 102.849 127.767 103.676C126.886 104.503 125.786 105.058 124.597 105.275C124.597 105.275 120.725 101.308 119.632 99.1187C118.54 96.9295 118.346 93.3816 119.673 91.9102Z" fill="#6741A3"/>
<path opacity="0.1" d="M119.673 91.9102C120.801 92.0365 122.381 91.8289 124.597 94.2032C126.376 96.2407 128.034 98.3809 129.562 100.613C129.271 101.785 128.648 102.849 127.767 103.676C126.886 104.503 125.786 105.058 124.597 105.275C124.597 105.275 120.725 101.308 119.632 99.1187C118.54 96.9295 118.346 93.3816 119.673 91.9102Z" fill="black"/>
<path d="M123.061 85.5246C122.931 85.5346 122.801 85.5185 122.677 85.4774C122.424 85.3817 122.218 85.192 122.102 84.948C121.986 84.704 121.968 84.4245 122.053 84.168L123.339 84.6286L123.245 85.4927C123.185 85.5091 123.124 85.5198 123.061 85.5246Z" fill="#552323"/>
<path d="M122.246 84.5155C122.168 84.4962 122.087 84.4857 122.006 84.4844C122 84.699 122.061 84.9104 122.18 85.0887C122.3 85.2671 122.472 85.4035 122.674 85.4789C122.774 85.5131 122.879 85.5299 122.985 85.5288C123.015 85.2974 122.956 85.0632 122.818 84.8747C122.681 84.6861 122.476 84.5575 122.246 84.5155Z" fill="#F28F8F"/>
<path fill-rule="evenodd" clip-rule="evenodd" d="M82.4884 155.197C82.8428 155.206 83.1233 155.5 83.115 155.854L83.0354 159.231C83.0159 160.058 82.3297 160.713 81.5027 160.694L79.7715 160.653C79.4171 160.644 79.1365 160.35 79.1449 159.996C79.1532 159.641 79.4473 159.361 79.8018 159.369L81.533 159.41C81.6511 159.413 81.7491 159.319 81.7519 159.201L81.8315 155.824C81.8399 155.469 82.1339 155.189 82.4884 155.197Z" fill="#FFCB7C"/>
<path fill-rule="evenodd" clip-rule="evenodd" d="M84.6054 155.248C84.251 155.24 83.9569 155.52 83.9485 155.875L83.8689 159.252C83.8494 160.079 84.504 160.765 85.331 160.785L87.0622 160.826C87.4167 160.834 87.7108 160.553 87.7191 160.199C87.7275 159.845 87.4469 159.55 87.0925 159.542L85.3613 159.501C85.2431 159.499 85.1496 159.401 85.1524 159.282L85.232 155.905C85.2404 155.551 84.9598 155.256 84.6054 155.248Z" fill="#FFCB7C"/>
<path fill-rule="evenodd" clip-rule="evenodd" d="M92.1 134.342C91.9752 134.677 92.0143 134.772 92.1996 134.585C92.3675 134.416 92.4598 134.167 92.4049 134.034C92.3501 133.901 92.213 134.039 92.1 134.342Z" fill="#5C0C76"/>
<path d="M97.6327 132.647C95.492 132.929 93.6243 133.154 93.4823 133.147C93.3404 133.139 92.5055 135.281 91.6267 137.906C90.3575 141.698 89.6492 143.379 88.178 146.089C87.1598 147.964 86.2707 149.522 86.2024 149.549C82.736 154.209 88.679 154.859 92.0838 154.601C97.7932 153.328 101.671 149.586 103.136 143.939C104.183 139.899 104.316 134.867 103.413 133.44C102.658 132.247 101.68 132.113 97.6327 132.647Z" fill="#5C0C76"/>
<path fill-rule="evenodd" clip-rule="evenodd" d="M92.1429 134.393C92.0181 134.728 92.0573 134.823 92.2426 134.636C92.4105 134.466 92.5028 134.218 92.4479 134.085C92.3931 133.951 92.2559 134.09 92.1429 134.393Z" fill="#501A2C"/>
<path fill-rule="evenodd" clip-rule="evenodd" d="M86.2454 149.6C86.3137 149.572 87.2027 148.015 88.221 146.139C88.8656 144.952 88.9042 144.987 89.3672 143.931L102.08 147.195C100.259 151.628 97.0667 153.55 92.1267 154.652C88.722 154.909 82.779 154.26 86.2454 149.6Z" fill="#501A2C"/>
<path d="M103.179 143.989L90.5688 141.081C90.3199 141.738 89.619 143.356 89.3672 143.931L102.08 147.195C102.363 146.505 102.981 144.751 103.179 143.989Z" fill="white"/>
<path d="M71.6949 153.897L72.4644 121.249C72.5164 119.04 74.349 117.292 76.5575 117.344L97.2752 117.832C99.0837 117.875 100.63 119.123 100.916 120.909C101.777 126.272 102.862 137.79 98.4482 146.92C94.0808 155.954 81.7036 157.536 75.3982 157.737C73.2688 157.804 71.6448 156.027 71.6949 153.897Z" fill="#F14F5C"/>
<circle cx="83.9473" cy="128.224" r="5.99847" transform="rotate(1.35 83.9473 128.224)" fill="white"/>
<circle cx="94.7656" cy="128.482" r="5.99847" transform="rotate(1.35 94.7656 128.482)" fill="white"/>
<rect x="89.2031" y="132.938" width="3.22498" height="3.22498" rx="1" transform="rotate(44.1179 89.2031 132.938)" fill="#FFCB7C"/>
<path d="M96.8164 141.066C93.2404 141.528 84.7504 142.405 79.8594 141.297C74.9683 140.19 81.8204 150.833 85.8578 156.293C87.8188 155.64 91.81 154.194 92.0869 153.64C92.3637 153.086 95.3937 144.95 96.8164 141.066Z" fill="white"/>
<path d="M87.1422 151.648C86.9881 151.442 86.1513 149.2 85.2824 146.668C83.6861 142.016 82.0214 141.369 81.6913 141.58C81.591 141.644 81.565 140.774 81.6331 139.647C81.7667 137.438 81.5215 136.682 80.4862 136.11C79.4317 135.528 73.6627 136.11 72.4151 136.11C70.8736 136.11 72.8609 136.03 71.8252 137.064C70.9473 137.941 71.1049 137.525 69.017 145.702C68.2852 148.567 70.6404 147.702 70.4012 148.635C69.989 150.243 68.1755 150.187 68.5556 150.992C68.6801 151.255 68.6073 151.432 68.4507 151.548C68.7256 151.539 69.0645 151.534 69.4784 151.536L71.6701 155.95L71.5947 156.901C71.5947 157.468 71.7564 157.792 72.1844 158.081C72.7111 158.437 73.3486 158.451 76.2324 158.207C79.9955 157.89 82.9592 157.388 85.1002 156.706C86.6177 156.223 86.9442 155.933 86.2726 155.667C86.0708 155.588 85.9202 155.226 85.9202 154.821L87.9966 154.114L87.1422 151.648Z" fill="#751F91"/>
<path d="M98.5137 140.705C97.138 140.947 95.9689 141.189 95.9158 141.244C95.8627 141.299 95.0819 143.469 94.1805 146.066C91.914 152.597 82.9481 156.342 82.2371 156.065L81.6913 157.218C75.9852 159.295 91.1193 155.488 93.8432 152.401C95.7929 150.922 97.1807 149.208 98.4323 147.183C98.9134 146.404 99.0178 145.686 99.1244 145.683C99.6627 144.133 100.716 140.968 100.624 140.705C100.532 140.442 99.1787 140.596 98.5137 140.705Z" fill="#751F91"/>
<path d="M71.8491 134.504C70.8621 134.83 70.2113 135.317 69.5082 136.255C68.8478 137.388 66.3228 146.088 65.1429 150.297L73.7944 155.603C77.9914 154.777 81.4078 151.912 82.683 146.842C83.3549 144.581 83.4438 140.886 83.4841 139.223C83.5365 137.063 83.8334 136.995 78.7237 135.496C74.1377 134.15 73.2897 134.028 71.8491 134.504Z" fill="#562068"/>
<path fill-rule="evenodd" clip-rule="evenodd" d="M71.6188 134.04C70.6318 134.366 69.981 134.853 69.278 135.791C68.8307 136.388 64.2193 151.643 64.1968 152.6C64.1904 152.869 64.4716 153.39 64.8215 153.757C65.3706 154.332 65.762 154.469 67.6804 154.755C70.4189 155.163 72.0423 155.171 74.0036 154.785C78.2006 153.959 81.0385 151.135 82.4528 146.378C83.1247 144.117 83.7733 140.544 83.8137 138.882C83.866 136.721 83.6032 136.531 78.4935 135.032C73.9074 133.686 73.0595 133.564 71.6188 134.04Z" fill="#501A2C"/>
<path d="M83.1453 131.549C79.9731 130.876 79.4893 126.475 82.4257 125.002C82.8822 124.773 83.6071 124.594 84.0368 124.604C84.7973 124.622 84.8081 124.636 84.4398 125.137C83.9082 125.859 83.9299 127.092 84.4842 127.674C85.0271 128.243 86.0469 128.321 86.7569 127.848C87.4128 127.411 87.5843 127.802 87.2763 129.031C86.8459 130.75 84.9177 131.925 83.1453 131.549Z" fill="#501A2C"/>
<path d="M93.9631 131.804C90.7909 131.131 90.3071 126.73 93.2435 125.257C93.7 125.028 94.4249 124.849 94.8546 124.859C95.6151 124.877 95.6258 124.891 95.2576 125.392C94.7259 126.113 94.7477 127.347 95.302 127.928C95.8448 128.498 96.8647 128.576 97.5747 128.103C98.2306 127.666 98.4021 128.057 98.0941 129.286C97.6637 131.004 95.7355 132.179 93.9631 131.804Z" fill="#501A2C"/>
<path fill-rule="evenodd" clip-rule="evenodd" d="M71.585 133.907C70.592 134.233 69.9373 134.719 69.2301 135.658C69.0744 135.865 68.648 136.904 67.8542 139.421L83.4009 142.569C83.7786 140.77 83.8289 139.824 83.855 138.751C83.9073 136.59 83.6428 136.4 78.5017 134.9C73.8875 133.553 73.0343 133.431 71.585 133.907Z" fill="#751F91"/>
<path d="M66.7541 143.143L82.4868 146.246C82.7263 145.445 83.1935 143.556 83.4009 142.569L67.8542 139.421C67.5759 140.303 67.0502 142.176 66.7541 143.143Z" fill="white"/>
<path d="M88.1956 141.93C89.1282 140.948 90.6842 140.918 91.654 141.864L92.3989 142.59C92.9594 143.137 92.9853 144.03 92.4574 144.608C91.9592 145.154 91.9504 145.986 92.4369 146.543L92.6618 146.8C92.9453 147.124 93.1058 147.537 93.1151 147.967L93.2015 151.971C93.2202 152.838 92.8807 153.675 92.263 154.284C91.0588 155.472 89.1321 155.498 87.8963 154.343L87.8384 154.289C87.1834 153.677 86.8116 152.821 86.8116 151.925V148.019C86.8116 147.558 86.9886 147.115 87.3061 146.781L87.5292 146.546C88.0535 145.994 88.062 145.131 87.5488 144.568C87.0356 144.006 87.044 143.143 87.568 142.591L88.1956 141.93Z" fill="#6741A3"/>
<path fill-rule="evenodd" clip-rule="evenodd" d="M87.8719 142.395C86.8025 143.291 86.7549 144.25 87.7851 144.137C88.2934 144.081 88.3279 144.129 88.0989 144.577C87.8595 145.046 87.8697 145.054 88.2497 144.693C88.6125 144.347 88.7783 144.341 89.7588 144.636C90.3646 144.818 90.9248 145.072 91.0039 145.199C91.0894 145.338 91.3714 145.275 91.7024 145.043C92.2318 144.673 92.2368 144.643 91.8102 144.402C91.5641 144.262 91.0923 144.127 90.7613 144.1C89.7569 144.02 87.4059 143.267 87.5304 143.066C87.6747 142.832 88.5695 142.921 89.6434 143.275C90.0903 143.422 90.802 143.586 91.225 143.64C91.6479 143.693 92.1335 143.853 92.3039 143.994C92.5307 144.182 92.6942 144.154 92.9138 143.89C93.3129 143.409 92.8407 142.814 92.194 142.983C91.938 143.05 91.5387 143.022 91.3067 142.921C91.0746 142.82 90.8122 142.751 90.7236 142.769C90.6349 142.786 90.0435 142.643 89.4092 142.451C88.775 142.259 88.2499 142.1 88.2421 142.099C88.2344 142.097 88.0678 142.231 87.8719 142.395ZM88.5341 145.396C88.6302 145.763 88.9332 145.916 89.8011 146.035C90.4284 146.121 91.2252 146.338 91.5712 146.518L92.2007 146.844L91.7868 146.296C91.5593 145.994 90.8868 145.613 90.2925 145.447C89.6984 145.282 89.0312 145.095 88.8101 145.031C88.5033 144.942 88.438 145.029 88.5341 145.396ZM87.9209 146.485C87.5653 146.914 87.9166 147.101 89.69 147.427C91.8391 147.823 92.9162 148.171 92.9162 148.469C92.9162 148.641 92.8784 148.782 92.8321 148.782C92.4389 148.782 87.7187 147.488 87.5173 147.325C87.1903 147.061 86.9418 147.295 86.9418 147.867C86.9418 148.158 87.1215 148.308 87.4795 148.316C87.7753 148.322 89.1733 148.622 90.5862 148.983L93.1552 149.638V148.606C93.1552 147.553 93.0708 147.457 91.9603 147.254C91.6317 147.193 90.8337 146.98 90.1868 146.78C89.5402 146.58 88.9217 146.471 88.8127 146.539C88.7038 146.606 88.6146 146.547 88.6146 146.408C88.6146 146.053 88.2464 146.094 87.9209 146.485Z" fill="#6741A3"/>
<path d="M92.4377 150.163C91.781 149.915 87.4217 148.782 87.1265 148.782C87.025 148.782 86.9418 148.926 86.9418 149.102C86.9418 149.453 87.7244 149.718 90.7057 150.373C91.7899 150.612 92.6789 150.915 92.6808 151.048C92.6829 151.18 92.7888 151.128 92.9162 150.931C93.1019 150.644 93.1485 150.684 93.1516 151.135C93.1537 151.491 93.0443 151.656 92.854 151.583C92.6884 151.519 91.3172 151.164 89.8071 150.794C88.2968 150.423 86.9332 149.953 86.7767 149.749C86.2144 150.611 90.7151 151.634 93.0357 152.038C92.795 152.319 90.4693 151.879 87.9574 151.076C87.1779 150.827 86.9418 150.819 86.9418 151.042C86.9418 151.202 87.3987 151.477 87.9574 151.653C89.1805 152.04 88.9975 151.994 90.1868 152.212C92.606 152.657 93.7265 153.43 91.9753 153.447C91.4603 153.452 91.0914 153.371 91.1554 153.268C91.2192 153.164 91.0699 153.08 90.823 153.08C90.5764 153.08 89.6023 152.877 88.6581 152.629L86.8122 151.899V152.854C86.7254 153.268 86.9517 153.447 87.2459 153.721C88.5471 154.936 89.8049 156.324 90.0651 156.15C91.0194 156.063 91.2796 155.066 92.5808 154.025C93.0145 153.634 93.1198 153.436 93.2314 153.157C93.3112 151.89 93.2579 151.032 93.1552 150.373L92.4377 150.163Z" fill="#6741A3"/>
<path d="M90.3846 140.94C90.4695 140.999 90.5602 141.123 90.6151 141.266C90.7276 141.559 90.6665 141.583 90.2977 141.385C89.6243 141.025 88.9556 141.088 88.584 141.545C88.3785 141.798 88.3647 141.884 88.5468 141.775C88.7064 141.679 89.4592 141.786 90.2196 142.012C92.3285 142.641 92.3508 142.625 91.1081 141.364C91.009 141.278 90.7355 141.083 90.3846 140.94Z" fill="#6741A3"/>
<defs>
<filter id="filter0_f_4249_4491" x="0" y="102.613" width="294" height="199.953" filterUnits="userSpaceOnUse" color-interpolation-filters="sRGB">
<feFlood flood-opacity="0" result="BackgroundImageFix"/>
<feBlend mode="normal" in="SourceGraphic" in2="BackgroundImageFix" result="shape"/>
<feGaussianBlur stdDeviation="17" result="effect1_foregroundBlur_4249_4491"/>
</filter>
<radialGradient id="paint0_radial_4249_4491" cx="0" cy="0" r="1" gradientUnits="userSpaceOnUse" gradientTransform="translate(147 202.591) rotate(90.0004) scale(74.3504 127.341)">
<stop stop-color="#751F91"/>
<stop offset="1" stop-color="#BD9AF5" stop-opacity="0.09"/>
</radialGradient>
<linearGradient id="paint1_linear_4249_4491" x1="34" y1="154.201" x2="235.754" y2="242.989" gradientUnits="userSpaceOnUse">
<stop stop-color="#462C6A"/>
<stop offset="1" stop-color="#AB7AFC"/>
</linearGradient>
<clipPath id="clip0_4249_4491">
<rect width="226" height="139.974" fill="white" transform="translate(34 71)"/>
</clipPath>
</defs>
</svg>
